<svg xmlns="http://www.w3.org/2000/svg" viewBox="0 0 432 492" enable-background="new 0 0 595.275 706.354" width="432" height="492"><g stroke="#000"><path d="m 6 6 h 420 v 295 c 0 100 -110 185 -210 185 c -100 0 -210 -85 -210 -185 z" fill="#0f47af" stroke-width="6"/><g stroke-linejoin="round" stroke-linecap="round" stroke-width="3"><path d="m 189.24 161.33 c -5.532 1.86 -10.574 2.411 -13.07 -3.818 5.564 -2.946 11.128 -3.01 16.692 -11.555 -4.342 -1.52 -5.948 2.884 -13.541 -1.05 3.851 -2.801 7.993 -5.65 17.857 -9.454 -1.873 -4.711 -6.119 -3.487 -9.937 -3.335 4.723 -16.296 28.664 1.464 13.893 -18.09 6.248 0.259 12.09 -0.124 13.318 -7.905 -7.747 -1.98 -5.419 -5.137 -24.09 -4.386 6.088 -13.684 23.942 0.12 25.624 -8.173 2.01 -9.919 -28.19 -21.724 -38.766 -7.468 -3.825 -10.696 -4.01 -19.801 8.403 -23.393 1.467 -11.02 -7.424 -19.838 -13.4 -25.744 -9.431 -9.32 2.695 -14.998 8.07 -3.473 11.49 -4.396 10.258 4.26 5.846 8.57 9.528 6.604 14.354 1.568 24.03 -4.495 -11.538 0.029 -6.996 -11.255 -0.383 -10.305 -0.696 -12.05 13.347 -8.795 11.355 0.383 13.614 -1.26 9.02 12.431 0.767 10.02 10.157 6.609 14.166 17.658 20.83 4.485 -2.832 -6.498 2.461 -10.785 8.685 -5.637 2.974 -8.629 22.791 -5.152 8.07 4.02 -7.802 4.864 -14.407 9.311 -19.361 16.182 4.095 1.892 4.975 4 2.985 6.906 3.569 2.419 9.09 -1.082 13.671 -3.734 -0.3 8.89 -10.196 12.417 -11.486 16.454 4.072 5.072 10.261 4.497 17.389 1.419 0.798 11.08 -8.274 10.203 -14.323 9.369 2.566 10.836 16.453 10.939 21.292 17.558 -1.5 3.775 -8.338 5.957 -15.756 4.57 -3.199 9.206 5.506 15.16 13.172 21.407 -5.752 2.268 -11.95 1.863 -18.724 -2 3.627 6.941 4.452 13.416 13.686 21.292 -7.618 2.549 -12.523 -0.327 -17.12 -3.818 1.983 4.372 0.316 8.534 10.158 13.359 -4.99 0.947 -8.03 3.193 -6.499 8.398 7.703 -3.439 20.896 3.451 22.855 0.864 11.805 -15.595 17.218 -14.85 28.339 -13.483 15.779 1.94 23.4 -13.31 20.451 -22.554 -7.03 -22.03 -15.249 -27.36 -19.268 -52.03 -14.01 14.451 -37.577 12.185 -33.423 -8.336 5.748 -28.397 28.31 -22.93 37.36 -46.29 13.345 9.148 -0.626 23.467 7.01 34.48 10.02 -5.436 21.38 -21.746 31.396 -37.23 5.311 12.832 -2.647 24.581 -6.533 37.413 16.584 -5.355 44.956 -19.823 60.52 -32.32 -2.428 26.899 -12.748 37.762 -38.642 56.678 16.557 2.128 31.436 4.994 50.03 -1.04 -8.12 16.14 -12.921 37.14 -47.39 27.699 8.36 10.537 31.939 20.15 47.617 16.954 -3.308 23.743 -22.681 28.806 -43.729 24.1 14.05 19.15 31.409 31.09 44.1 54.721 -19.259 8.391 -29.917 -0.662 -45.16 -9.347 13.585 43.18 19.06 66.1 41.07 91.7 -29.22 6.171 -51.933 -21 -77.899 -74 1 27.66 2.525 56.994 10.189 76.942 -24.24 -8.456 -37.522 -43.44 -54.622 -74.75 -3.765 8.716 -3.387 20.2 -4.541 31.648 -10.465 -6.851 -18.727 -21.391 -24.803 -42.491 -2.317 10.234 -3.806 22.24 -3.267 33.899 -8.583 -1.781 -7.81 -8.144 -9.296 -11.344 1.55 7.103 0.525 17.573 -6.379 17.632 9.262 10.378 19.06 15.309 32.732 13.588 19.863 -2.501 25.17 18.917 40.661 24.871 l -16.519 6.138 c 9.08 4.234 4.932 9.01 4.083 13.244 12.345 2.56 23.781 17.662 37.04 25.24 16.707 9.556 21.666 -18.827 30.97 -18.298 4.229 -8.08 13.41 -3.02 18.03 2.541 -6.04 1.083 -12.434 -0.272 -13.09 3.121 5.289 -1.177 7.02 7.814 -6.655 7.402 -4.841 1.385 -6.556 6.988 -7.106 9.906 11.709 1.959 20.352 -13.04 30.528 -3.325 10.02 -7.411 12.449 4.02 11.857 10.298 -4.285 -5.02 -6.749 -7.448 -9.13 -3.905 -2.309 3.934 1.242 4.893 -9.796 2.377 -11.278 -2.57 -10.195 4.236 -24.26 4.586 6.04 3.599 11.225 7.691 24.16 7.353 5.063 1.296 11.07 2.164 5.252 8.403 6.273 7.864 -0.053 9.427 -1.05 13.655 -0.282 -4.483 -0.186 -9.724 -3.42 -8.304 -4.845 5.099 -8.604 6.725 -8.377 -4.405 -10.466 -1.891 -15.11 -5.239 -17.431 -9.166 -7.923 0.706 -12.83 4.274 -22.711 -2.852 -3.538 1.446 -7.136 2.843 -15.669 0.293 -0.743 10.74 -2.915 10.125 -6.689 5.71 -4.803 3.984 -4.126 6.435 -4.186 10.42 -9.232 -7.174 -2.239 -10.517 -1.817 -15.657 -8.705 -11.716 3.841 -10.665 10.389 -10.05 14.975 1.403 13.11 -5.559 7.284 -9.623 -6.184 -4.313 -13.498 -8.683 -21.21 -6.586 -9.43 2.564 -9.866 -3.912 -7.432 -10.165 -3.439 -0.427 -7.313 1.101 -8.807 -8.08 l -3.818 12.11 c -7.438 -19.2 -31.506 -20.59 -36.864 -38.18 3.496 8.02 -0.485 8.366 -0.951 19.475 -9.508 -4.41 -13.06 -7.675 -14.79 -10.589 4.694 15.922 8.01 37.777 20.993 42.584 10.774 3.989 20.15 3.543 19.11 -7.652 8.996 2.122 14.04 11.579 3.535 21.491 12.372 12.245 12.247 22.406 0.084 30.562 3.104 -26.08 -28.523 -23.505 -39.732 -40.2 5.997 20.243 12.848 39.42 26.943 49.54 11.844 8.499 19.15 1.392 26.828 -3.32 9.01 -5.531 21.429 -6.346 28.05 -0.248 6.147 5.659 10.732 5.386 20.381 3.2 -3.815 16.469 -24.899 1.9 -31.701 6.644 -7.947 5.543 -13.472 14.206 -26.555 12.846 13.446 12.49 26.761 19.417 43.934 14.691 23.67 -6.514 23.73 -18.395 21.377 -35.5 10.837 2.868 19.17 26.874 -0.767 41.04 -12.994 9.228 -53.24 15.826 -71.34 -18.808 -19.297 4.181 -31.358 -10.06 -43.44 -24.26 3.679 11.948 4.583 25.376 22.91 29.511 0.175 4.145 -3.778 6.374 -9.254 7.07 16.343 -2.738 32.369 -1.382 37.8 15.956 2.636 8.416 -0.227 18.328 -5.536 23.592 -1.573 -33.21 -33.21 -14.287 -44.969 -37.531 1.166 16.788 16.615 23.957 17.489 32.563 -5.799 -1.838 -7.802 0.64 -18.624 -9.538 -0.545 10.1 -2.46 18.395 -8.666 23.311 -6.205 -5.647 -8.121 -13.941 -8.666 -24.04 -10.822 10.178 -12.825 7.701 -18.624 9.538 0.874 -8.606 16.323 -15.775 17.489 -32.563 -11.762 23.24 -43.4 4.32 -44.969 37.531 -5.309 -5.264 -8.172 -15.177 -5.536 -23.592 5.431 -17.337 21.457 -18.694 37.8 -15.956 -5.477 -0.695 -9.43 -2.924 -9.254 -7.07 18.327 -4.136 19.231 -17.564 22.91 -29.511 -12.08 14.2 -24.14 28.441 -43.44 24.26 -18.11 34.634 -58.35 28.04 -71.34 18.808 -19.94 -14.162 -11.604 -38.17 -0.767 -41.04 -1.203 16.15 -2.293 28.986 21.376 35.5 17.17 4.726 30.488 -2.2 43.934 -14.691 -13.08 1.36 -18.607 -7.303 -26.555 -12.846 -6.803 -4.744 -27.886 9.825 -31.701 -6.644 9.649 2.186 14.233 2.459 20.381 -3.2 6.625 -6.098 19.05 -5.283 28.05 0.248 7.674 4.712 14.984 11.819 26.828 3.32 14.09 -10.115 20.946 -29.3 26.943 -49.54 -11.209 16.695 -42.836 14.12 -39.732 40.2 -12.162 -8.156 -12.288 -18.317 0.084 -30.562 -10.501 -9.912 -5.461 -19.369 3.535 -21.491 -1.04 11.195 8.333 11.641 19.11 7.652 12.982 -4.807 16.299 -26.662 20.993 -42.584 -1.728 2.914 -5.282 6.179 -14.79 10.589 -0.466 -11.11 -4.447 -11.458 -0.951 -19.475 -5.359 17.593 -29.426 18.983 -36.864 38.18 l -3.818 -12.11 c -1.495 9.177 -5.368 7.648 -8.807 8.08 2.434 6.253 1.998 12.729 -7.432 10.165 -7.71 -2.096 -15.02 2.274 -21.21 6.586 -5.826 4.063 -7.691 11.03 7.284 9.623 6.548 -0.614 19.09 -1.664 10.389 10.05 0.421 5.139 7.03 3.882 1.633 14.507 -2.258 -4.02 -4.059 -10.317 -7.253 -9.653 -3.774 4.415 -9.396 3.113 -7.07 -5.327 -8.533 2.55 -12.13 1.153 -15.669 -0.293 -9.881 7.126 -14.788 3.558 -22.711 2.852 -2.323 3.927 -6.965 7.275 -17.431 9.166 0.227 11.13 -3.533 9.504 -8.377 4.405 -3.234 -1.42 -3.138 6.12 -3.42 10.604 -0.998 -4.228 -8.474 -7.709 -2.2 -15.572 -5.814 -6.24 1.34 -7.491 6.402 -8.787 12.934 0.338 18.12 -3.754 24.16 -7.353 -14.06 -0.35 -12.982 -7.157 -24.26 -4.586 -11.04 2.516 -6.945 0.201 -9.254 -3.733 -2.38 -3.543 -5.835 1.276 -10.121 4.401 0.763 -5.735 2.287 -16.849 12.306 -9.438 10.176 -9.714 18.819 5.283 30.528 3.325 -0.55 -2.919 -2.265 -8.521 -7.106 -9.906 -13.67 0.411 -11.944 -8.579 -6.655 -7.402 -0.653 -3.393 -7.321 -4.207 -13.359 -5.29 7.06 -4.753 14.07 -9.268 18.298 1.525 9.305 -0.529 14.264 25.956 30.97 16.4 13.255 -7.581 24.691 -22.684 37.04 -25.24 -0.849 -4.234 -4.992 -9.01 4.083 -13.244 l -12.182 -7.222 c 15.492 -5.954 16.461 -23.578 36.32 -21.08 13.668 1.721 23.47 -5.92 32.732 -16.298 -6.904 -0.059 -5.218 -7.276 -3.668 -14.379 -1.486 3.2 -3.424 6.31 -12.01 8.091 0.539 -11.662 -1.492 -23.665 -3.809 -33.899 -6.076 21.1 -13.797 35.641 -24.26 42.491 -1.153 -11.45 -0.776 -22.932 -4.541 -31.648 -17.1 31.31 -35.26 59.25 -59.5 67.7 7.664 -19.948 15.694 -38.981 19.406 -68.809 -25.967 52.999 -57.892 80.17 -87.12 69.12 22.01 -25.597 37.786 -45.81 51.37 -88.987 -15.241 8.686 -30.778 16.11 -50.04 7.721 19.19 -11.709 39.806 -35.03 48.43 -54.721 -21.05 4.701 -41.505 0.18 -48.07 -18.14 15.678 3.195 38.17 0.631 46.533 -9.906 -23.63 -1.401 -34.395 -16.434 -42.515 -32.578 18.598 6.03 34.561 8.05 51.12 5.919 c -25.894 -18.916 -41.636 -35.743 -44.06 -62.64 15.565 12.492 31.467 22.623 48.05 27.978 -3.886 -12.832 -2.628 -25.665 2.684 -38.497 10.02 15.484 24.632 32.877 34.649 38.31 7.635 -11.01 -0.372 -25.332 12.973 -34.48 c 9.06 23.357 31.615 17.89 37.36 46.29 4.154 20.522 -20.773 27.937 -34.779 13.487 -4.561 22.5 -16.849 24.85 -23.876 46.878 -2.949 9.244 3.208 33.35 16.385 24.451 11.664 -7.873 29.17 -10.839 35.12 11.585 8.6 -2.928 15.423 -1.592 19.632 8.423 1.068 -5.792 0.82 -12.59 9.1 -15.12 z" fill="#fcdd09"/><g fill="none"><path d="m 105.11 57.46 c 1.572 2.548 5.15 6.994 7.694 9.542 m -23.412 -10.692 c 2.356 4.954 6.824 11.606 15.249 18.584 m -48.602 40.07 c 5.257 1.382 10.234 2.951 21.449 0.361 m -0.813 46.971 c -3.226 5.563 -7.865 10.333 -11.454 14.367 m 21.487 5.01 c -3.84 6.8 -7.68 13.921 -11.52 18.762 m -3.814 -133 c 8.04 2.788 19.519 10.655 27.563 19.575 m -37.531 -11.141 c 5.837 6.103 16.346 9.69 21.945 21.612 c -17.891 -6.809 -36.721 -13.585 -46.32 -19.262 m 32.04 -3.883 c 9.01 6.949 20.693 14.479 24.768 26.363 m -41.635 8.906 c 6.419 2.647 17.657 4.046 28.349 -0.023 m -24.899 27.24 c 9.591 -2.484 19.767 -7.115 26.433 1.127 m 1.618 39.826 c -14.03 21.871 -31.657 45.671 -51.23 59.41 m 120.94 -31.363 c 0.729 10.06 0.215 13.903 -0.019 19.15 m -17.19 -22.24 c -1.293 13.383 -6.082 21.431 -9.266 29.14 m 1.936 -27.672 c -2.562 12.674 -5.124 21.41 -7.686 28.06 m -31.931 -41.13 c -5.885 13.312 -12.788 17.998 -18.672 24.644 m 36.756 -13.647 c -8.696 18.303 -18.476 35.34 -27.17 45.47 m 33.372 -85.08 c 1.935 1.238 2.185 4.722 6.881 2.278 m 31.838 -1.511 c 1.661 6.102 1.639 10.1 -0.786 11.09 m -75.12 -24.512 c -3.712 13.229 -15.09 26.2 -19.954 30.26 m 83.59 -131.47 c -0.24 4.421 1.269 5.343 3.048 5.728 m -7.648 -8.411 c 0.066 5 -0.279 10.213 5.731 12.245 m -11.865 -8.411 c 2.11 5.782 4.301 11.323 8.415 11.09 m 24.17 8.07 c -0.365 3.402 2.243 7.992 -2.703 9.561 m -25.282 81.68 c -1.248 1.781 -1.582 3.563 -0.786 5.344 m 32.988 6.923 c -0.584 2.165 -0.328 4.33 1.131 6.495 m -26.816 -19.15 c -1.387 1.934 -2.913 3.729 -2.319 7.645 m 21.871 0.406 c 0.223 3.315 0.589 6.63 -1.169 9.945 m 6.536 18.424 c 2.266 0.715 4.399 1.083 7.648 0.361 m -22.982 -4.578 c 2.277 1.752 4.391 4.485 7.648 0.361 m -22.982 -1.127 c 1.016 4.337 3.853 3.211 6.881 1.511 m -22.22 -3.044 c 2.473 2.045 4.19 5.854 9.565 1.127 m -45.736 -40.623 c -0.408 3.419 1.574 7.83 3.524 8.674 m 18.918 24.419 c 2.145 2.921 4.276 5.876 8.415 3.811 m -26.519 -148.59 c 1.493 7.229 11.768 22.12 20.408 29.353 m -58.36 -17.968 c 5.155 6.36 6.95 13.393 18.704 18.433 m -24.668 31.445 c 12.832 8.418 35.574 0.625 41.475 10.843 m -4.942 63.61 c -5.358 9 -19.307 20.782 -23.25 20.427 m 107.08 9.759 c -2.078 10.204 -5.241 17.288 -7.861 24.397 m -39.03 -23.584 c -1.89 12.668 -3.927 27.27 -8.674 32.8 m -24.02 -31.03 c -4.247 11.475 -13.477 22.775 -17.724 25.613 m 35.402 -30.356 c -9.142 16.532 -28.17 44.12 -35.402 52.04 m 14.297 -89.16 c -6.925 12.989 -27.335 28.869 -33.27 28.981 m 50.807 4.23 c -15.257 22.2 -41.855 67.17 -61.11 78.72 m 107.44 -71.984 c 4.264 23.503 -3.235 38.31 -9.537 50.865 m -23.815 -53.55 c -6.678 18.972 -19.424 53.813 -29.09 65.816 m -8.5 -123.03 c -11.596 13.172 -31.27 26.668 -45.937 30.64 m 5.704 -55.46 c 10.161 2.957 29.322 2.624 43.3 0.085 -0.384 23.22 -18.357 22.653 -35.23 18.372 m 16.08 -105.86 c 5.989 10.709 26.587 32.29 38.38 41.664 m 12.988 -41.28 c 1.476 7.6 4.638 18.323 7.813 25.525 0.128 0.29 -5.442 1.502 -4.487 8.252 -2.902 0.216 -7.08 0.633 -7.985 7.485 -14.854 -2.874 -7.588 7.867 -5.527 12.134 -19.363 -9.609 -2.902 10.226 -5.067 13.988 -18.968 -9.682 -6.505 11.263 -6.505 11.263 -14.07 -4.428 -9.02 10.979 -4.051 26.298 -21.505 -0.54 0.633 13.146 -6.673 24.14 10.274 3.53 7.06 6.917 3.046 11.876 6.398 3.589 9.198 9.562 9.868 16.73 11.673 0.318 10.224 12.12 12.826 11.168 8.801 -3.231 12.412 3.453 18.887 3.557 6.576 0.106 12.12 -5.527 19.05 -1.818 4.194 2.246 14.444 2.742 23.18 0.682 4.939 -1.165 7.969 2.359 12.377 1.956 -0.455 9.877 0.771 22.888 -3.067 25.984 m -26.774 -71.52 c -0.818 2.43 -1.26 5.612 -1.355 9.488 m -5.15 -89.46 c 4.458 1.476 8.453 2.01 13.554 -1.355 m -30.903 4.337 c -3.865 21.936 -27.749 30.788 -21.14 63.974 m 32.12 -61.805 c -4.428 11.674 -4.968 22.96 0.813 33.613"/><path d="m 335.37 53.741 c -1.572 2.548 -8.674 10.518 -12.845 12.253 m 21.786 -6.355 c -2.356 4.954 -6.824 11.606 -15.249 18.584 m 71.64 42.51 c -7.426 4.093 -40.05 -15.482 -52.08 -6.958 m 8.403 51.85 c 1.084 5.257 18.524 22.12 25.01 26.565 m -35.04 -7.192 c 3.84 6.8 7.68 13.921 11.52 18.762 m 3.814 -133 c -8.04 2.788 -19.519 10.655 -27.563 19.575 m 61.66 -22.255 c -3.221 3.368 -21.16 14.979 -36.457 16.729 -4.173 0.477 -11.889 7.916 -14.763 16.54 16.807 -8.164 39.16 0.782 48.76 -4.895 m -36.923 -19.06 c -9.01 6.949 -13.1 14.75 -17.18 26.635 m 38.19 36.12 c -9.591 -2.484 -19.767 -7.115 -26.433 1.127 m -0.263 39.555 c 11.319 11.299 19.729 32.931 34.15 45.86 m -85.41 12.179 c -0.979 -5.15 -5.779 -19.368 -1.176 -32.08 1.763 13.309 18.208 56.61 21.393 60.39 m -15.49 -59.659 c 2.562 12.674 5.124 21.41 7.686 28.06 m 31.931 -41.13 c 5.885 13.312 12.788 17.998 18.672 24.644 m -35.606 -13.647 c 8.696 18.303 17.326 35.34 26.02 45.47 m -33.372 -85.08 c -1.935 1.238 -2.185 4.722 -6.881 2.278 m -31.838 -1.511 c -1.661 6.102 -1.639 10.1 0.786 11.09 m 75.12 -24.512 c 3.712 13.229 16.18 22.405 21.04 26.468 m -84.68 -127.67 c 0.24 4.421 -1.269 5.343 -3.048 5.728 m 7.648 -8.411 c -0.066 5 0.279 10.213 -5.731 12.245 m 11.865 -8.411 c -2.11 5.782 -4.301 11.323 -8.415 11.09 m -21.19 3.736 c 0.365 3.402 0.467 6.637 3.516 6.58 m 21.487 88.997 c 1.248 1.781 1.582 3.563 0.786 5.344 m -32.988 6.923 c 0.584 2.165 0.328 4.33 -1.131 6.495 m 26.816 -19.15 c 1.387 1.934 2.913 3.729 2.319 7.645 m -21.871 0.406 c -0.223 3.315 -0.589 6.63 1.169 9.945 m -6.536 18.424 c -2.266 0.715 -4.399 1.083 -7.648 0.361 m 22.982 -4.578 c -2.277 1.752 -4.391 4.485 -7.648 0.361 m 22.982 -1.127 c -1.016 4.337 -3.853 3.211 -6.881 1.511 m 22.22 -3.044 c -2.473 2.045 -4.19 5.854 -9.565 1.127 m 44.923 -46.32 c 0.408 3.419 -0.761 13.523 -2.711 14.367 m -18.918 24.419 c -2.145 2.921 -4.276 5.876 -8.415 3.811 m 41.97 -155.37 c -1.493 7.229 -25.864 27.817 -34.504 35.05 m 57 -16.884 c -5.155 6.36 -6.95 13.393 -18.704 18.433 m 24.668 31.445 c -12.839 8.363 -36.17 -3.797 -41.475 10.843 m 4.942 63.61 c 5.358 9 19.307 20.782 23.25 20.427 m -111.14 10.572 c 0.103 6.341 2.19 13.401 6.235 19.246 m 45.27 -19.789 c 1.89 12.668 2.572 25.377 7.319 30.903 m 14.805 -42.42 c 4.247 11.475 23.507 36.599 27.754 39.438 m -35.402 -30.356 c 9.142 16.532 24.1 39.507 31.34 47.43 m -10.23 -84.55 c 6.925 12.989 27.335 28.869 33.27 28.981 m -50.807 4.23 c 15.257 22.2 33.18 54.43 49.45 71.4 m -100.12 -63.58 c -5.868 6.462 2.151 37.23 4.387 42.19 m 34.658 -45.958 c 10.916 26.04 7.768 39.988 17.433 51.991 m 19.343 -108.66 c 13.765 12.902 28.835 22.602 43.498 26.573 m -11.125 -42.995 c -10.161 2.957 -23.629 -1.442 -35.981 -8.861 0.384 23.22 18.357 22.653 35.23 18.372 m -19.608 -88.24 c -5.989 10.709 -27.13 11.143 -34.858 24.04 m -15.427 -42.907 c -1.476 7.6 -10.602 11.546 -9.711 25.525 0.02 0.317 10.864 -1.48 9.908 5.27 2.902 0.216 5.991 5.241 6.901 12.09 14.854 -2.874 7.588 7.867 5.527 12.134 19.363 -9.609 2.902 10.226 5.067 13.988 18.968 -9.682 6.505 11.263 6.505 11.263 14.07 -4.428 9.02 10.979 4.051 26.298 21.505 -0.54 -0.633 13.146 6.673 24.14 -10.274 3.53 -7.06 6.917 -3.046 11.876 -6.398 3.589 -9.198 9.562 -9.868 16.73 -11.673 0.318 -10.224 12.12 -12.826 11.168 -8.801 -3.231 -12.412 3.453 -18.887 3.557 -6.576 0.106 -12.12 -5.527 -19.05 -1.818 -4.194 2.246 -14.444 2.742 -23.18 0.682 -4.939 -1.165 -12.306 -0.352 -16.715 -0.755 0.455 9.877 0.314 21.533 4.151 24.629 m 30.03 -67.45 c 0.818 2.43 1.26 5.612 1.355 9.488 m 7.59 -100.3 c -4.458 1.476 -5.742 10.415 -10.843 7.05 m 25.752 11.927 c 3.865 21.936 23.412 19.945 19.789 46.35 m -30.23 -57.2 c -0.451 12.759 -4.249 20.249 -10.03 30.903"/><path d="m 261.7 277.88 c 2.034 1.299 3.889 2.956 6.9 2.3 m -20.318 1.533 c 2.034 2.172 3.555 4.345 6.517 6.517 m 27.22 18.593 c 0.98 -5.226 -1.619 -11.259 -6.134 -21.276 3.706 2.315 7.412 5.212 11.12 4.6 m -222.33 22.887 c -0.176 1.946 -1.715 3.087 -4.279 3.335 m -16.742 15.434 c 0 0 -0.088 3.629 -1.027 3.877 m 2.169 24.315 c 0.176 1.946 2.528 5.255 5.093 5.503 m 257.76 -9.761 c -0.447 -2.391 -2.958 -4.933 -5.523 -4.685 m 81.19 10.03 c -5.69 2.217 -1.942 4.713 -4.279 4.961 m 6.235 -33.695 c 0.176 1.946 -0.183 5.526 2.382 5.774 m -19.2 -20.842 c -1.802 1.404 -4.597 -4.91 -4.597 -4.91 m -235.89 36.514 c -1.531 3.03 -3.07 5.255 -5.635 5.503 m 71.34 -165.82 c 0.275 2.427 0.009 4.623 -1.553 5.344 m 47.556 68.64 c -2.769 -1.317 -3.875 0.695 -4.62 3.428 m -6.498 -5.344 c -0.849 2.217 -2.367 3.764 -4.236 4.961 m -30.27 -6.495 c -2.806 1.404 -3.707 1.46 -3.853 4.961 m 8.07 3.856 c 2.394 2.56 5.01 4.02 8.415 1.511 m -26.05 8.84 c -1.395 3.111 -3.757 3.32 -6.153 3.428 m -12.632 -10.328 c -3.892 1.654 -5.298 3.307 -6.153 4.961 m 115.79 -1.127 c 2.422 0.929 4.843 3.909 7.265 1.127 m -11.482 -10.711 c 4.977 2.633 9.954 2.678 14.932 9.945 m -57.48 -26.429 c 1.022 3.41 -2.706 4.621 -5 6.495 m -3.814 -18.762 c 0.119 4.079 -1.771 5.766 -4.62 7.261 m -5.348 -14.545 c 1.531 4.11 -1.089 4.9 -4.62 4.961 m 22.254 -9.945 c 1.204 3.994 -1.886 5.125 -3.47 7.261 m 16.504 -25.663 c 0.123 3.061 -1.172 4.704 -3.086 5.728 m -30.649 8.456 c -0.424 1.7 -1.394 3.128 -3.853 3.811 m 32.988 -28.346 c 0.157 3.083 -1.327 5.072 -4.236 6.111 m -6.498 9.223 c -0.706 2.232 -2.55 3.326 -4.236 4.578 m -22.982 -46.36 c -0.119 2.367 0.707 4.243 2.281 5.728 m 7.686 -8.795 c 1.012 1.609 0.411 4.186 -0.786 5.344 m -14.932 -0.744 c -0.942 2.293 0.073 4.585 1.131 6.878 m 32.605 8.457 c 0.212 4.601 -2.619 4.638 -4.236 6.495 m -17.615 -45.597 c -1.72 5.115 -5.693 2.713 -7.303 -0.77 m 44.489 -20.315 c 0.343 2.288 -0.091 3.926 -0.786 5.344 m -3.048 6.923 c 0.787 1.909 0.851 3.819 -0.403 5.728 m 1.553 13.44 c 0.912 3.436 -0.782 5.487 -1.553 8.03 m -54.03 8.84 c 0.784 4.778 1.643 9.331 3.431 11.09 m -16.999 89.981 c -3.343 4.058 -6.687 6.551 -10.03 9.217 m -18.16 18.433 c 3.585 1.6 7.766 -6.291 17.335 -12.87 -4.386 5.733 -8.257 12.177 -7.404 15.68 m 7.418 -38.05 c -2.997 2.298 -5.851 4.237 -11.656 13.554 m 79.967 19.517 c 3.22 10.12 6.378 20.24 13.825 30.361 m -18.16 -54.757 c -1.927 13.11 -3.678 26.342 -1.355 42.29 m -0.271 9.759 c 4.154 15.204 8.772 26.688 14.367 30.361 m -7.861 2.169 c 6.291 13.533 12.162 26.924 37.14 32.529 m 42.559 -8.132 c -4.968 -3.261 -11.229 -0.057 -17.62 3.795 m -7.861 24.397 c 8.402 8.645 12.408 10.07 27.921 13.554 m -163.46 -8.674 c -7.978 7.359 -20.11 7.476 -34.969 4.337 m 103.82 -133.37 c -3.194 12.178 -5.336 24.396 -11.656 29.28 m 10.03 13.01 c -1.87 15.58 -5.119 20.13 -8.403 24.397 m -75.63 26.565 c 10.904 0.417 17.963 9.68 30.632 11.927 m 47.981 -34.16 c -3.525 11.505 -8.331 22.584 -24.668 29.818 m 30.09 37.951 c 1.17 -10.272 2.339 -17.313 3.509 -18.924 l 1.099 32.478 m -10.03 -42.83 c 5.468 -2.083 7.215 -15.33 9.995 -25.477 2.99 12.13 5.46 27.373 9.794 31.441 m 24.272 -237.16 c -1.612 5.085 -2.345 14.705 -6.676 15.259 m -1.332 -76.55 c 1.291 2.801 0.564 5.602 -0.271 8.403 m -3.253 -43.643 c 0.904 1.186 1.807 3.29 2.711 5.15 m -23.855 -15.451 c 0.863 7.936 1.167 6.234 8.772 6.845 0.028 -2.518 -4.01 -1.831 -8.229 -6.845 m 22.499 19.789 c 2.217 4.231 1.642 6.229 0.271 7.59 m -30.632 -40.933 l 16.69 1.05 l -8.246 -6.764 l -8.714 5.793 m -22.499 7.24 c 13.849 -2.518 39.24 0.156 54.985 1.323 m -24.918 -21.851 c 4.242 0.688 2.797 -4.142 0.715 -4.04 -2.082 0.106 -2.891 2.904 -0.99 4.069 m -28.979 26.46 c 8.19 13.718 34.12 12.538 38.581 28.849 2.698 9.855 -0.549 18.379 -10.66 16.421"/></g><path d="m 180.27 96.77 c 9.508 -3.293 18.272 -6.772 33.34 -8.674 -3.509 -2.874 -8.589 -7.677 -15.451 -7.861 -3.154 7.541 -18.08 9.363 -17.891 16.536 z" fill="#da121a"/></g></g></svg>