<?xml version="1.0" encoding="UTF-8" standalone="no"?>
<svg xmlns="http://www.w3.org/2000/svg" width="412" height="482">
 <g stroke="#000" stroke-linejoin="round" stroke-linecap="round">
  <path d="m405.96 6.04h-399.96v264.98c0 99.99 77.49 204.98 199.98 204.98 122.49 0 199.98-104.99 199.98-204.98v-264.98" fill="#fcdd09" stroke-width="6"/>
  <g fill-rule="evenodd">
   <path d="m45.786 205.44c20.41-15.334 15.74 5.766 24 12.554 20.912-11.07 35.07-31.787 49.11-62.03-19.225-21.539-26.594-43.08-37.663-64.62-5.552 15.719-9.659 35.29-26.585 20.678-18.862-12.537 13.775-19.03 11.447-26.585-3.746-12.157-30.375 14.68-30.28-12.923.09-25.409 24.415-1.226 29.17-9.6 4.58-8.07-27.12-16.626-4.8-31.02 16.643-10.731 18.991 23.925 24.739 22.893 10.09-1.812 1.142-35.467 24.37-24 20.396 9.846-.514 19.693-8.123 29.539 13.733 30.916 39.11 52.13 70.53 68.31 7.02-8.237 13.641-13.586 21.05-26.955 5.03-9.08 3.092-13.03-5.908-16.247-8.504-3.043-24.26-4.37-20.678-17.354 1.283-4.647 9.6-9.97 9.6-9.97 1.236 9.207 4.106 13.197 7.754 13.662 5.564.094 7.712-9.779 12.554-9.231 3.955.447-1.83 11.905 15.508 12.185-2.091-9.724.764-27.28-6.277-29.17-2.817 3.01-4.254 8.698-8.493 8.493-4.219-.205-3.487-9.682-8.493-9.97-4.469-.257-8.626 1.673-11.447 7.754-6.095-4.478-4.576-12.185-8.123-12.185-3.068-1.284-.331-18.827 7.754-17.724l18.09 2.954c4.72-15.681 28.94-6.292 46.16-5.908 14.744-8.537 27.701 11.08 13.662 22.524 5.416 6.725 10.831 11.08 16.247 23.262-2.086.188-6.364-.721-10.339-1.477 9.423 6.707 14.06 14.1 16.616 21.785-2.111 2.594-7.629-.489-12.554-2.585 8.705 8.417 18.495 15.314 22.524 30.28-4.953-1.156-7.466-1.266-18.831-5.169 10.691 6.988 23.682 19.32 31.386 32.493-13.932-8.76-23.763-8.892-35.817-11.08 18.468 56.23 53.35 78.15 75.33 119.63 3.886 6.855 33.555-8.374 21.416-46.525-10.545-33.14-27.11-62.715-44.31-85.66-17.304-23.09-46.29-50.722-19.2-87.14 12.525-16.837 31.28-17.13 57.23-1.846 7.586 4.467 16.923-7.973 16.616-14.77 15.312 10.121 7.421 21.377-4.8 30.28 7.877 4.373 18.708.269 26.585-4.062-5.552 28.912-28.661 29.972-46.16 18.462-1.611 6.154 5.506 13.05 10.708 19.2-17.937 6.083-31.13-1.884-34.709-19.939-1.849-9.331 2.843-17.28 13.662-19.939-26.28-6.06-34.09 9.195-33.601 18.462 1.221 23.05 11.735 27.614 18.831 39.14 6.076-10.303 14.09-9.183 23.262-4.062 9.982 5.575 17.319 4.166 22.524-3.323 1.826 8.597-1.601 21.634-12.554 19.57-11.336-2.136-22.926 1.023-19.939 7.754 3.341 7.53 5.416 8.956 8.123 11.08 2.068-11.138 17.373-19.461 30.647-8.493-16.177 4.451-18.18 16.07-15.14 29.17 5.608 24.12 12.554 37.828 18.831 56.49 6.408-5.33 12.93-9.41 20.308-4.062-12.824 8.658-15.482 20.367-19.2 31.755-3.232 9.898-3.644 19.528-13.662 29.17-7.495 7.214-15.384 6.03-25.847 7.385-9.936 15.409-11.478 31.608-.738 45.05 25.02-21.09 43.753 9.09 33.23 34.34l-4.8-6.646c-2.343 12.913-1.959 26.05-15.508 38.03 1.212-9.213 4.114-20.11.738-24.739-5.241 17.652-9.811 35.975-23.632 45.05 4.306-17.473 3.756-25.24 2.215-31.02-3.523 16.456-10.788 32.504-19.2 42.463-.34-8.972-4.603-19.695-14.03-12.185-4.03 3.213-7.885 12.237 2.389 16.859 7.559 3.401 5.888 18.376-6.081 20.804-11.147 2.261-14.243-2.592-12.766-8.94 2.287-9.83-.952-15.945-6.434-13.583-5.217 2.247-8.892 15.555-5.79 23.25 3.518 8.73-8.313 10.719-16.179 10.719-9.299.0001-11.888-9.182-6.504-12.267 6.853-3.927 9.03-14.538 2.258-15.795-12.01-2.228-18.576 40.815-38.03 13.662-13.181-18.395 28.819-19.17 25.847-25.478-3.188-6.762-25.383-9.653-10.339-25.11 14.686-15.09 20.378 1.535 28.06 12.185 23.07-9.841 38.31-24.23 31.02-51.694l-17.354 9.231c-13.387-25.01-10.736-46.01 7.385-63.14-17.391-5.77-34.842-7.181-41.724 14.03-5.476 16.877-2.81 34.24-26.585 49.48 2.492-10.954 5.895-21.908-1.477-32.863-2.54 15.12-4.523 30.358-16.616 43.571-.284-10.04.203-20.692-4.8-26.955-1.512 13.31-3.197 26.1-6.646 33.601-2.822-5.441-3.924-11.984-8.862-15.14-4.923 7.89-9.846 14.01-14.77 16.985 15.33 7.217 32.771 26.429 14.4 35.08-19.991 9.412-14.969-25.334-27.693-20.308-16.254 6.42 16.787 33.22-11.08 34.709-30.794 1.643-.022-27.796-13.293-34.34-8.821-4.35-14.883 40.485-34.34 14.4-15.534-20.825 24.306-22.532 22.15-29.17-2.927-9.03-25.781-10.39-11.08-26.955 7.733-8.711 17.18-5.01 20.21 4.097 2.48 7.45 10.567 14.405 15.235 11.781 13.766-7.739 17.08-35.496 22.893-54.648l-19.939-4.431c6.218-22.845 18.02-42.572 42.463-53.54 23.644-10.61 64.15 2.86 97.48 8.862 20.612 3.712 19.915-19.16 8.493-20.308-22.605-2.278-34.692-5.055-52.802-19.939-15.793-12.98-31.774-17.771-53.17-17.724l-.369 19.57c-12.902-8.598-28.3-10.49-42.09-7.754 9.776 5.129 21.456 9.443 24.739 17.354-20.278-.097-40.874-1.579-60.19 7.02 7.402 5.091 31.439 2.298 16.616 21.785-11.642 15.305-18.911-11.856-24.37-10.339-14.14 3.93 12.713 34.33-15.508 28.06-24.07-5.347 6.795-26.03-3.323-32.863-7.877-5.32-14.11 39.13-31.17 15.609-14.236-21.724 17.16-19.438 17.14-25.21-.03-6.564-26.35-12.431-8.493-25.847z" stroke-width="2"/>
   <g fill="#da121a">
    <path d="m25.662 271.16c-.827-6.283-.782-12.759 4.985-16.985 1.452-1.064 7.277 7.714 5.908 8.123-4.779 1.429-7.666 4.396-10.893 8.862z"/>
    <path d="m144 22.662c-.878-23.364-17.463-4.581-16.616 3.323 2.294 21.401 18.542 26.968 33.601 30.28 16.715 3.674 31.395 1.96 47.26 7.754l-1.846-7.754c-16.12-3.323-31.05-2.425-48.37-8.123-9.479-3.118-13.521-11.895-14.03-25.478"/>
   </g>
  </g>
 </g>
 <g fill-rule="evenodd">
  <path d="m205.67 34.478c4.77-7.613 11.199-11.312 14.03 6.277z" fill="#fcdd09"/>
  <g fill="#da121a" stroke="#000" stroke-linejoin="round" stroke-linecap="round">
   <path d="m30.455 195.91c6.159-1.49 12.604-2.133 17.419 3.151 1.212 1.33-6.897 8.06-7.449 6.738-1.929-4.6-5.186-7.156-9.969-9.889z"/>
   <path d="m71.38 292.29c-4.358-4.6-8.123-9.87-5.936-16.676.551-1.713 10.42 1.972 9.552 3.108-3.03 3.963-3.626 8.06-3.615 13.569z"/>
   <path d="m122.83 270.84c1.059-6.248 1.253-12.721-4.353-17.16-1.411-1.117-7.557 7.439-6.204 7.899 4.723 1.605 7.498 4.676 10.557 9.259z"/>
   <path d="m40.711 124.37c6.239 1.109 12.711 1.355 17.192-4.215 1.128-1.402-7.378-7.617-7.849-6.268-1.643 4.71-4.736 7.461-9.343 10.483z"/>
   <path d="m17.561 75.64c3.384-5.357 7.563-10.306 14.698-9.865 1.796.111.657 10.584-.657 10.02-4.587-1.959-8.704-1.527-14.04-.158z"/>
   <path d="m41.933 23.518c6.171-1.44 12.621-2.031 17.393 3.293 1.201 1.34-6.962 7.999-7.504 6.677-1.892-4.616-5.127-7.198-9.889-9.97z"/>
   <path d="m113.53 12.829c3.487 5.291 6.273 11.138 2.93 17.457-.842 1.591-9.914-3.763-8.861-4.729 3.676-3.372 4.978-7.301 5.931-12.728z"/>
   <path d="m72.79 340.22c5.566-3.03 11.627-5.313 17.642-1.449 1.514.973-4.585 9.562-5.459 8.432-3.051-3.947-6.856-5.576-12.183-6.982z"/>
   <path d="m73.06 418.29c-1.448-6.169-2.047-12.618 3.27-17.397 1.339-1.203 8.01 6.951 6.687 7.495-4.613 1.898-7.191 5.137-9.957 9.902z"/>
   <path d="m129.54 438.26c-5.237-3.568-10.04-7.916-9.348-15.03.173-1.791 10.601-.289 9.994 1-2.118 4.517-1.828 8.646-.646 14.03z"/>
   <path d="m166.74 424.34c4.74-4.205 8.949-9.128 7.36-16.1-.4-1.755-10.551 1.061-9.785 2.268 2.675 4.211 2.913 8.343 2.425 13.831z"/>
   <path d="m207.35 373.83c5.893-2.33 12.186-3.862 17.688.703 1.385 1.149-5.712 8.935-6.442 7.706-2.549-4.288-6.128-6.367-11.245-8.41z"/>
   <path d="m198.96 447.71c-1.054-6.248-1.243-12.722 4.367-17.15 1.412-1.116 7.551 7.445 6.198 7.904-4.724 1.601-7.502 4.67-10.565 9.25z"/>
   <path d="m255.61 464.84c-5.377-3.353-10.349-7.504-9.948-14.641.101-1.797 10.58-.718 10.03.6-1.933 4.599-1.477 8.713-.078 14.04z"/>
   <path d="m286.89 453.48c5.428-3.27 10.464-7.342 10.174-14.486-.073-1.798-10.568-.881-10.03.444 1.862 4.628 1.342 8.735-.139 14.04z"/>
  </g>
 </g>
 <path d="m38.488 138.36h335.02l20.304 52h-50.761l10.152-28.364h-50.761l10.152 28.364h-50.761l10.152-28.364h-50.761l10.152 28.364h-50.761l10.152-28.364h-50.761l10.152 28.364h-50.761l10.152-28.364h-50.761l10.152 28.364h-50.761z" fill="#da121a" stroke="#000" stroke-linejoin="round" stroke-linecap="round" stroke-width="3"/>
</svg>
