<?xml version="1.0" encoding="UTF-8" standalone="no"?>
<!DOCTYPE svg PUBLIC "-//W3C//DTD SVG 1.1//EN" "http://www.w3.org/Graphics/SVG/1.1/DTD/svg11.dtd">
<svg width="100%" height="100%" viewBox="0 0 978 1069" version="1.1" xmlns="http://www.w3.org/2000/svg" xmlns:xlink="http://www.w3.org/1999/xlink" xml:space="preserve" xmlns:serif="http://www.serif.com/" style="fill-rule:evenodd;clip-rule:evenodd;stroke-linecap:round;stroke-linejoin:round;">
    <g>
        <path d="M798.38,10.563C772.21,10.616 747.36,10.761 727.582,11.041C648.472,12.163 570.882,10.827 492.532,11.041C489.879,11.048 487.227,11.077 484.574,11.084C406.224,11.298 328.634,12.206 249.524,11.084C170.414,9.962 9.994,11.084 9.994,11.084C9.994,11.084 14.988,59.264 16.778,83.404C19.845,124.784 21.033,166.274 23.562,207.694C26.967,263.46 31.464,319.184 34.869,374.944C37.397,416.354 38.779,457.844 41.653,499.234C45.999,561.824 46.673,624.984 57.439,686.794C63.459,721.356 71.857,755.773 84.579,788.464C99.934,827.937 118.052,867.174 143.418,901.094C161.706,925.55 185.066,946.134 209.302,964.714C237.049,985.986 267.264,1004.53 299.232,1018.68C333.05,1033.65 369.149,1043.76 405.472,1050.77C432.806,1056.05 460.822,1058.03 488.662,1058.12C516.324,1058.21 544.212,1056.6 571.372,1051.38C607.832,1044.37 643.912,1033.75 677.832,1018.63C709.766,1004.4 740.062,985.938 767.812,964.666C792.052,946.086 815.407,925.496 833.696,901.046C859.061,867.127 877.18,827.886 892.535,788.416C905.253,755.721 913.655,721.256 919.675,686.696C930.437,624.882 931.115,561.726 935.461,499.136C938.335,457.746 939.717,416.266 942.245,374.846C945.65,319.08 950.147,263.406 953.552,207.636C956.081,166.226 957.269,124.727 960.336,83.346C962.126,59.206 967.12,11.026 967.12,11.026C967.12,11.026 876.88,10.39 798.39,10.548" style="fill:rgb(218,18,26);fill-rule:nonzero;"/>
        <g>
            <g>
                <g>
                    <path d="M753.73,889.863L751.257,763.283C751.257,763.283 745.016,755.096 740.539,753.156C735.977,751.179 730.619,752.907 725.698,752.312C719.595,751.574 712.905,752.039 707.558,748.936C702.476,745.986 698.406,740.886 696.015,735.434C695.108,733.365 694.972,730.94 695.191,728.683C695.705,723.372 700.138,713.493 700.138,713.493C700.138,713.493 702.525,725.199 706.734,728.683C710.883,732.117 717.107,732.756 722.399,732.059C726.056,731.577 728.764,728.089 732.293,726.996C734.414,726.339 736.716,725.707 738.889,726.152C741.062,726.597 742.873,728.187 744.66,729.528C748.582,732.469 750.802,741.337 755.378,739.655C761.121,737.543 756.722,727.227 757.851,721.09C759.369,712.843 760.336,704.306 763.622,696.617C767.197,688.254 772.809,680.891 778.463,673.832C783.391,667.679 789.88,662.983 794.952,656.954C800.081,650.858 804.69,644.294 808.972,637.545C814.899,628.193 821.947,619.117 825.052,608.435C828.15,597.763 827.113,575.105 827.113,575.105L825.876,514.345L840.304,518.564L839.067,609.704C839.067,609.704 836.307,624.349 832.883,630.804C827.206,641.502 817.715,649.567 809.793,658.652C801.773,667.86 791.383,675.152 785.059,685.652C780.452,693.304 778.732,702.43 775.989,710.969C773.843,717.65 771.189,724.261 770.218,731.222C769.79,734.285 767.468,739.219 770.218,740.505C775.18,742.824 777.474,731.485 782.585,729.535C789.022,727.077 796.326,729.535 803.197,729.535C807.594,729.535 812.109,730.569 816.389,729.535C820.576,728.523 824.572,726.377 827.932,723.628C830.983,721.132 832.795,717.367 835.352,714.345C838.281,710.884 844.422,704.218 844.422,704.218C844.422,704.218 845.86,716.772 844.422,722.783C842.654,730.177 839.485,737.769 834.116,743.036C828.968,748.086 821.728,750.861 814.741,752.319C807.196,753.893 798.935,748.906 791.651,751.475C785.197,753.753 780.506,759.741 775.986,764.977C771.645,770.007 765.268,781.855 765.268,781.855L765.268,813.075L767.741,904.215L753.73,889.863Z" style="fill:white;fill-rule:nonzero;stroke:black;stroke-width:5px;"/>
                    <path d="M836.8,305.553C836.8,305.553 829.254,311.498 825.61,314.643C819.543,319.875 812.103,324.024 807.855,330.888C805.914,334.025 805.422,337.908 804.781,341.566C803.781,347.292 803.27,353.168 803.618,358.975C804.075,366.618 805.196,374.369 807.856,381.524C810.63,388.986 815.56,395.429 819.822,402.114C824.061,408.763 833.339,421.511 833.339,421.511C833.339,421.511 835.033,418.221 836.801,414.383C838.571,418.224 840.291,421.511 840.291,421.511C840.291,421.511 849.541,408.763 853.78,402.114C858.041,395.429 862.972,388.984 865.746,381.524C868.406,374.368 869.554,366.618 870.012,358.975C870.359,353.168 869.854,347.292 868.849,341.566C868.207,337.91 867.688,334.024 865.747,330.888C861.5,324.025 854.06,319.878 847.992,314.643C844.348,311.5 836.802,305.553 836.802,305.553L836.8,305.553Z" style="fill:white;fill-rule:nonzero;stroke:black;stroke-width:5px;stroke-linecap:butt;"/>
                </g>
                <g>
                    <path id="_0" serif:id="0" d="M862.557,397.454L872.451,378.889C872.451,378.889 878.302,367.898 882.345,363.279C884.95,360.3 888.552,358.405 891.414,355.684C894.191,353.044 899.138,351.123 899.247,347.245C899.314,344.851 896.956,342.441 894.712,341.76C893.337,341.342 891.894,342.413 890.589,343.025C886.883,344.768 883.494,347.202 880.284,349.776C877.3,352.169 874.48,354.825 872.039,357.794C868.849,361.669 866.331,366.096 863.795,370.448C861.088,375.096 858.743,379.957 856.374,384.794C855.08,387.437 851.675,390.032 852.664,392.811C853.906,396.3 862.558,397.452 862.558,397.452L862.557,397.454Z" style="fill:white;fill-rule:nonzero;stroke:black;stroke-width:5px;stroke-linecap:butt;"/>
                    <g>
                        <path d="M904.401,344.392C904.401,348.878 901.033,352.515 896.878,352.515C892.723,352.515 889.355,348.878 889.355,344.392C889.355,339.905 892.723,336.269 896.878,336.269C901.033,336.269 904.401,339.905 904.401,344.392Z" style="fill:white;fill-rule:nonzero;stroke:black;stroke-width:5px;"/>
                        <g>
                            <path id="_01" serif:id="0" d="M811.067,397.454L801.174,378.889C801.174,378.889 795.322,367.898 791.28,363.279C788.675,360.3 785.072,358.405 782.211,355.684C779.433,353.044 774.487,351.123 774.378,347.245C774.311,344.851 776.669,342.441 778.912,341.76C780.288,341.342 781.731,342.413 783.035,343.025C786.741,344.768 790.131,347.202 793.341,349.776C796.325,352.169 799.145,354.825 801.585,357.794C804.776,361.669 807.294,366.096 809.83,370.448C812.537,375.096 814.881,379.957 817.25,384.794C818.544,387.437 821.949,390.032 820.96,392.811C819.718,396.3 811.066,397.452 811.066,397.452L811.067,397.454Z" style="fill:white;fill-rule:nonzero;stroke:black;stroke-width:5px;stroke-linecap:butt;"/>
                            <path id="_2" serif:id="2" d="M769.223,344.392C769.223,348.878 772.591,352.515 776.746,352.515C780.901,352.515 784.27,348.878 784.27,344.392C784.27,339.905 780.901,336.269 776.746,336.269C772.591,336.269 769.223,339.905 769.223,344.392Z" style="fill:white;fill-rule:nonzero;stroke:black;stroke-width:5px;"/>
                        </g>
                    </g>
                </g>
                <path d="M836.82,358.563C836.82,358.563 830.77,361.781 828.093,363.923C825.385,366.087 823.053,368.726 820.786,371.372C818.046,374.575 815.681,378.09 813.213,381.516C810.525,385.248 805.344,392.871 805.344,392.871C805.344,392.871 800.937,385.653 798.628,382.122C795.99,378.082 794.145,373.291 790.492,370.192C787.947,368.033 784.697,366.585 781.442,366.013C775.771,365.018 769.352,364.763 764.254,367.497C759.791,369.891 756.649,374.698 754.639,379.427C753.153,382.922 753.031,386.973 753.16,390.782C753.43,398.792 755.222,406.782 757.834,414.34C760.429,421.846 766.031,428.032 768.632,435.54C770.256,440.227 771.543,445.192 771.531,450.165C771.516,456.972 767.448,470.15 767.448,470.15C767.448,470.15 778.558,467.44 782.033,463.276C787.405,456.834 787.459,447.176 788.719,438.81C789.637,432.713 785.602,425.172 789.311,420.309C791.143,417.907 795.239,416.501 797.92,417.826C801.464,419.577 801.173,425.158 802.446,428.969C807.376,443.721 811.273,458.864 814.427,474.119C816.274,483.049 820.113,492.219 818.447,501.189C817.945,503.895 815.916,506.063 814.394,508.335C812.986,510.437 810.374,511.842 809.72,514.3C808.812,517.692 809.919,521.471 811.17,524.747C811.859,526.552 813.011,528.209 814.395,529.531C817.446,532.447 821.286,534.491 825.163,536.072C828.864,537.58 832.836,538.767 836.819,538.767C840.802,538.767 844.773,537.578 848.475,536.072C852.362,534.491 856.221,532.458 859.273,529.531C860.65,528.21 861.782,526.546 862.468,524.747C863.717,521.469 864.851,517.697 863.947,514.3C863.292,511.841 860.684,510.435 859.273,508.335C857.745,506.062 855.696,503.899 855.19,501.189C853.518,492.222 857.396,483.049 859.243,474.119C862.397,458.866 866.293,443.723 871.224,428.969C872.497,425.158 872.207,419.577 875.75,417.826C878.431,416.501 882.498,417.907 884.329,420.309C888.037,425.172 884.003,432.713 884.921,438.81C886.181,447.181 886.264,456.83 891.637,463.276C895.109,467.439 906.192,470.15 906.192,470.15C906.192,470.15 902.125,456.972 902.109,450.165C902.098,445.191 903.413,440.227 905.038,435.54C907.639,428.036 913.211,421.85 915.806,414.34C918.419,406.783 920.21,398.794 920.48,390.782C920.608,386.972 920.516,382.922 919.03,379.427C917.02,374.698 913.878,369.891 909.415,367.497C904.319,364.763 897.868,365.018 892.197,366.013C888.939,366.585 885.718,368.033 883.177,370.192C879.524,373.291 877.65,378.086 875.012,382.122C872.704,385.653 868.296,392.871 868.296,392.871C868.296,392.871 863.115,385.247 860.427,381.516C857.959,378.09 855.593,374.575 852.854,371.372C850.591,368.726 848.284,366.087 845.576,363.923C842.897,361.782 836.819,358.563 836.819,358.563L836.82,358.563Z" style="fill:white;fill-rule:nonzero;stroke:black;stroke-width:5px;stroke-linecap:butt;"/>
                <g>
                    <path id="_1" serif:id="1" d="M798.622,382.116C798.622,382.116 794.349,386.454 792.567,388.918C790.512,391.761 788.742,394.841 787.282,398.045C786.442,399.886 785.301,403.792 785.301,403.792" style="fill:white;fill-rule:nonzero;stroke:black;stroke-width:5px;stroke-linejoin:miter;"/>
                    <path id="_3" serif:id="3" d="M875.009,382.116C875.009,382.116 879.282,386.454 881.064,388.918C883.118,391.761 884.889,394.841 886.349,398.045C887.189,399.886 888.33,403.792 888.33,403.792" style="fill:white;fill-rule:nonzero;stroke:black;stroke-width:5px;stroke-linejoin:miter;"/>
                </g>
                <path d="M714.99,186.113C714.99,186.113 707.444,192.058 703.8,195.203C697.733,200.435 690.293,204.584 686.045,211.448C684.104,214.585 683.612,218.468 682.971,222.126C681.971,227.852 681.46,233.728 681.808,239.535C682.265,247.178 683.386,254.929 686.046,262.084C688.82,269.546 693.75,275.989 698.012,282.674C702.251,289.323 711.529,302.071 711.529,302.071C711.529,302.071 713.223,298.781 714.991,294.943C716.761,298.784 718.481,302.071 718.481,302.071C718.481,302.071 727.731,289.323 731.97,282.674C736.231,275.989 741.162,269.544 743.936,262.084C746.596,254.928 747.744,247.178 748.202,239.535C748.549,233.728 748.044,227.852 747.039,222.126C746.397,218.47 745.878,214.584 743.937,211.448C739.69,204.585 732.25,200.438 726.182,195.203C722.538,192.06 714.992,186.113 714.992,186.113L714.99,186.113Z" style="fill:white;fill-rule:nonzero;stroke:black;stroke-width:5px;stroke-linecap:butt;"/>
                <g>
                    <path id="_02" serif:id="0" d="M740.747,278.014L750.641,259.449C750.641,259.449 756.492,248.458 760.535,243.839C763.14,240.86 766.742,238.965 769.604,236.244C772.381,233.604 777.328,231.683 777.437,227.805C777.504,225.411 775.146,223.001 772.902,222.32C771.527,221.902 770.084,222.973 768.779,223.585C765.073,225.328 761.684,227.762 758.474,230.336C755.49,232.729 752.67,235.385 750.229,238.354C747.039,242.229 744.521,246.656 741.985,251.008C739.278,255.656 736.933,260.517 734.564,265.354C733.27,267.997 729.865,270.592 730.854,273.371C732.096,276.86 740.748,278.012 740.748,278.012L740.747,278.014Z" style="fill:white;fill-rule:nonzero;stroke:black;stroke-width:5px;stroke-linecap:butt;"/>
                    <path id="_21" serif:id="2" d="M782.591,224.952C782.591,229.438 779.223,233.075 775.068,233.075C770.913,233.075 767.545,229.438 767.545,224.952C767.545,220.465 770.913,216.829 775.068,216.829C779.223,216.829 782.591,220.465 782.591,224.952Z" style="fill:white;fill-rule:nonzero;stroke:black;stroke-width:5px;"/>
                    <g>
                        <path id="_03" serif:id="0" d="M689.257,278.014L679.364,259.449C679.364,259.449 673.512,248.458 669.47,243.839C666.865,240.86 663.262,238.965 660.401,236.244C657.623,233.604 652.677,231.683 652.568,227.805C652.501,225.411 654.859,223.001 657.102,222.32C658.478,221.902 659.921,222.973 661.225,223.585C664.931,225.328 668.321,227.762 671.531,230.336C674.515,232.729 677.335,235.385 679.775,238.354C682.966,242.229 685.484,246.656 688.02,251.008C690.727,255.656 693.071,260.517 695.44,265.354C696.734,267.997 700.139,270.592 699.15,273.371C697.908,276.86 689.256,278.012 689.256,278.012L689.257,278.014Z" style="fill:white;fill-rule:nonzero;stroke:black;stroke-width:5px;stroke-linecap:butt;"/>
                        <path id="_22" serif:id="2" d="M647.413,224.952C647.413,229.438 650.781,233.075 654.936,233.075C659.091,233.075 662.46,229.438 662.46,224.952C662.46,220.465 659.091,216.829 654.936,216.829C650.781,216.829 647.413,220.465 647.413,224.952Z" style="fill:white;fill-rule:nonzero;stroke:black;stroke-width:5px;"/>
                    </g>
                </g>
                <g>
                    <g>
                        <path d="M727,406.583L714.131,407.461L712.149,475.349C712.149,475.349 701.647,488.616 695.405,494.214C681.676,506.524 665.705,515.907 650.408,526.099C632.073,538.316 611.601,547.289 594.408,561.129C587.849,566.41 581.981,572.636 576.687,579.239C570.613,586.812 564.577,594.703 560.741,603.675C557.211,611.923 556.244,621.097 554.528,629.925C552.857,638.53 550.564,655.935 550.564,655.935L550.327,740.965C548.09,740.814 546.796,736.532 544.677,735C543.602,734.223 542.522,733.29 541.216,733.032C539.909,732.774 538.527,733.135 537.252,733.516C535.13,734.15 533.505,736.174 531.306,736.453C528.123,736.858 524.364,736.477 521.869,734.485C519.337,732.465 517.905,725.704 517.905,725.704C517.905,725.704 515.256,731.405 514.947,734.485C514.816,735.794 514.875,737.221 515.42,738.421C516.858,741.586 519.316,744.522 522.372,746.233C525.587,748.033 529.618,747.773 533.288,748.201C536.247,748.546 539.391,747.67 542.193,748.685C545.328,749.821 550.273,754.68 550.273,754.68L550.125,811L565.185,826.382L564.712,754.252C566.536,752.29 569.655,748.806 572.966,747.711C577.37,746.255 582.301,749.114 586.841,748.195C591.024,747.349 595.379,745.781 598.497,742.805C601.675,739.771 603.617,735.369 604.68,731.056C605.536,727.582 604.68,720.307 604.68,720.307C604.68,720.307 600.998,724.174 599.237,726.181C597.699,727.934 596.59,730.129 594.77,731.571C592.743,733.176 590.345,734.408 587.847,734.993C585.261,735.599 582.542,734.993 579.889,734.993C575.757,734.993 571.365,733.567 567.493,734.993C566.34,735.417 565.444,736.588 564.594,737.839L564.505,723.214C564.505,697.034 566.515,666.984 566.515,666.984C566.515,666.984 566.39,649.409 567.817,640.794C569.049,633.355 571.725,626.25 574.03,619.083C576.976,609.922 578.814,600.131 583.763,591.923C590.557,580.654 600.146,571.117 610.329,562.945C633.703,544.187 664.359,536.612 687.989,518.191C702.423,506.939 726.329,478.645 726.329,478.645L727,406.583Z" style="fill:white;fill-rule:nonzero;stroke:black;stroke-width:5px;"/>
                        <path d="M599.64,295.723L582.156,301.416L583.665,424.086C583.665,424.086 584.152,427.03 584.996,431.116C583.944,430.4 582.896,429.665 581.831,428.966C579.473,427.421 577.094,425.603 574.228,425.09C571.362,424.577 568.298,425.301 565.501,426.059C560.846,427.32 557.279,431.347 552.451,431.903C545.469,432.707 537.275,431.957 531.802,427.997C526.249,423.977 523.104,410.495 523.104,410.495C523.104,410.495 517.244,421.873 516.566,427.997C516.278,430.599 516.465,433.393 517.661,435.779C520.815,442.071 526.162,447.971 532.867,451.373C539.917,454.951 548.749,454.393 556.8,455.249C563.291,455.936 569.86,455.975 576.384,456.218C581.629,456.413 588.269,459.202 593.927,460.094C595.001,462.871 596.786,465.083 599.578,466.18C605.687,474.441 612.821,481.903 619.133,489.95C628.854,502.342 641.41,512.15 649.072,526.29C654.653,536.588 656.755,548.894 660.082,560.39C662.681,569.381 665.887,578.273 667.064,587.64C667.582,591.763 666.841,595.957 667.064,600.115C667.485,607.957 668.426,615.762 669.46,623.552C667.227,622.133 664.874,620.852 662.774,619.464C660.416,617.906 658.008,616.045 655.141,615.528C652.275,615.011 649.241,615.733 646.443,616.497C641.788,617.769 638.221,621.841 633.393,622.402C626.411,623.213 618.187,622.459 612.714,618.466C607.161,614.415 604.016,600.813 604.016,600.813C604.016,600.813 598.185,612.291 597.508,618.466C597.22,621.09 597.377,623.903 598.573,626.309C601.727,632.653 607.104,638.594 613.809,642.024C620.859,645.632 629.705,645.072 637.742,645.93C644.242,646.624 651.144,644.805 657.326,646.929C663.417,649.022 673.153,658.009 673.153,658.009L673.064,697.797L670.044,820.467L687.025,801.148L690.045,630.788C690.045,630.788 697.608,619.768 703.032,617.162C708.559,614.501 715.029,616.813 720.989,616.011C728.382,615.017 736.494,615.645 742.97,611.469C749.127,607.498 754.07,600.645 756.963,593.299C758.061,590.514 758.204,587.249 757.939,584.219C757.317,577.071 751.963,563.78 751.963,563.78C751.963,563.78 749.075,579.53 743.975,584.219C738.945,588.841 731.394,589.7 724.982,588.761C720.552,588.112 717.276,583.42 713.001,581.948C710.432,581.064 707.645,580.229 705.013,580.828C702.381,581.427 700.197,583.566 698.031,585.37C693.28,589.328 690.587,601.261 685.044,598.996C678.087,596.154 683.424,582.275 682.056,574.015C680.217,562.915 679.026,551.417 675.046,541.07C670.716,529.815 663.936,519.9 657.089,510.396C651.119,502.115 643.235,495.8 637.09,487.686C630.876,479.481 625.291,470.636 620.109,461.556C618.734,459.146 617.309,456.75 615.879,454.349C621.577,452.81 628.049,454.468 634.039,453.834C642.089,452.982 650.921,453.506 657.972,449.928C664.677,446.526 670.052,440.656 673.208,434.364C674.404,431.978 674.591,429.184 674.303,426.582C673.625,420.458 667.765,409.08 667.765,409.08C667.765,409.08 664.62,422.564 659.067,426.582C653.593,430.542 645.399,431.262 638.418,430.458C633.594,429.902 629.997,425.905 625.338,424.644C622.54,423.886 619.507,423.162 616.64,423.675C613.774,424.188 611.395,426.005 609.037,427.551C607.297,428.691 605.358,429.776 603.475,430.912C602.365,428.139 601.401,425.304 600.635,422.373C596.882,408.01 598.15,377.528 598.15,377.528L599.64,295.723Z" style="fill:white;fill-rule:nonzero;stroke:black;stroke-width:5px;"/>
                    </g>
                    <path d="M715,239.123C715,239.123 708.95,242.341 706.273,244.483C703.565,246.647 701.233,249.286 698.966,251.932C696.226,255.135 693.861,258.65 691.393,262.076C688.705,265.808 683.524,273.431 683.524,273.431C683.524,273.431 679.117,266.213 676.808,262.682C674.17,258.642 672.325,253.851 668.672,250.752C666.127,248.593 662.877,247.145 659.622,246.573C653.951,245.578 647.532,245.323 642.434,248.057C637.971,250.451 634.829,255.258 632.819,259.987C631.333,263.482 631.211,267.533 631.34,271.342C631.61,279.352 633.402,287.342 636.014,294.9C638.609,302.406 644.211,308.592 646.812,316.1C648.436,320.787 649.723,325.752 649.711,330.725C649.696,337.532 645.628,350.71 645.628,350.71C645.628,350.71 656.738,348 660.213,343.836C665.585,337.394 665.639,327.736 666.899,319.37C667.817,313.273 663.782,305.732 667.491,300.869C669.323,298.467 673.419,297.061 676.1,298.386C679.644,300.137 679.353,305.718 680.626,309.529C685.556,324.281 689.453,339.424 692.607,354.679C694.454,363.609 698.293,372.779 696.627,381.749C696.125,384.455 694.096,386.623 692.574,388.895C691.166,390.997 688.554,392.402 687.9,394.86C686.992,398.252 688.099,402.031 689.35,405.307C690.039,407.112 691.191,408.769 692.575,410.091C695.626,413.007 699.466,415.051 703.343,416.632C707.044,418.14 711.016,419.327 714.999,419.327C718.982,419.327 722.953,418.138 726.655,416.632C730.542,415.051 734.401,413.018 737.453,410.091C738.83,408.77 739.962,407.106 740.648,405.307C741.897,402.029 743.031,398.257 742.127,394.86C741.472,392.401 738.864,390.995 737.453,388.895C735.925,386.622 733.876,384.459 733.37,381.749C731.698,372.782 735.576,363.609 737.423,354.679C740.577,339.426 744.473,324.283 749.404,309.529C750.677,305.718 750.387,300.137 753.93,298.386C756.611,297.061 760.678,298.467 762.509,300.869C766.217,305.732 762.183,313.273 763.101,319.37C764.361,327.741 764.444,337.39 769.817,343.836C773.289,347.999 784.372,350.71 784.372,350.71C784.372,350.71 780.305,337.532 780.289,330.725C780.278,325.751 781.593,320.787 783.218,316.1C785.819,308.596 791.391,302.41 793.986,294.9C796.599,287.343 798.39,279.354 798.66,271.342C798.788,267.532 798.696,263.482 797.21,259.987C795.2,255.258 792.058,250.451 787.595,248.057C782.499,245.323 776.048,245.578 770.377,246.573C767.119,247.145 763.898,248.593 761.357,250.752C757.704,253.851 755.83,258.646 753.192,262.682C750.884,266.213 746.476,273.431 746.476,273.431C746.476,273.431 741.295,265.807 738.607,262.076C736.139,258.65 733.773,255.135 731.034,251.932C728.771,249.286 726.464,246.647 723.756,244.483C721.077,242.342 714.999,239.123 714.999,239.123L715,239.123Z" style="fill:white;fill-rule:nonzero;stroke:black;stroke-width:5px;stroke-linecap:butt;"/>
                </g>
                <g>
                    <path id="_11" serif:id="1" d="M676.802,262.676C676.802,262.676 672.529,267.014 670.747,269.478C668.692,272.321 666.922,275.401 665.462,278.605C664.622,280.446 663.481,284.352 663.481,284.352" style="fill:white;fill-rule:nonzero;stroke:black;stroke-width:5px;stroke-linejoin:miter;"/>
                    <path id="_31" serif:id="3" d="M753.189,262.676C753.189,262.676 757.462,267.014 759.244,269.478C761.298,272.321 763.069,275.401 764.529,278.605C765.369,280.446 766.51,284.352 766.51,284.352" style="fill:white;fill-rule:nonzero;stroke:black;stroke-width:5px;stroke-linejoin:miter;"/>
                </g>
                <path d="M588.1,75.573C588.1,75.573 580.554,81.518 576.91,84.663C570.843,89.895 563.403,94.044 559.155,100.908C557.214,104.045 556.722,107.928 556.08,111.586C555.08,117.312 554.569,123.188 554.917,128.995C555.374,136.638 556.495,144.389 559.155,151.544C561.929,159.006 566.859,165.449 571.121,172.134C575.36,178.783 584.638,191.531 584.638,191.531C584.638,191.531 586.332,188.241 588.1,184.403C589.87,188.244 591.59,191.531 591.59,191.531C591.59,191.531 600.84,178.783 605.079,172.134C609.34,165.449 614.271,159.004 617.045,151.544C619.705,144.388 620.853,136.638 621.311,128.995C621.658,123.188 621.153,117.312 620.148,111.586C619.506,107.93 618.987,104.044 617.046,100.908C612.799,94.045 605.359,89.898 599.291,84.663C595.647,81.52 588.101,75.573 588.101,75.573L588.1,75.573Z" style="fill:white;fill-rule:nonzero;stroke:black;stroke-width:5px;stroke-linecap:butt;"/>
                <g>
                    <path id="_04" serif:id="0" d="M613.857,167.474L623.751,148.909C623.751,148.909 629.602,137.918 633.645,133.299C636.25,130.32 639.852,128.425 642.714,125.704C645.491,123.064 650.438,121.143 650.547,117.265C650.614,114.871 648.256,112.461 646.012,111.78C644.637,111.362 643.194,112.433 641.889,113.045C638.183,114.788 634.794,117.222 631.584,119.796C628.6,122.189 625.78,124.845 623.339,127.814C620.149,131.689 617.631,136.116 615.095,140.468C612.388,145.116 610.043,149.977 607.674,154.814C606.38,157.457 602.975,160.052 603.964,162.831C605.206,166.32 613.858,167.472 613.858,167.472L613.857,167.474Z" style="fill:white;fill-rule:nonzero;stroke:black;stroke-width:5px;stroke-linecap:butt;"/>
                    <path id="_23" serif:id="2" d="M655.701,114.412C655.701,118.898 652.333,122.535 648.178,122.535C644.023,122.535 640.655,118.898 640.655,114.412C640.655,109.925 644.023,106.289 648.178,106.289C652.333,106.289 655.701,109.925 655.701,114.412Z" style="fill:white;fill-rule:nonzero;stroke:black;stroke-width:5px;"/>
                    <g>
                        <path id="_05" serif:id="0" d="M562.367,167.474L552.474,148.909C552.474,148.909 546.622,137.918 542.58,133.299C539.975,130.32 536.372,128.425 533.511,125.704C530.733,123.064 525.787,121.143 525.678,117.265C525.611,114.871 527.969,112.461 530.212,111.78C531.588,111.362 533.031,112.433 534.335,113.045C538.041,114.788 541.431,117.222 544.641,119.796C547.625,122.189 550.445,124.845 552.885,127.814C556.076,131.689 558.594,136.116 561.13,140.468C563.837,145.116 566.181,149.977 568.55,154.814C569.844,157.457 573.249,160.052 572.26,162.831C571.018,166.32 562.366,167.472 562.366,167.472L562.367,167.474Z" style="fill:white;fill-rule:nonzero;stroke:black;stroke-width:5px;stroke-linecap:butt;"/>
                        <path id="_24" serif:id="2" d="M520.523,114.412C520.523,118.898 523.891,122.535 528.046,122.535C532.201,122.535 535.57,118.898 535.57,114.412C535.57,109.925 532.201,106.289 528.046,106.289C523.891,106.289 520.523,109.925 520.523,114.412Z" style="fill:white;fill-rule:nonzero;stroke:black;stroke-width:5px;"/>
                    </g>
                </g>
                <path d="M588.12,128.573C588.12,128.573 582.07,131.791 579.393,133.933C576.685,136.097 574.353,138.736 572.086,141.382C569.346,144.585 566.981,148.1 564.513,151.526C561.825,155.258 556.644,162.881 556.644,162.881C556.644,162.881 552.237,155.663 549.928,152.132C547.29,148.092 545.445,143.301 541.792,140.202C539.247,138.043 535.997,136.595 532.742,136.023C527.071,135.028 520.652,134.773 515.554,137.507C511.091,139.901 507.949,144.708 505.939,149.437C504.453,152.932 504.331,156.983 504.46,160.792C504.73,168.802 506.522,176.792 509.134,184.35C511.729,191.856 517.331,198.042 519.932,205.55C521.556,210.237 522.843,215.202 522.831,220.175C522.816,226.982 518.748,240.16 518.748,240.16C518.748,240.16 529.858,237.45 533.333,233.286C538.705,226.844 538.759,217.186 540.019,208.82C540.937,202.723 536.902,195.182 540.611,190.319C542.443,187.917 546.539,186.511 549.22,187.836C552.764,189.587 552.473,195.168 553.746,198.979C558.676,213.731 562.573,228.874 565.727,244.129C567.574,253.059 571.413,262.229 569.747,271.199C569.245,273.905 567.216,276.073 565.694,278.345C564.286,280.447 561.674,281.852 561.02,284.31C560.112,287.702 561.219,291.481 562.47,294.757C563.159,296.562 564.311,298.219 565.695,299.541C568.745,302.457 572.586,304.501 576.463,306.082C580.164,307.59 584.136,308.777 588.119,308.777C592.102,308.777 596.073,307.588 599.775,306.082C603.662,304.501 607.521,302.468 610.573,299.541C611.95,298.22 613.082,296.556 613.768,294.757C615.017,291.479 616.151,287.707 615.247,284.31C614.592,281.851 611.984,280.445 610.573,278.345C609.045,276.072 606.996,273.909 606.49,271.199C604.818,262.232 608.696,253.059 610.543,244.129C613.697,228.876 617.593,213.733 622.524,198.979C623.797,195.168 623.507,189.587 627.05,187.836C629.731,186.511 633.798,187.917 635.629,190.319C639.337,195.182 635.303,202.723 636.221,208.82C637.481,217.191 637.564,226.84 642.937,233.286C646.409,237.449 657.492,240.16 657.492,240.16C657.492,240.16 653.425,226.982 653.409,220.175C653.398,215.201 654.713,210.237 656.338,205.55C658.939,198.046 664.511,191.86 667.106,184.35C669.719,176.793 671.51,168.804 671.78,160.792C671.908,156.982 671.816,152.932 670.33,149.437C668.32,144.708 665.178,139.901 660.715,137.507C655.619,134.773 649.168,135.028 643.497,136.023C640.24,136.595 637.018,138.043 634.477,140.202C630.825,143.301 628.95,148.096 626.312,152.132C624.004,155.663 619.596,162.881 619.596,162.881C619.596,162.881 614.415,155.257 611.727,151.526C609.259,148.1 606.893,144.585 604.154,141.382C601.891,138.736 599.584,136.097 596.876,133.933C594.197,131.792 588.119,128.573 588.119,128.573L588.12,128.573Z" style="fill:white;fill-rule:nonzero;stroke:black;stroke-width:5px;stroke-linecap:butt;"/>
                <g>
                    <path id="_12" serif:id="1" d="M549.922,152.136C549.922,152.136 545.649,156.474 543.867,158.938C541.812,161.781 540.042,164.861 538.582,168.065C537.742,169.906 536.601,173.812 536.601,173.812" style="fill:white;fill-rule:nonzero;stroke:black;stroke-width:5px;stroke-linejoin:miter;"/>
                    <path id="_32" serif:id="3" d="M626.309,152.136C626.309,152.136 630.582,156.474 632.364,158.938C634.418,161.781 636.189,164.861 637.649,168.065C638.489,169.906 639.63,173.812 639.63,173.812" style="fill:white;fill-rule:nonzero;stroke:black;stroke-width:5px;stroke-linejoin:miter;"/>
                </g>
            </g>
            <path d="M663.89,780.793C661.05,780.708 658.109,780.841 655.421,781.762C646.426,784.843 637.121,789.261 631.046,796.575C623.709,805.407 621.722,817.675 618.858,828.795C616.808,836.754 620.669,846.925 615.358,853.201C611.028,858.315 602.036,862.591 596.198,859.295C584.244,852.542 592.361,831.711 586.635,819.235C583.944,813.37 580.889,806.759 575.291,803.547C567.448,799.048 557.211,799.422 548.291,800.922C540.73,802.194 534.043,806.714 527.385,810.516C516.335,816.824 504.632,822.913 496.041,832.297C454.951,877.179 400.671,930.137 405.481,990.797C407.476,1015.96 424.521,1039.85 445.851,1056.33C460.093,1057.55 474.4,1058.09 488.664,1058.14C516.326,1058.23 544.214,1056.61 571.384,1051.39C607.844,1044.38 643.914,1033.75 677.824,1018.64C709.774,1004.4 739.234,984.826 767.824,964.671C777.533,957.827 790.421,952.851 795.355,942.046C798.493,935.174 795.502,926.906 794.761,919.39C793.923,910.881 793.654,902.023 790.417,894.109C788.68,889.862 786.431,885.281 782.573,882.796C774.384,877.523 763.533,876.822 753.823,877.577C746.773,878.125 740.431,882.117 733.793,884.546C726.206,887.321 719.113,894.696 711.168,893.234C707.33,892.528 704.232,888.893 702.449,885.421C699.902,880.462 698.857,874.078 700.634,868.794C702.664,862.764 710.068,860.107 713.764,854.921C719.303,847.143 726.346,839.037 726.988,829.509C727.689,819.095 723.173,807.977 716.389,800.046C709.719,792.249 699.072,788.659 689.389,785.265C681.245,782.41 672.515,781.053 663.889,780.796L663.89,780.793Z" style="fill:rgb(7,137,48);fill-rule:nonzero;stroke:black;stroke-width:5px;stroke-linecap:butt;"/>
        </g>
        <path d="M138.98,10.603C72.67,10.658 10.01,11.072 10.01,11.072C10.01,11.072 15.002,59.272 16.791,83.412C19.858,124.792 21.044,166.282 23.572,207.692C26.977,263.458 31.48,319.172 34.885,374.942C37.413,416.352 38.793,457.832 41.666,499.222C46.012,561.812 46.686,624.972 57.447,686.782C63.467,721.344 71.854,755.774 84.567,788.472C99.922,827.945 118.045,867.182 143.411,901.092C161.699,925.548 185.051,946.142 209.286,964.712C237.033,985.984 267.253,1004.53 299.226,1018.68C333.044,1033.65 369.153,1043.76 405.476,1050.77C432.766,1056.04 460.746,1058.02 488.536,1058.12L488.536,11.055C487.215,11.064 485.888,11.051 484.567,11.055C406.217,11.269 328.607,12.177 249.507,11.055C219.842,10.634 178.767,10.553 138.977,10.586" style="fill:white;fill-rule:nonzero;"/>
        <g>
            <path d="M798.38,10.563C772.21,10.616 747.36,10.761 727.582,11.041C648.472,12.163 570.882,10.827 492.532,11.041C489.879,11.048 487.227,11.077 484.574,11.084C406.224,11.298 328.634,12.206 249.524,11.084C170.414,9.962 9.994,11.084 9.994,11.084C9.994,11.084 14.989,59.264 16.778,83.404C19.845,124.784 21.034,166.274 23.562,207.694C26.967,263.46 31.464,319.184 34.869,374.944C37.398,416.354 38.779,457.844 41.653,499.234C45.999,561.824 46.673,624.984 57.439,686.794C63.459,721.356 71.857,755.773 84.579,788.464C99.934,827.937 118.052,867.174 143.418,901.094C161.706,925.55 185.066,946.134 209.302,964.714C237.049,985.986 267.264,1004.53 299.232,1018.68C333.05,1033.65 369.149,1043.76 405.472,1050.77C432.806,1056.05 460.822,1058.03 488.662,1058.12C516.324,1058.21 544.212,1056.6 571.372,1051.38C607.832,1044.37 643.912,1033.75 677.832,1018.63C709.766,1004.4 740.062,985.938 767.812,964.666C792.052,946.086 815.407,925.496 833.696,901.046C859.061,867.127 877.18,827.886 892.535,788.416C905.253,755.721 913.655,721.256 919.675,686.696C930.437,624.882 931.115,561.726 935.461,499.136C938.335,457.746 939.717,416.266 942.245,374.846C945.65,319.08 950.147,263.406 953.552,207.636C956.081,166.226 957.269,124.727 960.336,83.346C962.126,59.206 967.12,11.026 967.12,11.026C967.12,11.026 876.88,10.39 798.39,10.548L798.38,10.563Z" style="fill:none;fill-rule:nonzero;stroke:black;stroke-width:20px;stroke-linecap:butt;stroke-linejoin:miter;"/>
            <path d="M488.55,2.503L488.55,1064.87" style="fill:none;fill-rule:nonzero;stroke:black;stroke-width:5px;stroke-linecap:butt;stroke-linejoin:miter;"/>
        </g>
        <g>
            <path d="M203.99,69.983L233.667,103.253L233.667,390.813L101.187,390.813L67.927,361.129L67.927,403.892L90.554,424.113L67.927,444.303L67.927,486.252L101.187,456.568L233.667,456.568L233.667,899.148L203.99,932.418L245.929,932.418L266.119,909.786L286.339,932.418L329.092,932.418L299.415,899.148L299.415,456.568L431.865,456.568L465.125,486.252L465.125,443.489L442.498,423.268L465.125,403.078L465.125,361.129L431.865,390.813L299.415,390.813L299.415,103.253L329.092,69.983L286.762,69.983L266.542,92.645L246.322,69.983L203.99,69.983Z" style="fill-rule:nonzero;stroke:rgb(18,0,0);stroke-width:5px;"/>
            <g>
                <path d="M213.958,371.093L308.028,465.183" style="fill:none;fill-rule:nonzero;stroke:white;stroke-width:5px;stroke-linejoin:miter;"/>
                <path d="M304.33,385.883L205.34,484.903" style="fill:none;fill-rule:nonzero;stroke:white;stroke-width:5px;stroke-linejoin:miter;"/>
                <path d="M77.004,424.103L469.584,423.259" style="fill:none;fill-rule:nonzero;stroke:white;stroke-width:5px;stroke-linejoin:miter;"/>
                <path d="M266.54,66.773L267.384,924.923" style="fill:none;fill-rule:nonzero;stroke:white;stroke-width:5px;stroke-linejoin:miter;"/>
            </g>
        </g>
    </g>
</svg>
