<!-- Created with Inkscape (http://www.inkscape.org/) -->
<svg xmlns:rdf="http://www.w3.org/1999/02/22-rdf-syntax-ns#" xmlns="http://www.w3.org/2000/svg" height="497" width="427" version="1.1" xmlns:cc="http://creativecommons.org/ns#" xmlns:xlink="http://www.w3.org/1999/xlink" xmlns:dc="http://purl.org/dc/elements/1.1/">
 <defs></defs>
 <metadata>
  <rdf:RDF>
   <cc:Work rdf:about="">
    <dc:format>image/svg+xml</dc:format>
    <dc:type rdf:resource="http://purl.org/dc/dcmitype/StillImage"/>
    <dc:title/>
   </cc:Work>
  </rdf:RDF>
 </metadata>
 <g transform="translate(0,25)">
  <path stroke-linejoin="miter" d="m6-18.14,415,0,0,295c0,97.018-97.859,188.06-210.57,189.13s-203.33-83.32-204.43-189.13z" stroke="#000" stroke-linecap="butt" stroke-miterlimit="4" stroke-dasharray="none" stroke-width="6" fill="#000"/>
  <rect transform="translate(0,-25)" height="136.13" width="409.53" y="164.39" x="8.7105" fill="#FFF"/>
  <rect id="rect6516" width="68.07" height="68.07" y="139.02" x="8.4662" fill="#da121a"/>
  <use xlink:href="#rect6516" transform="matrix(1.02,0,0,1.02,67.513016,64.468976)" height="497" width="427" y="0" x="0"/>
  <use xlink:href="#rect6516" transform="translate(204.80849,68.500438)" height="497" width="427" y="0" x="0"/>
  <use xlink:href="#rect6516" transform="translate(136.76894,0.18282059)" height="497" width="427" y="0" x="0"/>
  <use xlink:href="#rect6516" transform="translate(341.65451,68.602938)" height="497" width="427" y="0" x="0"/>
  <use xlink:href="#rect6516" transform="translate(273.03513,-0.0189317)" height="497" width="427" y="0" x="0"/>
  <path d="m250.38,38.044c4.9335,5.0341,11.546,8.2325,17.479,10.269-9.7096,14.932,9.2438,17.342,9.4183,3.2022,3.6939,3.3246,8.5569,6.8982,13.751,7.723-3.1727,3.1542-5.1127,8.1491-5.2742,12.809-12.614-1.9703-12.92,11.301-8.6786,14.474,4.2411,3.1729,12.695,0.20179,16.609-11.46,5.0173,8.7535,12.757,11.978,17.825,6.7506,5.0688-5.2273-0.39531-17.741-11.064-9.9528-0.83466-4.5744-2.3869-8.7899-6.2161-11.867l7.3462-10.925c8.1407,14.814,22.622,2.5263,10.548-8.6648,3.6194-4.2558,6.8633-10.389,9.9834-17.141,3.1471,6.9465,6.4108,13.543,10.548,17.518-12.657,12.439,3.3204,21.135,10.172,9.0415,1.5163,4.3664,2.7322,8.9833,7.1579,10.925l-6.7812,8.6648c-14.392-2.7875-14.103,6.837-8.3905,11.836,5.7129,4.9994,12.817-1.6464,16.13-8.0691,3.2198,7.5686,8.2875,13.769,14.812,9.7644,6.5242-4.0042,2.0131-16.576-7.4821-11.648l-3.41-10.548c3.8314-2.7909,6.9646-7.3273,9.795-12.62,1.028,16.134,17.305,11.489,12.62-3.7673,7.3684-2.1389,9.7859-6.4782,12.809-10.548-1.3954,9.4067,0.14884,16.854,1.6953,24.299-12.615,4.0184-11.144,14.573-1.5069,18.837-9.8008,14.235-16.509,27.324-12.62,49.352-36.504,14.237-72.616,14.151-109.44,0.18836,2.6183-20.023-0.78779-36.36-14.127-49.917,8.7329-3.6342,9.1254-14.628-1.3186-16.765,0.87972-7.253-0.85763-14.506-2.4099-21.759z" transform="translate(0,-25)" fill="#fcdd09"/>
  <path stroke-linejoin="miter" d="m328.32,66.679a5.651,5.5568,0,1,1,-11.302,0,5.651,5.5568,0,1,1,11.302,0z" transform="matrix(0.99873764,0,0,1.0156653,0.03062581,-26.892223)" stroke-dashoffset="0" stroke="#000" stroke-linecap="round" stroke-miterlimit="4" stroke-dasharray="none" stroke-width="2.97865523" fill="none"/>
  <path stroke-linejoin="miter" d="m328.32,66.679a5.651,5.5568,0,1,1,-11.302,0,5.651,5.5568,0,1,1,11.302,0z" transform="matrix(0.99873764,0,0,1.0156653,-42.351662,19.822481)" stroke-dashoffset="0" stroke="#000" stroke-linecap="round" stroke-miterlimit="4" stroke-dasharray="none" stroke-width="2.97865523" fill="none"/>
  <path stroke-linejoin="miter" d="m328.32,66.679a5.651,5.5568,0,1,1,-11.302,0,5.651,5.5568,0,1,1,11.302,0z" transform="matrix(0.99873764,0,0,1.0156653,0.59569314,14.359878)" stroke-dashoffset="0" stroke="#000" stroke-linecap="round" stroke-miterlimit="4" stroke-dasharray="none" stroke-width="2.97865523" fill="none"/>
  <path stroke-linejoin="miter" d="m328.32,66.679a5.651,5.5568,0,1,1,-11.302,0,5.651,5.5568,0,1,1,11.302,0z" transform="matrix(0.99873764,0,0,1.0156653,42.977951,19.822481)" stroke-dashoffset="0" stroke="#000" stroke-linecap="round" stroke-miterlimit="4" stroke-dasharray="none" stroke-width="2.97865523" fill="none"/>
  <path d="m34.778,13.045c4.9335,5.0341,11.546,8.2325,17.479,10.269-9.7096,14.932,9.2438,17.342,9.4183,3.2022,3.6939,3.3246,8.5569,6.8982,13.751,7.723-3.1727,3.1542-5.1127,8.1491-5.2742,12.809-12.614-1.9703-12.92,11.301-8.6786,14.474,4.2411,3.1729,12.695,0.20179,16.609-11.46,5.0173,8.7535,12.757,11.978,17.825,6.7506,5.0688-5.2273-0.39531-17.741-11.064-9.9528-0.83466-4.5744-2.3869-8.7899-6.2161-11.867l7.3462-10.925c8.1407,14.814,22.622,2.5263,10.548-8.6648,3.6194-4.2558,6.8633-10.389,9.9834-17.141,3.1471,6.9465,6.4108,13.543,10.548,17.518-12.657,12.439,3.3204,21.135,10.172,9.0415,1.5163,4.3664,2.7322,8.9833,7.1579,10.925l-6.7812,8.6648c-14.392-2.7875-14.103,6.837-8.3905,11.836,5.7129,4.9994,12.817-1.6464,16.13-8.0691,3.2198,7.5686,8.2875,13.769,14.812,9.7644,6.5242-4.0042,2.0131-16.576-7.4821-11.648l-3.39-10.549c3.8314-2.7909,6.9646-7.3273,9.795-12.62,1.028,16.134,17.305,11.489,12.62-3.7673,7.3684-2.1389,9.7859-6.4782,12.809-10.548-1.3954,9.4067,0.14884,16.854,1.6953,24.299-12.615,4.0184-11.144,14.573-1.5069,18.837-9.8008,14.235-16.509,27.324-12.62,49.352-36.504,14.237-72.616,14.151-109.44,0.18836,2.6183-20.023-0.78779-36.36-14.127-49.917,8.7329-3.6342,9.1254-14.628-1.3186-16.765,0.87972-7.253-0.85763-14.506-2.4099-21.759z" fill="#fcdd09"/>
  <path stroke-linejoin="miter" d="m328.32,66.679a5.651,5.5568,0,1,1,-11.302,0,5.651,5.5568,0,1,1,11.302,0z" transform="matrix(0.99873764,0,0,1.0156653,-215.56783,-26.891843)" stroke-dashoffset="0" stroke="#000" stroke-linecap="round" stroke-miterlimit="4" stroke-dasharray="none" stroke-width="2.97865523" fill="none"/>
  <path stroke-linejoin="miter" d="m328.32,66.679a5.651,5.5568,0,1,1,-11.302,0,5.651,5.5568,0,1,1,11.302,0z" transform="matrix(0.99873764,0,0,1.0156653,-257.95012,19.822861)" stroke-dashoffset="0" stroke="#000" stroke-linecap="round" stroke-miterlimit="4" stroke-dasharray="none" stroke-width="2.97865523" fill="none"/>
  <path stroke-linejoin="miter" d="m328.32,66.679a5.651,5.5568,0,1,1,-11.302,0,5.651,5.5568,0,1,1,11.302,0z" transform="matrix(0.99873764,0,0,1.0156653,-215.00277,14.360258)" stroke-dashoffset="0" stroke="#000" stroke-linecap="round" stroke-miterlimit="4" stroke-dasharray="none" stroke-width="2.97865523" fill="none"/>
  <path stroke-linejoin="miter" d="m328.32,66.679a5.651,5.5568,0,1,1,-11.302,0,5.651,5.5568,0,1,1,11.302,0z" transform="matrix(0.99873764,0,0,1.0156653,-172.62051,19.822861)" stroke-dashoffset="0" stroke="#000" stroke-linecap="round" stroke-miterlimit="4" stroke-dasharray="none" stroke-width="2.97865523" fill="none"/>
  <path stroke-linejoin="miter" d="m349.98,136.78,0,140m-68.565-139.62,0,140m-67.812-140.38,0,140m-137.13-140,0,140m68.52-139.78,0,140m-140-70,415,0m-367.93-105.6c30.399-11.223,76.091-11.985,110.76,0.19m-110.57-20.637c30.399-11.221,75.713-11.984,110.38,0.189m105.03,20.256c30.399-11.222,76.093-11.984,110.76,0.18837m-110.57-20.634c30.399-11.222,75.716-11.984,110.38,0.18837" stroke="#000" stroke-linecap="butt" stroke-miterlimit="4" stroke-dasharray="none" stroke-width="3" fill="none"/>
 </g>
</svg>
