<!-- Created with Inkscape (http://www.inkscape.org/) and a simple text editor-->
<svg xmlns:rdf="http://www.w3.org/1999/02/22-rdf-syntax-ns#" xmlns="http://www.w3.org/2000/svg" height="800" width="660" version="1.1"
xmlns:cc="http://creativecommons.org/ns#" xmlns:xlink="http://www.w3.org/1999/xlink" xmlns:dc="http://purl.org/dc/elements/1.1/">
<desc>Coat of Arms of the Town Kusel -- Graphic created by Detmar Owen</desc>
<path id="COA_Border" d="M6,6h648v464a324,324 0 0 1,-648,0z" stroke="#000" stroke-width="12" fill="#5b1"/>
<path id="Crosier" fill="#000" d="m301,88.5c2,1.2 4,2.7 6,4.3-1-0.4-4-0.4-5,1.6 1-2.3 0-3.5-1-6zm-96,18.5c2-3 4-5 6-7.2-2,3.2-1,5.2 2,7.2-3-1-5-1-8,0zm66-79.9c-8,0-21,4.4-16,19-7,1.3-14,3.3-20,6-4-10.4-6-16-15-15.9-7,0-12,4.6-15,9.7-9-0.1-17,1.9-22,9.9-5,7.7,6,16.4,15,14-6,4.6-13.4,6.04-16,11.18-5.6,2.62-1.5-5.02-6-5.02-4.6,0-6,1.5-8.3,4.81-2.3,3.26-2.7,4.54-6.7,12.54-5.8,4.93-7.5,2.22-14,8.69-4.5,4.5-5.6,9.2-5.8,13.1-0.8,1-0.5,2.5,0.2,3,0.4,3.3,2.1,6.2,4.1,8.2,3,3,7.5,3.7,13.5,2.7,3.4,7.6,3,15-5,15s-11,13-5,20c3,4,10,5,5,10-3,3-5,14,9,14,5,0,6-1,7-3,2,4,3,8,4,11,0,4,1,5,2,7-9,3-6,13-2,19,4,7,14,4,18,4,1,7,6,15,14,13,6-2,10-5,8-11,7,2,12,3,18,5-3,6,11,9,18,7,3-1,5-4,7-6,7,5,19,0,17-9-1-3-2-5,2-6,5-1,4-7,10-5,8,3,17-2,17-13,0-8-5-14-10-13,1-10,0-22-1-29,4-5,12-1,16-1,10,0,16-7,19-18,1,12,0,43,0,43v32c-12,2-21,11-21,23 0,13 12,22 21,22v534a324,324 0 0 0 46-2.9v-531.1c12-1,20-11,20-22,0-13-10-20-20-23v-18c6,2 13-3 13-9 0-19-9-15-9-19 0-2 6-5 11-6 2-6 3-15-1-18s-10-3-15-3c-1-6-2-13-3-19,6,3,9-3,6-13s-7-20.8-14-28.8c4-3.8,11-8,10-15.2-2-8.4-12-10-20-6.3-6,2.9-12,6.3-14,12.7-7-6.6-16-11.2-24-15.6,4-6.7-2-11.9-9-14.8-5-2.1-10-2.2-17-1.2-2-11-10-13.7-16-13.7zm3,51.4c6,1,11,2.4,17,4.9-5,0.8-9,3.1-13,8.7,1-6.2,0-11-4-13.6zm-25,0.5c-4,1.9-6,4.4-6,7-1-2-3-2.9-5-3.2,4-1.7,7-3,11-3.8zm24,25c-2,9,2,10,1,13-1,4-3,4-7,3-9-3-4-10,0-10,3-1,5-3,6-6zm51,18c2,6,3,12,3,18-1-5-4-10-6-11,2-1,3-4,3-7zm-130,7c3,6,8,8,13,9-3,1-6,4-11,6-2,3-4,11-1,13-1,1-2,2-2,3-2-10-1-20,1-31zm37,3c7,0,9,3,9,7-1,5-7,6-11,4-2-3-4-4-8-6,4-2,7-5,10-5zm23,31c4,0 8,3 9,8 4,12 4,26-8,31-17,8-40,3-51-13-1-1-2-3-3-5 2,2 3,1 5,3 3,1 6,11 15,4-1,11 16,10 25,8 4-4 16-13 8-21-4-5-10-15 0-15z"/>
<path id="CrosierGold" fill="#fd0" d="m267.2,54.7c3.5,2.9 8.4-0.6 11.7-2.1 5-2.1 7.6,4.4 3.6,6.1-5.1,2.2-9.5,4.1-14.8,4.1-4.7,0-9.9-5.4-9.3-10.6-6.4,0.4-12.3,2.7-16.8,4.9-6,4.5-9.3,3.8-12.2-0.2-2.6-3.8-3.2-14-9.3-14-9.4,0-7.8,9.4-11.9,9.4-10.2,0-15,1.16-18.6,5.6-3.3,4,4.9,6.7,7.5,5.4,3.9-1.9,5.2-3.39,9-2.4,3.3,0.9-0.8,5.7,4,8.2,1.4,0.7,4.6-3,7.4-5.9,3.3-3.4,6.8,2,4.3,4.6-5.2,5.6-14,14.7-18.9,7.49-5.6,4-15.8,5.98-17.9,11.3-5.2-2.21-4.8,2.21-9.1,2.94-3.2,0.54,1.2-5.86-1.3-6.94-3.7,0.44-4.2,11.13-9.9,13.85-1.9,0.93,3.2,1.55-0.2,3.03-5.1,2.23-6.2,1.73-11.6,4.83-2.8,1.6-6,5.6-6.1,11.1,0.8,4.4,5.7,9,12.1,6.2,3.2-1.4,5.6-3.1,8.1-10.3,2.8-7.5,2.4,3,4.2,1.6,1.3-4,2.1-12.1,5.2-15.56,3.7-4.29,5.5-0.67,2.5,8.36-1.7,4.8-1.7,6.7-1.7,12.6,0,3.2-1.5,5.8-3.5,5.8-6.3,0-1.4-8.2-3.5-6.7-1.5,3.2-2.8,5.6-5.5,7.9,2.6,8.8,2.3,13.1,0.7,18.1-1.2,3.8-2.4,5.9-6.4,6-5.7,0.2-7.5,7.8-2.7,12.1,2.9,2.5,6.1,3.4,6.6,6.2,2.3-4,3.5-2.6,6.8-2.6,3.8,0,1.7-4.6,0.5-7-2.1-4.2,3.4-6.1,5.6-2.7,3.6,5.7,4,12.8-3.3,15.2l7.8,22.5s-1.1,4.9,1.6,6.3c4.4,2.2,4.1,7.4-3.4,9-3.4,2.6,0.6,10.8,3.7,10.8,4.6,0,9.8-1.9,14.6-0.2,2.8,1.7,2.8,4,2.8,6.3,0,2.6,2.6,8.2,6.7,5.6,4-2.5-2-7.6-4.2-9.8-2.6-2.5-0.6-7.9,5.7-5.7-1.3-2.1-7.3-7.7-10.8-9.4-4.2-2.1-1.2-6.7,2.6-5.4,6.7,2.3,20,15.6,16,20.4,6.1,1.1,12.8,4.7,18.2,4.4,3.4-0.2,7.4,2.8,5.2,7.4,6.2,3.1,11.4-0.1,14.3-5.2,1.1-1.9,4-1.5,5.3-0.2,3.1,3.1,10.5,1.8,8.1-2.8-0.9-0.4-2.9,2.4-6.6,0.2-4.1-2.4-3.4-3.6-8.3-4-3.9-0.4-3.4-6.1,0.9-5.8,4.2,0.2,6.8,1.8,9.4,3.8,6.5-0.7,3.4-4,10-6.2,3-1.1,4.6-2.2,6.4-4.9,3.2-4.7,4.5-2.5,8.4-1.3,5.7,1.7,8.5-0.1,8.5-4.7,0-7.2-3.5-6.8-6.2-5.8-0.6-4.4-3.5-6.2-5.6-6.5-4.8-0.7-0.8-12.2,2.9-7.7,0.9-9.1,0.7-22.6-3.2-24.7-11.6-6.3,7.8-16.6,7-5.1,11.4-8.6,21.5,8.1,30-10.9-4.1-12.2-5.2-7.9-17.6-7.5-5.4,0.2-4.5-9,0.9-9.3,5-0.3,8.5,2.4,12.2-0.8,3.7-3.1,2-10.7,0.6-14-12-15.21-13.2-7.4-18.4-1.2-2.8,3.4-9.9,0-5.8-5.6,8.7-11.91-3-17.71-11.6-2.91-3.8,6.71,1.8,14.11,0.4,18.51-2.3,7.4-5.7,11.5-17.7,7.3-15.1-5.2-9.5-19.6-1.8-21.6,5.9-1.6,10.9-11.71,9.8-17.51-1.4-6.8-15.9-4.4-19.8-1.5-7.2,5.4-1,13.3-10.2,13.3-5.4,0-3.1-6.2-5.7-8.5-4.7-4.2-11.5,1-16.4,6.4-5,9.91,2.7,5.71,6.4,10.41,2.6,3.3,1.1,8.3-3,8.3-5.5,0-8-2.5-15-1.6-4.9,0.6-7.8,8.2-6.5,12.6,2.2,3.1,4.6,6.2,14,6.2,3.4,0,9.9-7.3,16.4-7.3,10.9,0,14.6,6.7,16.1,14.3-3,9-8.9,14.4-24.2,10.2-1.5-3.3-5.8-7.4-8.7-7.4-2.8,0-9.5,5.7-13,6.6-2.3,4.7,2.4,6.6,5.6,6.6,5.8,0,5,8.4,0,8.4-3,0-6.3-2.7-6.7,2.3-0.9,12.3,7.5,11.7,8.8,15.3,2.7-0.3,4.7,5.3,7.9,3.9,2.7-1.2,3.2-8.6,7.5-8.6,6.5,0,2,10.8,3.5,14.4,1.7,4.1,10.6,1.7,15.5,1.5,1.9-1.8,7.8-6.1,4.3-9.9-2.8-3-5.2-5.5-6.6-13.2-1.2-6.7,2.2-12.7,14-12.7,13.1,0,16.7,17.5,16.7,26,0,23.1-15.6,29.9-34.8,30-16.6,0-30-7.4-38.9-19.2s-13.6-28-13.6-46.1c0-25.3 11.3-44.5 26.5-57.13 15.2-12.69 34.4-18.97 50.8-18.97 22.3,0.1 40.5,7.5 52.7,20.3 12.4,12.8 18.8,30.7 18.8,51.4v71.6c6.7-0.6,13.8-0.8,20.7-0.7v-28.2c0-3.7,6.1-3.7,6.2,0l0.8,28.5 4.4,0.4v-10.8c-4.2-10.2 0.3-17.7 6.8-13.9 9.1,5.7,7.5-7.5,5.3-10.2-3.5-2.4-8.5-5.1-8.5-9.4,0-7.8,6.9-10.1,13.5-12.2,0.8-3.2,0.7-6.9-2.1-8.1-2.6-1.2-11.2-3.9-14,1.3-0.6,1.1-0.8,4.3-0.2,10.1,0.2,2.3-2.6,3.7-4.8,2.8-14.5-5.5-9.1,7.5-0.8,10.6,3.9,1.4,0.1,7-2.8,5.5-16.8-8.7-14.9-26.2,1.9-23.2-0.8-7.4-0.1-10.4,4.5-13-1.2-8.5-2.7-16-4.4-23.8-9.3-7.1-7.1-14.5-1.2-11.6,3.7,1.8,5.9,4.5,9.4,6.5-1.1-10.9-7.4-22.4-15.2-31.1-3.5-3.9,1.1-7.5,5.6-10.1,10.7-6,3.5-11.6-4-8.3-4.3,1.9-11.1,5.1-11.1,10.4,0,4.5,4.4,8,6.5,11,2.5,3.8-0.7,7.8-3.6,6.6-4.9-2-13.6-0.3-6.2,4.9,2.2,1.6,5.6,2.9,9.2,3.9,4.1,1.3,1.6,6.5-1.5,5.9-4.2-0.9-7.9-3-11.4-4.9-10.2-5.8-8.5-16.2,4.9-16.4-7.1-8.3-15.4-15-24.9-20.2-9.6,1.9-16.6-1.2-12.6-8.1,4.9-8.4-2.2-11.4-10.5-11.4-9.8,0-13.7,4.8-13.2-4.5,0.2-4.6-2.8-9.5-9.5-9.5-6.8,0-12.7,2.2-8.7,12.2,8.1,0.2,7.3,6.1,5,9.2zm-18.3,3.86c3.9-1.5,5.6,4.5,2.3,5.6l-6.9,2.4c-4.6,1.6-4.6-4.6-1.7-5.7zm67.4,12.1c5,3.2,9.7,6.3,14,11.4,3.4,4-1.2,7-4.4,3.6-4.3-4.6-8.3-7.4-12.8-10.5-3.5-2.3,0.7-6.1,3.2-4.5zm-70.7,44.64c2.3,4.8,5.4,7,8.3,8.9,5.5,3.7,7.6,6.8,16.5,10.6,2.1-5.1,8.7-6.8,17.3-6.8,4.7,0,4.8,6,0,6-5.7,0-11.7-0.2-14.6,8.6-6.3-0.7-4.1,11.2-15.7,8.7-4.8-1-2.8-6,1.1-6,5.9,0,3.5-3.5,6.7-6.3-6-3.9-9.7-6.2-15.3-10.4-3.4-2.5-7-4.8-8.8-8.4-3.8-7.4,2.6-9,4.5-4.9zm102-2.5c3.8,13.4,6,28.7,6,38.2,0,3.9-5.6,3.1-5.6,0,0-9-1.7-24.8-5.2-37.2-0.8-2.7,4-3.7,4.8-1zm-184.7,56.6c0.8,2.9-8.6,11.9,0,11.9,4.7,0,1.3-9.5,0-11.9zm167.4,51.8c-8.4,1-17.8,6.7-17.8,16.3,0,8.7,7.3,16.4,17,15.5,15.3-1.4,27.5-2.4,40.1,0.1,8.6,1.7,15.9-7.4,16-15.4,0.1-9-9.5-15.8-16.8-16.6-12.9-1.5-25.6-1.4-38.5,0.1zm52.3,13.1c1.1,9.1-3.7,16.3-11.8,15.4-8.6-0.9-17.5-2.3-26.2-1.2-3.1,0.3-4.2-5.2-0.6-5.6 10.2-1.1 19.3,0.4 28,1.2 4.7,0.4 6.4-5.4 6-9-0.3-3.5 4.2-3.9 4.6-0.8zm-48.7,24 0,529.7a318,318 0 0 0 20.5-0.9v-529.7c-6.8-0.2-14,0-20.5,0.9zm27.5-0.2 0,528.3a318,318 0 0 0 4.3-0.4v-527.3c-1.3-0.2-2.8-0.4-4.3-0.6z"/>
<path id="Stream" fill="#000" d="m654,97.2c-39.5,28.3-50.6,60.5-98.6,93-49.7,33.6-61.2,14.8-104.3,43.8s-53.2,62.4-102.9,96-61.2,14.8-104.3,43.8-53.2,62.4-102.9,96-61.2,14.8-104.3,43.8c-9.3,6.3-18,13.4-24.4,19.7a324,324,0,0,0,65,139.4c13-14.6,24-26.7,41-38.2,39.8-26.9,51.3-8,104.3-43.8s63.1-69.1,102.9-96,51.3-8,104.3-43.8,63.1-69.1,102.9-96,51.3-8,104.3-43.8c6.2-4.2,11.8-8.4,17-12.5z"/>
<path id="StreamWhite" fill="#fff" d="m648,112c-30,25-43,55-88,85-51,35-63,16-104,44-42,28-52,61-103,96-52,34-63,16-105,43-41,28-51,62-103,96-50.9,35-62.4,16-103.8,44-8.3,6-14.2,11-21.9,18a318,318 0 0 0 57.1,124c10.4-12,21.9-23,37.6-34,41-28,53-9,104-44,52-34,62-68,103-96s53-9,104-44c52-34,62-68,103-96,42-28,53-9,105-43,5-4,10-8,15-12z"/>
<path id="Ripple" fill="#000" d="m193,483c-4,4-8,7-12,9-3,2 0,5 2,4 4-3 10-6 14-10 3-3 6-6 8-9 2-2-2-5-3-3-3,3-6,7-9,9zm14-33c-18,21-36,35-54,46-2,1 0,5 3,4 13-8 23-14 32-22 8-8 16-16 22-25 2-3-2-5-3-3zm-90,54c22-8 45-20 62-36 12-10 21-23 27-34 1-3-3-4-4-2-6,11-17,23-30,35-16,13-36,25-56,33-3,1-1,5 1,4zm24,81c6-2 11-4 17-5 5-1 10-2 15-3 3,0 2-4 0-4-6-1-11,1-17,2-6,2-11,4-17,6-2,2 0,5 2,4zm-28,18c-3,1-1,5,1,3,11-4,23-10,34-13,12-4,23-6,34-7,3,0,2-4,0-4-13-1-26,3-36,6-12,4-23,9-33,15zm-14.5,21c-2.4,2,0.6,5,2.5,4,14-10,28-17,44-23,12-4,24-7,37-9,4,1,2-4,0-4-14,1-28,5-40,10-17,6-31,13-43.5,22z"/>
<use id="Ripple2" xlink:href="#Ripple" transform="translate(207.2,-139.8)"/>
<use id="Ripple3" xlink:href="#Ripple" transform="translate(414.4,-279.6)"/>
</svg>