<?xml version="1.0" encoding="UTF-8" standalone="no"?>
<svg
   id="Layer_1"
   viewBox="0 0 788.87545 930.46537"
   version="1.1"
   sodipodi:docname="DEU Lüneburg COA.svg"
   inkscape:version="1.3.2 (091e20e, 2023-11-25, custom)"
   width="847.82892"
   height="1000"
   xmlns:inkscape="http://www.inkscape.org/namespaces/inkscape"
   xmlns:sodipodi="http://sodipodi.sourceforge.net/DTD/sodipodi-0.dtd"
   xmlns="http://www.w3.org/2000/svg"
   xmlns:svg="http://www.w3.org/2000/svg"
   xmlns:rdf="http://www.w3.org/1999/02/22-rdf-syntax-ns#"
   xmlns:cc="http://creativecommons.org/ns#">
  <sodipodi:namedview
     id="namedview65"
     pagecolor="#ffffff"
     bordercolor="#000000"
     borderopacity="0.25"
     inkscape:showpageshadow="false"
     inkscape:pageopacity="0.0"
     inkscape:pagecheckerboard="false"
     inkscape:deskcolor="#d1d1d1"
     inkscape:zoom="0.4385255"
     inkscape:cx="114.01846"
     inkscape:cy="619.12021"
     inkscape:window-width="1920"
     inkscape:window-height="974"
     inkscape:window-x="-11"
     inkscape:window-y="-11"
     inkscape:window-maximized="1"
     inkscape:current-layer="Layer_1"
     showguides="false"
     showborder="false"
     borderlayer="false"
     shape-rendering="auto"
     inkscape:clip-to-page="true"
     labelstyle="default" />
  <defs
     id="defs1">
    <style
       id="style1">.cls-1{fill:#f4cb2f;}.cls-1,.cls-2,.cls-3,.cls-4{stroke-width:0px;}.cls-2{fill:#0064a2;}.cls-3{fill:#fff;}.cls-4{fill:#da003a;}</style>
  </defs>
  <g
     id="g227"
     style="stroke:#000000;stroke-opacity:1"
     transform="scale(1.6578152)">
    <path
       class="cls-4"
       d="M 146.86176,543.22691 C 117.84172,531.27748 91.87259,514.02525 69.66263,491.94242 47.45267,469.85959 30.10965,444.0539 18.10574,415.1973 6.10183,386.35885 0,355.90415 0,324.68671 V 0 h 475.85245 v 324.70488 c 0,31.21743 -6.10183,61.67214 -18.10574,90.51057 -12.02207,28.83845 -29.36509,54.66229 -51.5569,76.74513 -22.20994,22.08284 -48.17908,39.33505 -77.19912,51.28448 -29.02004,11.94943 -59.65635,18.01495 -91.05538,18.01495 -31.39903,0 -62.0535,-6.06552 -91.05538,-18.01495 z"
       id="path1"
       style="stroke:#000000;stroke-opacity:1" />
    <path
       class="cls-3"
       d="m 338.8517,190.97296 h 74.07557 v 127.66641 c 0,40.2249 -0.65377,66.72067 10.27868,122.49074 -8.60794,13.52936 -18.70504,26.18704 -30.2731,37.68246 -16.03548,15.94468 -34.32282,29.11085 -54.08115,39.3169 z"
       id="path2"
       style="stroke:#000000;stroke-opacity:1" />
    <polygon
       class="cls-2"
       points="484.17,135.68 506.86,172.1 461.47,172.15 "
       id="polygon2"
       transform="matrix(1.8160228,0,0,1.8160228,-503.3652,-145.44526)"
       style="stroke:#000000;stroke-opacity:1" />
    <polygon
       class="cls-3"
       points="459.97,166.49 459.97,182.19 508.36,182.19 508.36,166.49 497.43,166.49 497.43,171.86 489.59,171.86 489.59,166.49 479.26,166.49 479.26,171.86 470.93,171.86 470.93,166.49 "
       id="polygon3"
       transform="matrix(1.8160228,0,0,1.8160228,-503.3652,-145.44526)"
       style="stroke:#000000;stroke-opacity:1" />
    <path
       class="cls-1"
       d="m 375.89855,96.467131 c 0.65378,0 1.27122,0.127122 1.88868,0.381366 0.59928,0.254243 1.12593,0.599287 1.59809,1.053293 0.454,0.454005 0.81721,0.980653 1.07146,1.579939 0.25424,0.599291 0.38136,1.216741 0.38136,1.870501 0,0.65377 -0.12712,1.27122 -0.38136,1.87051 -0.25425,0.59928 -0.59929,1.12593 -1.07146,1.57994 -0.45401,0.454 -0.99881,0.81721 -1.59809,1.05329 -0.5993,0.25424 -1.2349,0.38136 -1.88868,0.38136 -0.65376,0 -1.2712,-0.12712 -1.88866,-0.38136 -0.59928,-0.25424 -1.12593,-0.59929 -1.5981,-1.05329 -0.47216,-0.45401 -0.8172,-0.98066 -1.07145,-1.57994 -0.25424,-0.59929 -0.38136,-1.21674 -0.38136,-1.87051 0,-0.65376 0.12712,-1.27121 0.38136,-1.870501 0.25425,-0.599286 0.59929,-1.125934 1.07145,-1.579939 0.45401,-0.454006 0.99882,-0.817211 1.5981,-1.053293 0.59929,-0.254244 1.2349,-0.381366 1.88866,-0.381366 z"
       id="path3"
       style="stroke:#000000;stroke-opacity:1" />
    <path
       class="cls-2"
       d="M 365.98308,351.9089 V 242.548 c 0,-7.62729 5.19382,-15.30907 9.91547,-18.65055 5.03039,3.23252 9.91549,11.56807 9.91549,17.74254 v 110.25075 h -19.81281 z"
       id="path4"
       style="stroke:#000000;stroke-opacity:1" />
    <path
       class="cls-3"
       d="M 136.36515,190.99112 H 62.28958 v 127.6664 c 0,40.22491 0.65377,66.72068 -10.2787,122.49074 8.60796,13.52937 18.70504,26.18704 30.27311,37.68247 16.03549,15.94468 34.32283,29.11085 54.08116,39.31689 z"
       id="path5"
       style="stroke:#000000;stroke-opacity:1" />
    <polygon
       class="cls-2"
       points="331.87,135.68 309.18,172.1 354.57,172.15 "
       id="polygon5"
       transform="matrix(1.8160228,0,0,1.8160228,-503.3652,-145.44526)"
       style="stroke:#000000;stroke-opacity:1" />
    <polygon
       class="cls-3"
       points="356.07,166.49 356.07,182.19 307.68,182.19 307.68,166.49 318.61,166.49 318.61,171.86 326.45,171.86 326.45,166.49 336.78,166.49 336.78,171.86 345.12,171.86 345.12,166.49 "
       id="polygon6"
       transform="matrix(1.8160228,0,0,1.8160228,-503.3652,-145.44526)"
       style="stroke:#000000;stroke-opacity:1" />
    <path
       class="cls-1"
       d="m 99.33644,106.25549 c -0.65377,0 -1.27121,-0.12712 -1.88866,-0.38136 -0.59928,-0.25424 -1.12593,-0.59929 -1.5981,-1.05329 -0.45401,-0.45401 -0.81721,-0.98066 -1.07145,-1.57994 -0.25424,-0.59929 -0.38137,-1.21674 -0.38137,-1.87051 0,-0.65376 0.12713,-1.27121 0.38137,-1.8705 0.25424,-0.599288 0.59928,-1.125934 1.07145,-1.579941 0.47217,-0.454005 0.99882,-0.817209 1.5981,-1.053293 0.59928,-0.254242 1.23489,-0.381364 1.88866,-0.381364 0.65378,0 1.27122,0.127122 1.88867,0.381364 0.59929,0.254244 1.12593,0.599288 1.59809,1.053293 0.47218,0.454007 0.81722,0.980653 1.07146,1.579941 0.25425,0.59929 0.38137,1.21674 0.38137,1.8705 0,0.65377 -0.12712,1.27122 -0.38137,1.87051 -0.25424,0.59928 -0.59928,1.12593 -1.07146,1.57994 -0.454,0.454 -0.9988,0.81721 -1.59809,1.05329 -0.59929,0.25424 -1.23489,0.38136 -1.88867,0.38136 z"
       id="path6"
       style="stroke:#000000;stroke-opacity:1" />
    <path
       class="cls-2"
       d="M 109.23377,351.9089 V 242.548 c 0,-7.62729 -5.19383,-15.30907 -9.91549,-18.65055 -5.03038,3.23252 -9.91547,11.56807 -9.91547,17.74254 v 110.25075 h 19.81279 z"
       id="path7"
       style="stroke:#000000;stroke-opacity:1" />
    <polygon
       class="cls-2"
       points="378.84,145.43 408.19,101.66 437.54,145.43 437.54,151.53 378.84,151.53 "
       id="polygon7"
       transform="matrix(1.8160228,0,0,1.8160228,-503.3652,-145.44526)"
       style="stroke:#000000;stroke-opacity:1" />
    <polygon
       class="cls-3"
       points="412.81,140.63 412.81,146.62 404.89,146.62 404.89,140.63 394.6,140.63 394.6,146.62 387.74,146.62 387.74,140.63 376.64,140.63 376.64,158.35 439.73,158.35 439.74,140.63 430.21,140.63 430.21,146.62 422.62,146.62 422.62,140.63 "
       id="polygon8"
       transform="matrix(1.8160228,0,0,1.8160228,-503.3652,-145.44526)"
       style="stroke:#000000;stroke-opacity:1" />
    <path
       class="cls-1"
       d="m 237.91715,28.675 c 1.05329,0 2.0521,0.199763 3.01459,0.599288 0.96249,0.399524 1.81602,0.962492 2.5606,1.707061 0.74456,0.744569 1.30753,1.57994 1.70705,2.542432 0.39953,0.962492 0.5993,1.961304 0.5993,2.996438 0,1.035133 -0.19977,2.033946 -0.5993,2.996438 -0.39952,0.962492 -0.96249,1.816022 -1.70705,2.542432 -0.74458,0.744569 -1.59811,1.307536 -2.5606,1.707061 -0.96249,0.399525 -1.97946,0.599288 -3.01459,0.599288 -1.03514,0 -2.05211,-0.199763 -3.0146,-0.599288 -0.96249,-0.399525 -1.81602,-0.962492 -2.5606,-1.707061 -0.74456,-0.74457 -1.30753,-1.57994 -1.70705,-2.542432 -0.39953,-0.962492 -0.5993,-1.961305 -0.5993,-2.996438 0,-1.035134 0.19977,-2.033946 0.5993,-2.996438 0.39952,-0.962492 0.96249,-1.816023 1.70705,-2.542432 0.74458,-0.72641 1.59811,-1.307537 2.5606,-1.707061 0.96249,-0.399525 1.97946,-0.599288 3.0146,-0.599288 z"
       id="path8"
       style="stroke:#000000;stroke-opacity:1" />
    <polygon
       class="cls-3"
       points="436.63,161.45 379.75,161.45 379.75,206.58 408.19,181.94 436.63,206.82 "
       id="polygon9"
       transform="matrix(1.8160228,0,0,1.8160228,-503.3652,-145.44526)"
       style="stroke:#000000;stroke-opacity:1" />
    <polygon
       class="cls-3"
       points="356.01,229.36 408.02,184.34 460.37,230.48 460.37,242.7 408.04,194.96 356.01,240.3 "
       id="polygon10"
       transform="matrix(1.8160228,0,0,1.8160228,-503.3652,-145.44526)"
       style="stroke:#000000;stroke-opacity:1" />
    <path
       class="cls-3"
       d="m 143.15707,295.15819 94.43319,-81.75735 95.0688,86.44269 v 54.97101 c 0,0 -14.51003,0 -14.51003,0 0,-26.58658 -10.18789,-30.83607 -22.24627,-35.72117 -2.94196,-33.68722 -30.41839,-51.55689 -57.89481,-51.55689 -27.47643,0 -52.79179,19.14088 -57.69505,50.72152 -14.12865,6.22895 -23.6991,12.45792 -23.6991,36.55654 h -13.47488 v -59.65635 z"
       id="path10"
       style="stroke:#000000;stroke-opacity:1" />
    <rect
       class="cls-3"
       x="143.15707"
       y="358.06525"
       width="13.47489"
       height="11.13222"
       id="rect10"
       style="stroke:#000000;stroke-opacity:1" />
    <rect
       class="cls-3"
       x="143.15707"
       y="372.72052"
       width="13.47489"
       height="119.3127"
       id="rect11"
       style="stroke:#000000;stroke-opacity:1" />
    <path
       class="cls-3"
       d="m 143.15707,495.42919 v 28.91107 c 7.64546,3.59573 15.50884,6.73746 23.5175,9.44332 -4.14053,-12.67584 -7.64545,-25.44248 -10.06077,-38.33623 h -13.47488 z"
       id="path11"
       style="stroke:#000000;stroke-opacity:1" />
    <rect
       class="cls-3"
       x="318.16718"
       y="358.06525"
       width="14.510021"
       height="11.13222"
       id="rect12"
       style="stroke:#000000;stroke-opacity:1" />
    <rect
       class="cls-3"
       x="318.16718"
       y="372.72052"
       width="14.510021"
       height="119.3127"
       id="rect13"
       style="stroke:#000000;stroke-opacity:1" />
    <path
       class="cls-3"
       d="m 318.14903,495.42919 c -1.99762,13.47488 -5.33911,26.15072 -9.31619,38.4452 8.11761,-2.72403 16.08996,-5.90208 23.82622,-9.55228 v -28.91109 h -14.51003 z"
       id="path13"
       style="stroke:#000000;stroke-opacity:1" />
    <path
       class="cls-3"
       d="m 201.39693,288.63867 v 14.40106 h -10.51478 l -0.92616,2.85115 -0.92618,1.45282 -0.79905,3.21436 h 13.16617 v 10.64189 c -0.0364,2.16107 1.72522,3.92261 3.88628,3.92261 2.16108,0 3.92262,-1.76154 3.88629,-3.92261 v -10.64189 h 13.76546 v 10.64189 c -0.0364,2.16107 1.72522,3.92261 3.88629,3.92261 2.16106,0 3.9226,-1.76154 3.88629,-3.92261 v -10.64189 h 13.76545 v 10.64189 c -0.0364,2.16107 1.72522,3.92261 3.88628,3.92261 2.16108,0 3.92262,-1.76154 3.88629,-3.92261 v -10.64189 h 13.76546 v 10.64189 c -0.0364,2.16107 1.72522,3.92261 3.88629,3.92261 2.16106,0 3.92261,-1.76154 3.88629,-3.92261 v -10.64189 h 17.16141 l -1.03513,-4.86694 -1.70707,-2.65139 H 273.7836 v -19.72201 c -2.16107,-1.74338 -4.4311,-3.34148 -7.77258,-3.54124 v 23.24509 h -13.76546 v -29.00188 c -2.48794,-1.12594 -5.08485,-1.61626 -7.77257,-1.76155 v 30.76343 h -13.76545 v -30.32759 c -2.52427,0.63561 -5.04854,1.32571 -7.77258,3.32333 v 27.00426 H 209.1695 v -21.04771 c -2.88747,1.92499 -5.48439,4.12238 -7.77257,6.62848 v 0 z"
       id="path14"
       style="stroke:#000000;stroke-opacity:1" />
    <path
       class="cls-1"
       d="m 237.91715,337.59864 c -26.85898,0 -52.91891,4.84878 -76.76329,14.76427 0,80.9583 35.66669,136.25619 76.76329,187.55884 41.09659,-51.30265 76.76328,-106.58239 76.76328,-187.55884 -23.84438,-9.91549 -49.90431,-14.76427 -76.76328,-14.76427 z"
       id="path15"
       style="stroke:#000000;stroke-opacity:1" />
    <path
       class="cls-4"
       d="m 233.30445,488.85518 c 0,0 -6.19264,-8.2629 -4.30398,-10.69637 1.88867,-2.43348 4.30398,0.30872 4.30398,0.30872 0,0 2.4153,-2.7422 4.30397,-0.30872 1.88867,2.43347 -4.30397,10.69637 -4.30397,10.69637 z"
       id="path16"
       style="stroke:#000000;stroke-opacity:1" />
    <path
       class="cls-4"
       d="m 274.20128,467.95276 c 0,0 -6.19263,-8.26291 -4.30397,-10.69638 1.88866,-2.43346 4.30397,0.30873 4.30397,0.30873 0,0 2.41531,-2.74219 4.30397,-0.30873 1.88866,2.43347 -4.30397,10.69638 -4.30397,10.69638 z"
       id="path17"
       style="stroke:#000000;stroke-opacity:1" />
    <path
       class="cls-4"
       d="m 195.11349,458.14623 c 0,0 -6.19264,-8.2629 -4.30398,-10.69638 1.88866,-2.43346 4.30398,0.30873 4.30398,0.30873 0,0 2.41531,-2.74219 4.30397,-0.30873 1.88867,2.43348 -4.30397,10.69638 -4.30397,10.69638 z"
       id="path18"
       style="stroke:#000000;stroke-opacity:1" />
    <path
       class="cls-4"
       d="m 219.24843,439.55016 c 0,0 -6.19263,-8.2629 -4.30397,-10.69638 1.88866,-2.43346 4.30397,0.30873 4.30397,0.30873 0,0 2.41531,-2.74219 4.30397,-0.30873 1.88866,2.43348 -4.30397,10.69638 -4.30397,10.69638 z"
       id="path19"
       style="stroke:#000000;stroke-opacity:1" />
    <path
       class="cls-4"
       d="m 271.67701,432.44951 c 0,0 -6.19264,-8.2629 -4.30397,-10.69637 1.88866,-2.43347 4.30397,0.30872 4.30397,0.30872 0,0 2.41531,-2.74219 4.30397,-0.30872 1.88866,2.43347 -4.30397,10.69637 -4.30397,10.69637 z"
       id="path20"
       style="stroke:#000000;stroke-opacity:1" />
    <path
       class="cls-4"
       d="m 297.28293,368.54366 c 0,0 -6.19264,-8.26289 -4.30398,-10.69636 1.88866,-2.43348 4.30398,0.30872 4.30398,0.30872 0,0 2.41531,-2.7422 4.30398,-0.30872 1.88866,2.43347 -4.30398,10.69636 -4.30398,10.69636 z"
       id="path21"
       style="stroke:#000000;stroke-opacity:1" />
    <path
       class="cls-4"
       d="m 266.86455,381.07423 c 0,0 -6.19264,-8.2629 -4.30398,-10.69638 1.88866,-2.43347 4.30398,0.30873 4.30398,0.30873 0,0 2.41531,-2.7422 4.30397,-0.30873 1.88867,2.43348 -4.30397,10.69638 -4.30397,10.69638 z"
       id="path22"
       style="stroke:#000000;stroke-opacity:1" />
    <path
       class="cls-4"
       d="m 208.11621,385.86853 c 0,0 -6.19264,-8.2629 -4.30398,-10.69638 1.88868,-2.43347 4.30398,0.30873 4.30398,0.30873 0,0 2.41531,-2.7422 4.30398,-0.30873 1.88866,2.43348 -4.30398,10.69638 -4.30398,10.69638 z"
       id="path23"
       style="stroke:#000000;stroke-opacity:1" />
    <path
       class="cls-4"
       d="m 181.27539,367.50853 c 0,0 -6.19264,-8.2629 -4.30397,-10.69637 1.88866,-2.43347 4.30397,0.30873 4.30397,0.30873 0,0 2.41532,-2.7422 4.30398,-0.30873 1.88866,2.43347 -4.30398,10.69637 -4.30398,10.69637 z"
       id="path24"
       style="stroke:#000000;stroke-opacity:1" />
    <path
       class="cls-4"
       d="m 204.66577,358.62819 c 3.12356,-2.41531 4.73982,-0.65377 5.75679,1.50729 3.6502,7.82706 19.01376,-0.8172 22.46421,8.24475 l -8.58979,0.52664 c -5.46623,-3.12355 -13.67466,0.98065 -16.52581,-5.97471 -0.81721,-2.01579 -1.50731,-3.14172 -3.1054,-4.32213 v 0 z"
       id="path25"
       style="stroke:#000000;stroke-opacity:1" />
    <path
       class="cls-2"
       d="m 269.82467,441.23906 c 12.43975,-0.99881 25.27903,-17.72438 9.89732,-30.38206 -10.69638,-8.78955 -11.74967,-15.38171 -2.85115,-32.81553 9.66123,-18.94112 -2.16108,-26.87714 -10.93247,-15.20011 -5.59334,-16.38053 19.88545,-18.16023 20.66635,-0.50849 0.2724,6.31976 -3.99525,9.53412 -3.90445,14.98219 7.15513,-5.95656 7.20961,3.30517 18.97744,-6.7556 1.54362,8.49898 -4.26766,10.87797 -10.95063,12.71216 -5.5207,1.50729 -10.73269,5.41174 -9.40699,9.91548 4.0679,-4.7943 8.1721,-6.50137 10.82349,-7.26409 6.06552,-1.74338 7.95418,-0.1816 10.87799,2.74219 -16.28974,2.77852 -18.85032,8.37187 -17.86967,14.65531 7.20961,-10.67821 14.12866,-11.42279 20.93874,-9.18908 -6.24711,3.06908 -11.80415,7.13697 -14.52818,15.27275 6.4832,-5.39358 10.8235,-9.71572 15.67228,-6.42871 -6.17449,7.91785 -13.07536,9.24355 -14.70979,23.75358 -1.57994,14.056 -11.16854,19.46775 -24.29838,20.48473 l 1.57993,-6.01103 z"
       id="path26"
       style="stroke:#000000;stroke-opacity:1" />
    <path
       class="cls-2"
       d="m 217.59585,404.60988 c -0.90801,-12.62135 -1.39834,-24.78871 10.07893,-26.60473 2.43347,-0.38137 5.28463,-2.27003 6.62849,-4.12238 -3.90446,1.45283 -4.59455,1.08962 -6.13817,1.25307 -9.861,0.94432 -5.77495,-5.99288 -4.63085,-6.12 3.30516,-0.34505 6.59216,-1.16226 9.89732,-0.41769 7.22777,-0.23608 5.62967,-6.53768 -0.59929,-6.04735 -12.62136,0.9988 -12.05839,-8.8622 -8.66242,-8.42635 3.6502,0.47216 6.10183,0.12712 7.71809,-1.08962 2.86932,-2.17922 5.2483,-4.72166 10.24237,-4.04972 3.97708,0.52664 6.31976,-0.63561 9.20723,1.21672 1.63443,-1.30753 3.06908,-2.45163 5.04855,-2.76034 0.94433,1.50729 1.61626,3.72284 1.72522,5.57518 -0.78089,0.45401 -1.16226,0.78089 -1.83418,0.41768 1.74338,3.26885 0.14528,4.14055 2.05211,7.06434 -0.74458,0.14528 -1.36202,-0.0544 -1.92499,-0.49033 2.05211,5.86575 -1.39834,10.33317 1.79786,14.3829 -3.10539,1.5073 -3.1962,3.77734 -6.46504,5.95655 7.86337,9.67941 1.38018,10.75087 7.77258,22.10101 -4.44926,0.10897 -8.11763,-1.97947 -11.71334,-2.97829 -3.84998,-1.05329 -7.97235,-3.72284 -11.42279,-6.82823 -4.79431,6.10183 -11.49542,9.44331 -18.77768,11.94942 v 0 z"
       id="path27"
       style="stroke:#000000;stroke-opacity:1" />
    <path
       class="cls-4"
       d="m 186.12417,375.08135 c 1.34386,-2.0521 0,-3.30515 -2.59691,-4.17685 4.72166,-3.90445 6.77377,0.58113 8.33554,4.03156"
       id="path28"
       style="stroke:#000000;stroke-opacity:1" />
    <path
       class="cls-1"
       d="m 243.76474,355.2867 c -1.08962,0.45401 -1.9613,1.85235 -3.63204,1.8705 -1.19859,0 -1.85235,-0.23608 -3.75917,-1.48913 1.9613,-0.74457 2.27003,-1.90682 3.45044,-1.94315 1.9613,-0.0544 2.43347,0.61746 3.94077,1.56178 z"
       id="path29"
       style="stroke:#000000;stroke-opacity:1" />
    <path
       class="cls-4"
       d="m 183.81783,412.00109 c -1.25306,-1.16226 -2.66956,-1.45281 -4.41294,-0.25423 -1.27121,-4.73983 2.70587,-5.75681 6.79193,-3.10541"
       id="path30"
       style="stroke:#000000;stroke-opacity:1" />
    <path
       class="cls-4"
       d="m 181.40251,427.0196 c -1.74338,0.18161 -3.30516,0.76273 -4.26765,2.79667 -2.01578,-3.52307 -0.19976,-5.4299 1.67074,-7.30041"
       id="path31"
       style="stroke:#000000;stroke-opacity:1" />
    <path
       class="cls-4"
       d="m 185.03457,434.95562 c -0.9625,2.59691 -1.32571,5.0667 1.52545,6.79193 2.07026,-0.78089 2.23371,-2.9238 2.59691,-4.93958"
       id="path32"
       style="stroke:#000000;stroke-opacity:1" />
    <path
       class="cls-4"
       d="m 200.18019,433.70257 c 1.70707,2.34267 2.10659,3.52308 2.19739,4.46742 3.77733,-0.50849 2.08842,-4.06789 0.74457,-5.46624"
       id="path33"
       style="stroke:#000000;stroke-opacity:1" />
    <path
       class="cls-4"
       d="m 221.71823,498.95227 c -1.38019,-0.38137 -2.12475,-0.2724 -3.1054,0.32688 -1.43467,-4.59454 1.01696,-4.99406 3.03276,-5.53887"
       id="path34"
       style="stroke:#000000;stroke-opacity:1" />
    <path
       class="cls-4"
       d="m 225.91324,508.84959 c -0.78089,2.63323 -1.25306,5.26647 -0.0726,7.8997 1.27122,-1.27122 2.27003,-2.76035 2.7422,-4.72165"
       id="path35"
       style="stroke:#000000;stroke-opacity:1" />
    <path
       class="cls-4"
       d="m 237.35418,520.69006 c 0.14528,3.08724 1.21674,6.04735 4.59454,5.72047 -0.67193,-1.52545 -0.74458,-3.52308 -0.0364,-5.35727"
       id="path36"
       style="stroke:#000000;stroke-opacity:1" />
    <path
       class="cls-4"
       d="m 250.68378,507.10621 c 0.92618,1.08961 0.18161,2.9238 3.19621,3.43228 0.1816,-1.2349 -0.0364,-2.66955 -0.39952,-4.195"
       id="path37"
       style="stroke:#000000;stroke-opacity:1" />
    <path
       class="cls-2"
       d="m 247.0699,450.33733 c 0,11.31382 -1.97946,17.72439 -3.72284,25.49697 4.1042,-1.18042 7.2096,-1.2349 10.06075,-0.19977 0.34506,7.95418 -6.22895,14.25579 -14.78242,21.93756 -1.6889,-1.28937 -4.01341,-3.59573 -5.23015,-4.86695 -2.07026,-2.17921 -8.66242,-2.86931 -12.85744,0.79906 -0.70825,0.61744 0.0364,1.74338 0.23609,3.08724 0.1816,1.21673 -0.34504,2.59691 0.59928,2.6514 3.99526,0.23607 6.41057,1.03513 8.69876,2.1429 -2.14291,2.10658 -5.72048,4.84878 -5.50255,8.29922 0.0544,0.96249 1.9613,1.19858 2.56058,2.07026 0.74458,1.07146 0.63561,2.21556 1.72523,1.79787 5.70231,-2.2337 6.24712,-5.42991 10.69638,-7.2096 -0.23609,5.46622 -2.39715,9.20722 -2.57876,14.51001 -0.0544,1.67074 1.32569,0.36321 2.61507,0.34505 1.27122,-0.0182 2.2882,1.47097 2.833,-0.0364 0.92618,-2.48796 1.28938,-4.08605 1.43465,-6.53768 0.10897,-1.77971 1.16226,-4.04973 3.14173,-5.24831 1.36201,-0.81721 1.99762,-1.94315 2.39715,-3.83181 0.61745,0.78089 1.01697,1.54362 1.16225,2.34267 0.0726,0.38136 0.61745,-0.43584 1.43466,-0.59929 0.76273,-0.16343 1.76155,0.36321 1.72522,-0.36319 -0.43585,-8.97116 3.84997,-10.67822 9.64309,-14.25578 -1.47098,-5.97473 1.48914,-8.84404 6.28344,-10.3695 -10.75087,-11.69519 -6.86457,-21.81044 -2.12475,-41.09659 0.76273,-3.08724 -7.68178,-9.00748 -10.27869,-23.26326 -2.21556,-12.16735 -6.3016,-13.4204 -11.38647,-15.14563 -2.76035,-0.94433 -6.62848,-2.57875 -8.80771,-4.90326 -12.33079,10.85982 -27.00425,11.87679 -40.20674,16.67109 -1.99763,0.59928 -5.21198,-6.24712 -10.71454,-6.61032 -1.61626,-0.10896 -1.32569,0.96249 -2.16106,2.01578 -1.03513,1.30754 -3.14173,1.30754 -1.72523,3.45044 0.8717,1.30755 2.27003,2.43348 4.46742,4.06789 -4.81246,4.28582 -5.24831,0.38137 -8.86219,4.30398 -1.32569,1.43466 0.16345,1.92499 0.96249,3.61389 0.70825,1.52546 0.29057,4.06789 2.54243,3.06908 2.39716,-1.0533 4.1587,-1.85235 5.8476,-2.52428 -1.18041,3.08724 -2.10659,5.88392 -2.76036,7.9905 -1.10777,3.55941 0.90801,1.94315 2.45163,2.76036 1.08962,0.58113 1.83419,2.81484 2.92381,0.83537 1.61626,-2.92379 2.28818,-6.10184 5.13933,-8.66243 3.34149,1.90682 3.55941,3.30516 4.92142,5.53888 0.83537,1.39833 1.45283,0.18159 2.52427,-0.16345 0.88986,-0.2724 2.03396,0.78089 1.81604,-0.94434 -1.45283,-11.11406 17.03428,-7.51833 25.76936,-11.33197 0.83537,-6.95538 0.52664,-10.4603 0.50848,-12.47608 l 2.23371,-0.454 c 0.78089,3.37779 -0.19976,11.6407 -0.23609,12.74847 4.2495,7.9905 14.56451,8.15394 14.52818,28.5842 v 0 z"
       id="path38"
       style="stroke:#000000;stroke-opacity:1" />
    <path
       class="cls-4"
       d="m 201.43325,467.62587 c -1.48915,-0.88985 -2.96012,-0.69009 -4.44925,0.47217 -0.88986,-5.99288 1.28937,-6.10183 3.59571,-6.01104"
       id="path39"
       style="stroke:#000000;stroke-opacity:1" />
    <path
       class="cls-4"
       d="m 201.07004,475.92509 c -1.30753,1.76155 -2.96012,3.19621 0.56297,6.75561 0.50848,-1.5981 1.52546,-2.59691 2.96011,-3.50492"
       id="path40"
       style="stroke:#000000;stroke-opacity:1" />
    <path
       class="cls-4"
       d="m 208.96974,487.78373 c -0.25424,3.15988 0.39952,6.37424 2.97827,8.55347 0.16345,-2.70588 0.16345,-5.35727 2.48796,-7.08249"
       id="path41"
       style="stroke:#000000;stroke-opacity:1" />
    <path
       class="cls-4"
       d="m 219.37555,482.15406 c 0.78089,1.28937 1.57994,2.57875 3.05093,3.21436 0.16343,-1.76155 -0.12713,-3.37781 -0.56298,-4.93959"
       id="path42"
       style="stroke:#000000;stroke-opacity:1" />
    <path
       class="cls-2"
       d="m 238.95228,461.77828 c -2.0521,1.83419 -3.25069,4.03157 -8.51714,5.57519 -6.01104,1.76154 -7.8089,8.71691 -7.95419,11.85862 -0.0726,1.57995 -0.59929,2.2882 -1.45282,2.99645 -0.59928,0.49032 -0.92616,1.32569 -1.7797,0.94432 -0.59929,-0.25424 -1.10778,-0.50847 -1.61626,-0.83537 0.41769,3.10541 0.16344,5.55704 -2.03394,7.13698 -2.03396,1.47098 -2.86933,0.1816 -4.44926,-0.36321 -1.57993,-0.5448 -2.37899,0.94434 -3.74101,-2.43346 -1.12593,-2.79669 2.65139,-4.1587 1.30754,-9.17092 -1.27121,0.34504 -2.43347,0.79905 -3.52308,1.85234 -1.38019,1.3257 -1.30755,0.29057 -3.15988,-0.74457 -1.85235,-1.03513 -4.39478,-1.99762 -1.10777,-3.95893 1.30753,-0.78089 2.92379,-1.7797 3.72283,-3.88629 -1.18041,-1.4165 -1.9613,-1.76154 -3.9226,-2.03394 -1.34386,-0.1816 -0.79905,-2.39715 -0.96249,-4.12237 -0.1816,-2.07027 -0.79906,-3.74101 0.56296,-4.26766 2.17923,-0.69009 4.55822,-0.79905 8.48083,3.74101 5.28463,5.19382 13.25697,0.34504 12.71216,-6.3016 -0.27241,-3.35964 -2.36083,-7.50018 -8.69875,-10.38765 10.00629,-10.47845 15.47251,-6.93721 30.16414,-8.39003 1.25305,4.41294 1.39834,7.55465 1.56178,12.09472 -3.75917,0.41768 -13.45673,-1.19858 -13.91073,0.5448 -0.78089,3.0146 -3.84998,5.37543 8.29921,10.11525 v 0 z"
       id="path43"
       style="stroke:#000000;stroke-opacity:1" />
    <path
       class="cls-4"
       d="m 172.99433,384.74259 c -1.7797,-0.49032 -3.25068,0.65377 -4.73982,1.68891 -0.0364,-5.28463 1.52546,-6.59217 4.44926,-7.15513"
       id="path44"
       style="stroke:#000000;stroke-opacity:1" />
    <path
       class="cls-4"
       d="m 171.81392,393.44134 c -2.30636,3.1054 -3.48677,5.72048 0.56297,9.69756 0.38135,-3.46859 1.36201,-5.3391 3.03274,-6.9372"
       id="path45"
       style="stroke:#000000;stroke-opacity:1" />
    <path
       class="cls-4"
       d="m 182.71006,396.67386 c -2.08844,1.90683 -3.7047,3.95893 -1.21674,7.11881 1.59809,-1.28938 2.59691,-2.66955 3.41412,-4.04972"
       id="path46"
       style="stroke:#000000;stroke-opacity:1" />
    <path
       class="cls-2"
       d="m 192.42577,375.95304 c 0.25425,-2.76036 -1.23489,-2.46979 -2.85115,-2.56058 -1.61626,-0.0726 -3.35964,-0.50849 -3.70469,1.74338 -2.01579,0.74456 0.56297,4.54005 -2.61507,7.2096 -5.15751,-4.55821 -8.13578,-5.37542 -9.86101,-4.7035 -2.833,1.07146 -1.99762,2.86932 -1.92498,4.90326 0.0726,1.83419 -1.01697,4.08606 1.25306,3.65021 1.30753,-0.23608 4.08605,-0.23608 4.86693,1.01698 -1.9613,2.48794 -5.06669,1.30753 -6.35607,4.17684 -0.81721,1.83419 -0.29057,3.39597 0.99881,4.66719 1.72522,1.6889 4.39477,2.56058 6.15632,-0.30873 1.2349,-2.03395 1.81602,-4.7035 4.64902,-5.21199 1.61626,1.72523 0.67192,3.86813 -0.52666,5.12119 -1.63441,1.68891 -0.36319,3.06908 0.76274,4.14053 0.92618,0.87169 1.83419,0.94433 3.65021,-0.19977 2.03394,-1.28937 2.46979,-4.92141 4.75797,-5.08485 2.57875,3.66836 6.15632,1.99763 9.53412,10.40581 4.10422,-1.54362 8.20842,-0.90801 13.34777,1.54362 -0.43584,-5.26647 -0.36321,-9.1346 -0.34504,-14.12866 -8.11762,-3.45045 -22.93637,-3.30516 -21.75595,-16.36236 v 0 z"
       id="path47"
       style="display:inline;stroke:#000000;stroke-opacity:1" />
  </g>
  <metadata
     id="metadata1">
    <rdf:RDF>
      <cc:Work
         rdf:about="" />
    </rdf:RDF>
  </metadata>
</svg>
