<?xml version="1.0" encoding="utf-8"?>
<!-- Generator: Adobe Illustrator 19.2.1, SVG Export Plug-In . SVG Version: 6.00 Build 0)  -->
<svg version="1.1" id="Layer_1" xmlns="http://www.w3.org/2000/svg" xmlns:xlink="http://www.w3.org/1999/xlink" x="0px" y="0px"
	 viewBox="0 0 300 350" style="enable-background:new 0 0 300 350;" xml:space="preserve">
<style type="text/css">
	.st0{fill:#F7DA1C;stroke:#000000;stroke-width:3;}
	.st1{fill:#FFFFFF;stroke:#000000;stroke-width:3;stroke-miterlimit:10;}
	.st2{fill:#285C9F;stroke:#000000;stroke-width:3;}
	.st3{fill:none;stroke:#000000;stroke-width:6;}
	.st4{stroke:#000000;stroke-width:2;}
	.st5{fill:#DC1F17;stroke:#000000;stroke-width:0.5;}
	.st6{fill:#FFDD11;stroke:#000000;stroke-width:0.5;}
	.st7{fill:#FFFFFF;stroke:#000000;stroke-width:0.5;}
	.st8{fill:none;stroke:#000000;stroke-width:0.5;}
	.st9{fill:none;stroke:#111111;stroke-width:0.5;stroke-miterlimit:10;}
	.st10{fill:none;stroke:#231F20;stroke-width:0.4453;stroke-miterlimit:3.864;}
	.st11{fill:none;stroke:#000000;stroke-width:1.1132;stroke-miterlimit:3.864;}
	.st12{fill:none;stroke:#231F20;stroke-width:0.8349;stroke-miterlimit:3.864;}
	.st13{fill:#FFFFFF;}
	.st14{fill:none;stroke:#231F20;stroke-width:0.5566;stroke-miterlimit:3.864;}
	.st15{fill:#DC1F17;}
	.st16{fill:none;stroke:#DC1F17;stroke-width:0.8906;stroke-linejoin:round;stroke-miterlimit:3.864;}
	.st17{fill:none;stroke:#ED1C24;stroke-width:0.8906;stroke-miterlimit:3.864;}
	.st18{fill:#FFE013;}
	.st19{fill:#F7DA1C;}
</style>
<g>
	<path class="st0" d="M4,4v196c0,25.9,6.8,50.2,18.6,71.3L241.8,4H4z"/>
	<path class="st1" d="M71.7,323.2C94.4,337.6,121.2,346,150,346c80.6,0,146-65.4,146-146V49.7L71.7,323.2z"/>
	<path class="st2" d="M296,4h-54.2L22.6,271.3c11.8,21.1,28.8,38.9,49.1,51.9L296,49.7V4z"/>
</g>
<path class="st3" d="M4,4v196c0,80.6,65.4,146,146,146s146-65.4,146-146V4H4z"/>
<g>
	<g>
		<path class="st4" d="M275.4,251c0.7-2.3-0.5-4-1.4-4.4c-0.8-0.5-2.1-0.3-3,0.2c-0.8,0.5-0.7,1.7-0.2,1.7c0.5,0.1,0.8-0.7,1.2-0.5
			c0.4,0.2,0.4,1.2,0.3,1.7c-0.1,0.3-0.3,0.5-1,0.9c-0.6,0.4-2,1.5-2.6,2.4c-0.7,0.9-1.6,1.7-2.4,1.8s-1.4-0.3-2.1-0.3
			s-1.1,0.3-1.1,0.7s0.4,1,0.5,2s-0.5,1.9-1.2,3.1c-0.7,1.1-1.9,2.4-1.2,5.4c0.7,3.1,1,5.1-1.8,8c-2.9,3-9.8,1.7-12.7,1.1
			c-2.9-0.7-6.9-2.4-8.1-3.2c-1.2-0.8-1.7-1.2-2.7-2.5s-3.1-4-3.1-4s0.5-0.4,0.9-1.9c0.4-1.6-0.6-4.1-0.9-4.8
			c-0.3-0.7-0.4-1.4,0.1-1.2c0.4,0.2,2.7,3.3,4.8,5.5c2.1,2.3,5.7,5.2,9.4,6.4c3.7,1.2,7,0.1,8.8-1c1.8-1,1.8-1.8,1.6-2.5
			c-0.3-0.7-3.3-1.4-5.8-2.7c-2.5-1.3-5.9-3.5-8.2-5.3c-2.2-1.8-3.7-4.2-3.6-4.4c0.1-0.2,1.9,0.1,2.8,0.7c0.9,0.6,3.8,1.8,7.2,0.9
			c3.5-0.9,5.1-5.1,5.3-6s0.4-2-0.3-2.4c-0.8-0.4-1.5,0.1-2.6,0.6c-1,0.5-3.1,0.8-5.5,0.7s-3.1-1.7-3.1-1.7s2.9-0.7,4.8-1.4
			c2-0.7,6.5-2.6,10.7-5.2c4.2-2.6,6.1-5.7,6.3-8.2c0.2-2.5-1.1-3-1.1-3s-3.6,2.7-8.2,5.3c-3.1,1.7-5.1,2.7-6.2,3.1l0.8-0.4
			c0,0-0.6,0.2-1.3,0.5c-0.2,0.1-0.4,0.1-0.4,0.1c-0.1-0.1,1.5-1.6,3.4-2.9c1.9-1.3,5-4.3,7.7-6.5c3.2-2.5,5.3-4.7,6.1-6.3
			c0.8-1.6,0.9-4.9,0.8-6.2c0-1.4-0.5-2.3-1.3-1.8c-0.8,0.4-3.1,2.8-4.8,4.7c-1.7,1.9-4.4,4.6-9.5,8.3c-5.1,3.7-5.5,3.6-5.7,3.4
			c-0.2-0.2,1-1.6,2.1-2.9c1.2-1.2,3.7-4.3,4.7-5.7s3.1-4.4,4.4-7.4c1.3-3,2.1-4.9,2.1-7.2s-0.3-3.3-1.1-3.5
			c-0.8-0.2-1.7,0.5-2.2,1.2s-1.7,2.8-4.8,7c-1.8,2.4-3,3.6-3.6,4.2c0.1-0.2,0.2-0.3,0.2-0.3l-0.6,0.7c-0.2,0.1-0.3,0.2-0.3,0.2
			s1.3-3.5,1.6-4.7c0.4-1.2,1-2.7,1.1-5.2c0.1-2.7-1-4.1-1.7-4.8s-2.1-0.6-2.8-0.3c-0.6,0.4-0.8,1.2-0.8,1.9s-0.3,2.5-0.7,4.7
			s-2.1,5.8-2.9,7.4c-0.8,1.6-3,4.6-3.4,5.1s-2.6,2.1-2.4,1.7c0.2-0.4,0.4-1,0.1-1.3c-0.3-0.3-0.7-0.3-1.4,0.2s-2,2.7-2.6,3.6
			c-0.5,0.7-1.3,1.5-2.2,2.2c-0.2,0.1-0.3,0.2-0.3,0.2v0.1c-0.2,0.2-0.4,0.3-0.6,0.5c-1.2,0.9-2.1,0.7-2.9-0.4c-0.8-1,0-3.7,0-3.7
			s0.5,0.3,0.8,0.4c0.3,0.1,1.3,0.2,1.8-0.2s0.5-1.9,0.4-2c0-0.2-0.6,0-1.4-0.2c-0.8-0.2-1.2-0.8-1.7-1.6c-0.5-0.7-0.3-1.5,0.1-1.5
			c0.4,0,1.3-0.3,2.1-0.7s0.9-1.4,1-2s-0.7-1-0.9-0.8c-0.2,0.1-0.2,0.4-0.4,0.9s-0.9,0.3-1.6,0.1c-0.7-0.2-1.6-1.7-1.8-2.4
			s-0.6-1.8-1.1-2.2s-0.7-1-0.6-2.1c0.1-1,2.1-1.6,3.1-2.2c1-0.6,2-1.8,2.3-2c0.3-0.3,1.1-0.3,1.3-0.5s-0.3-0.7-1.3-0.9
			s-3-0.4-5.9,0.5c-2.9,1-3.1,2.1-3.2,2.2c-0.1,0.1-0.1-1.6,0.3-2c0.4-0.5,1.4-1.3,0.9-1.6c-0.5-0.2-0.6-0.2-1.4,0.1
			c-0.7,0.4-2.3,0.3-2.9,1.3c-0.6,1-1.1,2.9-1.1,2.9s-1.3,0.1-1.7,0.3c-0.5,0.2-1.5,1.1-1.5,1.1s0,0,0,0.1c-0.4-0.3-0.7-0.3-0.7-0.3
			c-0.9-0.2-1.6,0-1.6,0s-0.8,0.1-1,0.4c-0.2,0.2-0.5,0.5-0.7,0.9c-0.1,0.4-0.1,1-0.1,1s-0.5,0.1-0.6,0.2c-0.2,0.1-2.5,0.2-3,1.2
			c-0.4,1-0.2,3.5,0.4,3.9c0.6,0.4,0.5,0.1,0.7,0c0.1-0.1,0.6-0.8,1.4-0.7c0.8,0.1,2,0.6,2.8,0.7c0.7,0,1.9-0.7,3.2-0.3
			c0.2,0.1,0.4,0.1,0.6,0.2c0.2,1,0.3,1.9,0.4,2.4c-0.9,0-2,0.1-3.2,0.3c-1.8,0.4-4.5,0.8-6.5,0.8c-0.2,0-0.4,0-0.6,0
			c-1.9-0.1-3.1-0.6-3.2-1.1c-0.1-0.8,0.4-1.2,0.2-1.4s-0.4-0.1-0.6-0.2c-0.1,0-0.1,0-0.3,0c0,0,0,0-0.1,0c-0.2-0.1-1.2,0.1-1.5,1.2
			c-0.3,1-0.2,2.6,1.5,3.1c1.1,0.3,2,0.4,2.9,0.4c1.5,0,2.8-0.5,4.4-0.7c2.5-0.2,3.3-0.3,5.1-0.4c0.9,0,1.6-0.1,2.1-0.1
			c0.1,0.6,0.3,1.2,0.5,1.5c0,0.1,0.1,0.2,0.2,0.3c-1.1-0.2-3-0.4-4.7,0.2c-2.4,0.9-1.8,0.7-1.9,0.9c-0.2,0.2,0,0.5,0.1,0.5
			c0.2,0.1,3.2,0.2,3.7,0.1c0.5-0.1,2.5,0,3.5,0c0.3,0.8,0.6,1.7,0.6,2.1c0,0.9-0.7,1.7-2.5,2.7s-4.3,2.5-5,3.1
			c-0.7,0.7-2.7,2.1-2.7,2.1s-2.1-2.3-2.9-3.2c-0.8-1-1.6-1.8-1.6-2.6c0-0.7,0.3-1.8,0-1.9c-0.4-0.1-1.3,0.2-1.7,0.9s-0.6,1-0.6,1
			l0,0c0-0.1,0-0.1,0-0.1l-0.1,0.1c-0.5-0.4-3.8-3.1-4.6-4c-0.9-1-3-3.1-2.9-4.1c0.1-0.9,0.4-2,1.1-2.6c0.8-0.7,1-0.9,0.9-1.2
			c-0.1-0.4-0.3-1.2,0.4-1.5s1,0.4,1.7,0.1c0.7-0.3,1.1-1,0.9-1.3c-0.2-0.2-0.4-0.4-0.5-0.4c0.1-0.1,0.1-0.3,0.2-0.5
			c0.1-0.4,0.1-0.7,0.1-1.1c0-0.4-0.2-1.2-0.4-1.7s-0.5-0.8-0.9-1.1s-0.6-0.3-0.7,0c-0.1,0.3,0.6,0.8,0.5,1.3s-0.4,0.3-0.9,0.4
			c-0.6,0.1-0.8,0.1-0.8,0.1s0.3,0.8,0.7,1.5l0,0c-0.3-0.5-0.9-1.9-0.9-1.9s-0.8,0.2-0.8,1s0.3,1.9-0.1,2.6
			c-0.3,0.8-1.1,1.1-1.5,1.1s-1-0.1-1-0.1s-1.2-1.8-1.2-3s0.1-2.5-0.1-3c-0.2-0.5-1.1-0.4-1.1-0.4s0,0-0.1,0.1
			c0-0.1-0.1-0.3-0.2-0.5c-0.3-0.4-0.3-0.4-0.6-0.6c-0.3-0.3-0.5-0.3-1-0.3c-0.6,0-0.6,0.2-0.8,0.2c-0.2,0.1-0.7,0.3-0.9,0.4
			c-0.2,0.1-0.3,0.4-0.2,0.6c0.1,0.2,0.2,0.1,0.6,0.2c0.3,0,0.6,0,0.8,0.2s0,0.6-0.1,0.7c0,0.1-0.1,0.3-0.2,0.4
			c-0.3-0.1-0.6-0.2-0.6,0.4c-0.1,0.8-0.2,0.7,0.6,1.5c0.1,0.1,0.2,0.2,0.3,0.3c-0.1,0-0.2,0-0.2,0l1.3,1.2c0,0.1,0,0.1,0,0.2
			c0.1,0.7-0.3,1,0,1.6s1,0.4,1.3,1.2s0.2,1.4,0.2,1.4s-0.5,0.2-1.2-0.1c-0.7-0.4-2-1.2-2.5-2s-0.9-1.7-1.3-1.8
			c-0.3-0.1-0.7,0.3-0.6,0.7c-0.1-0.1-0.3-0.3-0.8-0.3c-0.7-0.1-1.2-0.3-1.5,0.1c-0.3,0.3-0.9,1-0.9,1.2c0,0.3,0.1,0.4,0.5,0.5
			s0.6,0,1,0c0.3,0,0.5,0.1,0.7,0.2c-0.2,0-0.4,0-0.4,0s-0.4,1-0.1,1.5c0.3,0.5,0.7,0.7,1.1,0.5c0.4-0.1,0.9-0.5,1.4-0.2
			s0.5,1.1,1.2,1.5s1.3-0.1,1.9,0c0.6,0.1,1.5,0.6,1.5,1.1c0.1,0.5-0.5,1.1-0.6,1.4c-0.1,0.4-0.1,0.9-0.5,1.4
			c-0.3,0.5-0.8,0.9-1.1,0.9c-0.3,0.1-1.4,0-1.6,0.5c-0.2,0.5-0.4,1.5-0.4,1.5s1-0.1,1.7,0.3c0.7,0.4,1.8,1.1,1.8,1.4
			c0.1,0.3,0.3,0.8,0.9,0.5c0.6-0.3,0.5-0.9,0.1-1.6c-0.4-0.7,0.1-1.2,0.4-1.9c0.3-0.7,0.5-1.7,1-1.9s1.4,0.6,2,1.4
			c0.7,0.8,3.7,4.1,4.5,5.5l0,0c0.6,0.9,1.1,1.9,1.4,2.4l-0.4,0.8c0,0,0,0,0.1,0c-0.6,0.4-1.6,0.9-2.1,1.5c-0.8,0.8-0.8,1.9-0.5,2.3
			c0.2,0.4,0.5-0.1,1.5-0.3s1.7,0.1,3.1,1.2c0.2,0.2,0.5,0.4,0.7,0.6c0,0.1,0,0.2,0,0.2l0.1-0.2c0.3,0.3,0.6,0.6,0.9,0.9
			c0,0.1,0,0.2,0,0.2l0.1-0.1c0.3,0.3,0.5,0.6,0.7,0.8c-0.1,0.2-0.1,0.4-0.1,0.4l0.2-0.3c0.4,0.5,0.7,0.9,0.8,0.9
			c-0.1,0.1-0.1,0.2-0.1,0.2l0.1-0.2l0,0c0,0-0.2,3.2,0.1,4.4c0.2,1,1.4,2.5,1.8,2.9l-0.1,0.1h0.1c0,0.1,0.1,0.1,0.1,0.1
			s-0.5,0.7-2,0.8c-1.1,0.1-2.5,0.1-3.4,0c-0.9-0.2-1.2-0.7-1.6-0.7c-0.4-0.1-0.4,0.6-0.3,1.5c0.1,0.8,1.1,1.8,1.3,2
			c-0.1,0-0.2,0-0.3,0v0.1c-0.8,0.2-3.4,0.7-5.4,1c-2.4,0.3-5.1,0.6-5.1,0.6s-0.9-2.3-1.1-3c-0.2-0.7,0.6-1.2,1-1.8
			c0.4-0.5,0.1-1.3-0.3-1.5c-0.4-0.2-0.6,0-1.4,0c-0.2,0-0.5,0-0.7,0c0.4,0,0.8,0,0.8,0s0.1-0.8-0.5-1.4c-0.6-0.6-1.3-0.7-1.8-0.9
			c-0.6-0.1-0.9,0.1-0.3,0.7c0.6,0.7,0.5,1.4,0.5,1.4s0.4,0.1,0.9,0.2c-0.4-0.1-0.7-0.1-0.7-0.1s-0.8,0-1.1,0.4s0.2,1.1,0.7,1.3
			s1,1,0.9,1.5s-0.5,0.4-0.8,0.8c-0.3,0.4,0.5,0.9,1,1.1c0.4,0.2,0.5,1,0.2,1.3c-0.1,0-0.2,0.1-0.2,0.1h0.1
			c-0.4,0.3-0.8,0.3-1.2-0.2c-0.5-0.5-0.8-1.1-1.2-1.3c-0.3-0.2-0.7,0-1,0.3s0.1,0.6,0.2,1.3c-0.2-0.5-0.4-1-0.4-1s-1.2,0-1.6,0.5
			c-0.4,0.5-0.8,1.7-0.6,1.9s1.9,0.2,2.1,0.2c0.1,0.3,0.2,0.9,0.4,1.2c0.5,0.5,1.4,0.3,1.6-0.1c0.2-0.5,0.6-0.8,1-0.7
			s0.6,0.6,1.5,0.8s2-0.3,2.2-0.3c0.3,0.1-0.1,0.7-0.7,1.1c-0.6,0.4-2.4,1.9-3,2.1s-1.3-0.1-1.8,0.2c-0.4,0.3,0,1.2,0,1.2
			s0.1,0,0.2,0c-0.2,0-0.3,0-0.3,0s-1.3,0.2-1.5,1.1c-0.1,0.8-0.1,1.7,0.1,2.3c0.2,0.6,0.8,0.4,1-0.2c0.1-0.6,0.2-1,0.6-1.1
			c0.4,0,0.8,0.1,0.8,0.1s0.2-0.2,0.3-0.5c-0.1,0.4-0.2,0.7-0.2,0.7s0.2,0.7,0.7,0.8s1-0.5,0.9-1.1s0-1.5,0.1-1.8s0.9,0.1,1.4,0.1
			c0.4,0,0.9-1.3,1.1-2c0.2-0.7,1.2-1.1,1.8-0.8c0.6,0.3-0.1,1.1,0,1.8c0.1,0.5,0.9,0.6,1.3,0.6c0,0,0,0,0.1,0v0.3
			c0,0,0.1-0.1,0.2-0.3c0.2,0,0.2,0.2,0,0.4c-0.3,0.4-0.7,1-0.4,1.5c0.3,0.6,1.1,0.4,1.2,0.4c0.2,0.1,1.2,0.5,1,1.1
			s-0.6,1.1-0.6,1.3c0,0.2,1,0.1,1.7-0.2c0.7-0.3,1.4-1,1.5-1.8c0-0.8-0.5-1.8-0.5-1.8s0,0-0.1,0c0-0.1,0-0.2,0.1-0.3
			c0.1-0.3-0.1-1-0.7-1.1c-0.6-0.1-2.5-0.2-3-2.5c-0.5-2.4,1.5-2.1,3.3-2.2c1.7-0.1,4.7-0.5,4.7-0.5s-0.6,0.6-1.1,1.8
			c-0.4,1.2,1.1,2.3,1.4,1.8c0.2-0.3,0.5-0.6,0.8-0.8l3.6-1.1c0.5,0,1.1,0.1,1.8,0.1c2,0.1,3.6,0.3,5.3-0.2c1.1-0.3,1.9-0.5,2.3-0.5
			l0,0c0,0,0.1,0,0.2-0.1h0.1c0,0,1.8,1.7,3.5,3.7c1.7,1.9,4.5,4.9,4.5,4.9s-0.1,0-0.3,0l-0.1-0.1l-0.2,0.1
			c-0.5,0.1-1.1,0.1-1.6,0.2c-0.8,0-1.9,0-4.5-0.7c-2.6-0.6-6.6-1.1-10.3,0.1s-4.5,3.4-4.5,3.4s-2.5-0.3-4.1,0.1s-2.2,1.5-2.9,1.9
			c-0.6,0.4-2.1-0.5-2.1-0.5s-0.1,0.5,0.4,1.6h-0.3c0,0,0.3,0.3,0.7,0.6c0.9,0.9,2.8,1.5,3.8,1.5c0.9,0,1.7-0.1,2.6,0.1
			c-0.1,0.1-0.2,0.1-0.2,0.1l2.6,1.7c0.5,0.9,0.8,2.1,1.1,2.9c0.6,1.3,3,3,3.8,3.6s0.9,1.5,0.6,1.9c-0.3,0.4-2,0.9-3.3,1.3
			s-2.3,0.2-2.3,0.2s0.4-2.2,0.1-3.7c-0.3-1.5-1.7-1.5-1.7-1.5s-0.2,0.2-0.3,0.5c0,0.1-0.2,0.3-0.4,0.5c0.3-0.4,0.6-0.9,0.6-0.9
			s-1-1-2.1-1.2s-2.1-0.2-2.7,0.1c-0.6,0.3-1.1,0.8-0.3,0.9s1.2,0.2,1.4,0.6c0.1,0.3,0.3,0.6,0.5,0.9c-0.2-0.2-0.3-0.4-0.3-0.4
			s-0.7,0.1-1.3,0.8c-0.5,0.8,0.5,2.1,1.1,2.5s1.4,0,1.8,0.3c0.4,0.4,0,1.3,0,1.3s-0.6,0.1-1.6-0.1c-1-0.3-1.6-1.1-2.6-1.1
			s-1.5,1.2-1.5,1.2s0.4,0.4,1.1,0.9l0,0c-0.4-0.3-1.1-0.8-1.1-0.8s-1.1,0.2-1.7,0.6c-0.6,0.5-1,1.1-1.3,2s0,1.7,0.1,2.2
			s0.7-0.1,1-0.7s0.4-0.7,0.9-0.7c0.4,0,0.8,0.1,1.2,0.1c-0.4,0.1-0.8,0-0.8,0s-0.1,0.3,0.1,0.5c0.2,0.2,0.9,0.9,1.9,1
			c0.3,0,0.7,0,1.1,0l0,0h0.1c0.9-0.1,1.9-0.3,2.5-0.3c0.8,0,0.5,0.7-0.3,1.3c-0.8,0.5-1.2,1-1.4,2.1s0.6,1.5,0.6,1.5s0,0,0.1-0.1
			c-0.1,0.3-0.3,1.3,0.1,2.2c0.5,1,1.4,1.5,1.8,1.6c0.4,0.1,0.6-0.3,0.4-0.9c-0.1-0.6-0.5-0.9-0.2-1.3c0.2-0.3,0.5-0.5,0.6-0.6l0,0
			c0,0,0.9,0.1,1.6,0.2c0.7,0.1,1.5,0,1.8-0.9s-0.2-1.5-0.4-2.3c-0.2-0.7,0.2-1.1,0.6-1.1c0.4,0,1.1-0.3,2.1-0.4
			c0.8-0.1,1.9,0.1,2.1,0.1c0.1,0,0.7,0.5,0.6,1.1c-0.1,0.7-0.5,1.3-0.2,1.5s1.3-0.5,1.8-1c0.5-0.4,0.8-1.1,0.7-1.7
			c0-0.4-0.2-0.8-0.4-1.2c0.3,0.3,0.4,0.5,0.4,0.5s0.7-0.2,0.8-0.8c0.2-0.5,0.2-0.6,0.5-0.7s1.2-0.9,1.6-1.4
			c0.4-0.5,0.9-0.9,1.9-0.9s1.1-0.8,1.2-1.8c0.1-1.1-0.3-1.6-1.8-2.9c-1.5-1.4-1.8-2.7-1.8-3.8c0-1.1,0.8-2.5,3.9-3.9
			c3.1-1.4,8.4-1.3,8.4-1.3s0,1.1,0.1,3c0.1,1.8,0.2,2.6,0.7,4.1c0.6,1.5,0.5,3,0.3,3.8s-1.5,1.5-1.5,1.5s0.7,1.2,2.4,1.5v0.1
			c0,0,0,0,0.1-0.1c0.1,0,0.2,0,0.3,0c2,0.2,2.9-1.1,3.3-1.5c0.1-0.1,0.2-0.2,0.4-0.2c0.1,0.1,0.1,0.1,0.1,0.1v-0.2
			c0.2,0,0.4,0.1,0.5,0.3c0.2,0.4,1.1,1.2,2,1.8c1,0.6,1.2,1.4,1.3,2.4c0.2,1-0.6,1.6-1.1,2.2s-0.8,1.7-1.3,2s-2.1,0.2-2.1,0.2
			s0-0.7,0.1-1.4c0.1-0.8,0.1-1.5-0.5-2s-2-0.2-2-0.2v0.1c-0.2-0.1-1.1-0.7-2.1-0.6s-1.8,0.7-2,1s-0.2,0.6,0.8,0.5s1.2,0,1.5,0.5
			s0.4,1.5,0.4,1.5c-0.7,0.2-1.1,0.4-1.1,0.9c-0.1,0.5,0.3,1.4,0.3,1.4s0,0-0.1,0.1l-0.2,0.1c0,0,0,0,0.1,0c-0.2,0.2-0.6,0.5-1,0.9
			c-0.7,0.6-0.8,1.8-0.8,1.8l0,0c-0.3,0.1-1.2,0.4-1.4,1.2c-0.2,1-0.3,1.9-0.1,2.6c0.1,0.8,0.8,1.6,1,0.9s0.3-1.2,0.7-1.4
			c0.4-0.2,1.2,0,1.2,0s0.1,0,0.2-0.1l-0.1,0.1c-0.4,0.4,0,1.1,0.6,1.2c0.6,0.2,1,1,2,0.3c1-0.6,0.7-1.9,0.7-1.9s1,0.2,1.6-0.5
			s1.4-1.2,1.7-1.1s0.3,0.7-0.3,1.3c-0.6,0.6-0.8,1.7-0.5,2.4c0.3,0.6,1.4,0.4,1.8,0.4c0.1,0.2,0.6,1.1,1.3,1.3c0.8,0.3,2,0,2.4-0.1
			c0.5-0.1,0-0.7-0.4-0.8c-0.4-0.1-0.7-0.6-0.6-0.8c0-0.1,0.2-0.3,0.3-0.5c0,0.1,0,0.1,0,0.1s1-0.3,1.4-1.2c0.3-0.9-0.2-1.6-1.1-2.6
			c-0.8-0.8-0.2-1.1,0.4-1.1l0.1,0.1v-0.1c0.1,0,0.1,0,0.2,0c0.4,0.1,0.8-0.1,1-0.3c0.2,0,0.9-0.1,1.2,0.3c0.3,0.6,0.4,1.7,0.4,2.1
			s0.6,0.1,1-0.6s0.7-1.2,0.7-1.8c0-0.6,0-1.2,0-1.2c0.3,0.1,0.6-0.1,0.7-0.7c0.2-0.7-0.2-1.3-0.2-1.3s1.2,0.3,2.1-0.6
			c0.9-0.9,0.9-1.8,1.2-2.6c0.3-0.8,0.8-1,0.6-2.4s-2.1-2.9-3.2-4.1c-1.1-1.2-2.9-3.4-3.4-4.9c-0.4-1.3-0.3-5.4-0.3-6.5l0,0l0,0
			c0-0.2,0-0.2,0-0.2s1.6,0.9,2.3,1.3c0.7,0.3,4.5,2.1,8.5,3.1s9.8,0.9,13.2-0.4c3.4-1.3,5-3.1,6.2-5s2.1-4.2,2.8-6.5
			c0.7-2.2,2.5-4.2,3.3-4.6s1.9,0,2.4-0.2c0.5-0.1,0.4-0.7,0.4-1.4c0-0.7-0.5-1.7-1.4-1.9c-0.9-0.2-2,0.1-2,0.1s0.1-1,0.6-2.2
			C272.6,254.5,274.7,253.2,275.4,251z M190.9,261.3L190.9,261.3c-0.3,0.2-0.6,0.5-0.7,0.8C190.3,261.9,190.5,261.6,190.9,261.3z
			 M194.6,293.1c0.2-0.2,0.6-0.3,1-0.4C195.3,292.8,194.9,292.9,194.6,293.1z M206.1,289c-0.3-0.1-0.6-0.2-1-0.2h0.1
			C205.6,288.8,205.9,288.9,206.1,289C206.1,289.1,206.1,289.1,206.1,289z M221.4,298.2c0.2,0,0.3,0,0.5,0.1c0.2,0,0.3,0.1,0.5,0.2
			C222.1,298.4,221.7,298.3,221.4,298.2z M225,291.5L225,291.5L225,291.5L225,291.5z"/>
	</g>
	<g>
		<path class="st5" d="M193.8,228.8c-0.9-1.4-3.9-4.7-4.5-5.5s-1.6-1.6-2-1.4c-0.5,0.2-0.7,1.2-1,1.9s-0.7,1.2-0.4,1.9
			c0.4,0.7,0.5,1.3-0.1,1.6s-0.9-0.2-0.9-0.5c-0.1-0.3-1.1-1-1.8-1.4c-0.8-0.4-1.7-0.3-1.7-0.3s0.1-1,0.4-1.5
			c0.2-0.5,1.3-0.4,1.6-0.5s0.8-0.5,1.1-0.9c0.3-0.5,0.3-1,0.5-1.4c0.1-0.4,0.7-0.9,0.6-1.4c-0.1-0.5-0.9-1-1.5-1.1s-1.1,0.3-1.9,0
			c-0.7-0.4-0.7-1.1-1.2-1.5c-0.5-0.3-1,0-1.4,0.2c-0.4,0.1-0.8-0.1-1.1-0.5c-0.3-0.5,0.1-1.5,0.1-1.5s0.6,0.1,0.9,0
			c0.3-0.1,0.6-1.1,0.5-1.6s0.3-0.9,0.6-0.8c0.3,0.1,0.7,1,1.3,1.8c0.5,0.8,1.9,1.6,2.5,2c0.7,0.4,1.2,0.1,1.2,0.1s0.1-0.6-0.2-1.4
			c-0.3-0.8-1-0.6-1.3-1.2c-0.3-0.6,0.1-0.9,0-1.6c-0.1-0.7-0.6-0.9-1.4-1.7c-0.8-0.8-0.7-0.8-0.6-1.5c0.1-0.8,0.5-0.4,0.8-0.3
			c0.3,0.1,0.9,0.3,1.2,0.4c0.3,0.1,0.5-0.4,0.7-0.8c0.2-0.5,0.7-1,0.7-1s0.9-0.1,1.1,0.4c0.2,0.5,0.1,1.8,0.1,3s1.2,3,1.2,3
			s0.6,0.1,1,0.1s1.2-0.3,1.5-1.1s0.1-1.8,0.1-2.6s0.8-1,0.8-1s0.6,1.4,0.9,1.9c0.3,0.5,0.7,0.7,1.3,0.9c0.5,0.1,1,0.2,1,0.2
			s0.3,0.1,0.5,0.4c0.2,0.3-0.2,1.1-0.9,1.3c-0.7,0.3-0.9-0.4-1.7-0.1c-0.7,0.3-0.5,1.2-0.4,1.5s-0.1,0.5-0.9,1.2
			c-0.8,0.7-1.1,1.7-1.1,2.6c-0.1,0.9,2,3.1,2.9,4.1s4.7,4,4.7,4s0.3-0.3,0.6-1c0.4-0.7,1.3-0.9,1.7-0.9c0.4,0.1,0.1,1.1,0,1.9
			c0,0.7,0.8,1.6,1.6,2.6s2.9,3.2,2.9,3.2s2-1.4,2.7-2.1c0.7-0.7,3.2-2.1,5-3.1s2.4-1.8,2.5-2.7c0-0.9-1.1-3.5-1.5-4.1
			s-0.5-2.1-0.8-3s-1.8-10.2-1.8-10.2s1-0.9,1.5-1.1c0.5-0.2,1.7-0.3,1.7-0.3s0.5-1.9,1.1-2.9s2.2-0.9,2.9-1.3
			c0.7-0.4,0.9-0.4,1.4-0.1c0.5,0.2-0.6,1.1-0.9,1.6c-0.4,0.5-0.3,2.1-0.3,2c0.1-0.1,0.3-1.3,3.2-2.2c2.9-1,4.9-0.7,5.9-0.5
			s1.5,0.6,1.3,0.9c-0.2,0.2-1,0.2-1.3,0.5s-1.3,1.5-2.3,2c-1,0.6-3,1.2-3.1,2.2s0.1,1.7,0.6,2.1c0.5,0.4,0.9,1.5,1.1,2.2
			c0.2,0.7,1.1,2.2,1.8,2.4s1.4,0.4,1.6-0.1c0.2-0.5,0.2-0.7,0.4-0.9s1,0.2,0.9,0.8s-0.2,1.6-1,2s-1.7,0.7-2.1,0.7
			c-0.4,0-0.7,0.7-0.1,1.5c0.5,0.7,0.9,1.3,1.7,1.6c0.8,0.2,1.4,0.1,1.4,0.2c0,0.2,0,1.6-0.4,2c-0.5,0.4-1.5,0.3-1.8,0.2
			s-0.8-0.4-0.8-0.4s-0.8,2.6,0,3.7c0.8,1,1.7,1.3,2.9,0.4c1.2-0.9,2.5-2,3.2-2.9c0.6-0.9,1.9-3.1,2.6-3.6c0.7-0.5,1.1-0.5,1.4-0.2
			c0.3,0.3,0.1,0.9-0.1,1.3c-0.2,0.4,2-1.1,2.4-1.7c0.4-0.5,2.7-3.5,3.4-5.1c0.8-1.6,2.5-5.3,2.9-7.4c0.4-2.2,0.7-4,0.7-4.7
			c0-0.6,0.1-1.5,0.8-1.9s2.1-0.5,2.8,0.3c0.7,0.7,1.8,2.1,1.7,4.8c-0.1,2.5-0.8,3.9-1.1,5.2c-0.3,1.2-1.6,4.7-1.6,4.7
			s1.2-0.6,4.3-4.8s4.3-6.3,4.8-7c0.5-0.7,1.4-1.4,2.2-1.2c0.8,0.2,1.1,1.2,1.1,3.5c0,2.2-0.8,4.2-2.1,7.2c-1.4,3-3.4,6-4.4,7.4
			s-3.6,4.4-4.7,5.7c-1.2,1.2-2.3,2.7-2.1,2.9s0.6,0.2,5.7-3.4c5.1-3.7,7.8-6.4,9.5-8.3c1.7-1.9,3.9-4.3,4.8-4.7
			c0.8-0.4,1.3,0.5,1.3,1.8c0,1.4,0,4.7-0.8,6.2c-0.8,1.6-2.9,3.7-6.1,6.3c-2.8,2.2-5.9,5.1-7.7,6.5c-1.9,1.3-3.5,2.7-3.4,2.9
			s2.5-0.7,7.1-3.3c4.6-2.6,8.2-5.3,8.2-5.3s1.3,0.5,1.1,3c-0.2,2.5-2.1,5.7-6.3,8.2c-4.2,2.6-8.7,4.5-10.7,5.2s-4.8,1.4-4.8,1.4
			s0.7,1.6,3.1,1.7c2.4,0.1,4.5-0.2,5.5-0.7s1.8-1,2.6-0.6c0.8,0.4,0.5,1.5,0.3,2.4s-1.8,5.1-5.3,6s-6.4-0.4-7.2-0.9
			c-0.9-0.6-2.7-0.9-2.8-0.7s1.4,2.6,3.6,4.4c2.2,1.8,5.7,4,8.2,5.3s5.6,2,5.8,2.7c0.3,0.7,0.2,1.4-1.6,2.5c-1.8,1-5.1,2.2-8.8,1
			s-7.3-4.1-9.4-6.4c-2.1-2.3-4.4-5.4-4.8-5.5c-0.4-0.2-0.4,0.5-0.1,1.2c0.3,0.7,1.3,3.3,0.9,4.8c-0.4,1.6-0.9,1.9-0.9,1.9
			s2.1,2.7,3.1,4s1.5,1.6,2.7,2.5c1.2,0.8,5.2,2.6,8.1,3.2c2.9,0.7,9.8,1.9,12.7-1.1s2.6-5,1.8-8c-0.7-3.1,0.4-4.3,1.2-5.4
			c0.7-1.2,1.3-2.1,1.2-3.1c-0.1-1-0.5-1.6-0.5-2s0.3-0.7,1.1-0.7c0.7,0,1.3,0.4,2.1,0.3c0.8-0.1,1.8-0.9,2.4-1.8
			c0.6-0.9,2-2,2.6-2.4c0.7-0.4,0.9-0.6,1-0.9c0.1-0.6,0.1-1.6-0.3-1.7c-0.4-0.2-0.7,0.6-1.2,0.5s-0.6-1.2,0.2-1.7
			c0.8-0.5,2.1-0.7,3-0.2c0.8,0.5,2,2.2,1.4,4.4c-0.7,2.3-2.8,3.5-3.3,4.7s-0.6,2.2-0.6,2.2s1.1-0.3,2-0.1c0.9,0.2,1.4,1.2,1.4,1.9
			c0,0.7,0.1,1.3-0.4,1.4s-1.6-0.3-2.4,0.2c-0.8,0.4-2.6,2.4-3.3,4.6c-0.7,2.2-1.5,4.6-2.8,6.5c-1.2,1.9-2.8,3.7-6.2,5
			c-3.4,1.3-9.2,1.4-13.2,0.4s-7.8-2.8-8.5-3.1c-0.7-0.4-2.3-1.3-2.3-1.3s-0.2,5.2,0.3,6.7s2.3,3.7,3.4,4.9c1.1,1.2,3,2.7,3.2,4.1
			s-0.3,1.6-0.6,2.4s-0.3,1.7-1.2,2.6s-2.1,0.6-2.1,0.6s0.4,0.6,0.2,1.3c-0.2,0.7-0.5,0.8-0.9,0.6c-0.4-0.2-1.1-1.7-2.1-0.9
			c-1,0.7-1,1.3-1,1.8s-0.5,0.8-1.1,0.7c-0.7-0.1-1.6,0.1-0.7,1c0.9,1,1.4,1.7,1.1,2.6c-0.4,0.9-1.4,1.2-1.4,1.2s0.2-1.9-1-1.8
			c-1.1,0-1.5,0.5-1.7,1.1c-0.2,0.7-0.1,1.5-0.1,1.5s-1.6,0.3-2-0.4c-0.4-0.7-0.1-1.7,0.5-2.4c0.6-0.6,0.6-1.2,0.3-1.3
			c-0.3-0.1-1.1,0.4-1.7,1.1c-0.6,0.7-1.6,0.5-1.6,0.5s0.3,1.2-0.7,1.9c-1,0.6-1.4-0.2-2-0.3c-0.6-0.2-1-0.8-0.6-1.2
			c0.4-0.4,1.3-0.8,1.1-1.6c-0.2-0.9-1-1.5-1.5-1.5c-0.5-0.1-1.1-0.1-1.1-0.1s0-1.2,0.8-1.8c0.7-0.6,1.3-1.1,1.3-1.1s-0.3-1-0.3-1.4
			c0.1-0.5,0.5-0.7,1.2-0.9c0.7-0.2,1.1-0.7,1.3-1.4c0.2-0.7,0-1.6,0-1.6s1.5-0.3,2,0.2c0.6,0.5,0.5,1.2,0.5,2
			c-0.1,0.8-0.1,1.4-0.1,1.4s1.6,0.1,2.1-0.2c0.5-0.3,0.8-1.5,1.3-2c0.5-0.6,1.3-1.1,1.1-2.2c-0.1-1-0.4-1.8-1.3-2.4
			c-1-0.7-1.8-1.4-2-1.8s-0.6-0.5-1-0.1s-1.3,1.7-3.3,1.5s-2.8-1.5-2.8-1.5s1.3-0.7,1.5-1.5s0.3-2.2-0.3-3.8
			c-0.6-1.5-0.7-2.3-0.7-4.1c-0.1-1.9-0.1-3-0.1-3s-5.2,0-8.4,1.3c-3.2,1.4-3.9,2.8-3.9,3.9s0.4,2.5,1.8,3.8
			c1.5,1.3,1.8,1.8,1.8,2.9c-0.1,1.1-0.2,1.8-1.2,1.8s-1.5,0.4-1.9,0.9s-1.3,1.2-1.6,1.4c-0.3,0.1-0.3,0.2-0.5,0.7s-0.8,0.8-0.8,0.8
			s-0.9-1.3-1.8-1.1c-0.9,0.2-1.3,0.3-1.2,0.9c0.1,0.5,0.2,1,0.2,1s-1.2-0.2-2.2-0.1s-1.7,0.5-2.1,0.4c-0.4,0-0.8,0.3-0.6,1.1
			c0.2,0.7,0.7,1.4,0.4,2.3s-1.1,1-1.8,0.9s-1.6-0.2-1.6-0.2s1.2-1,0.4-1.9c-0.8-0.8-1.9-0.3-2.3,0.1c-0.4,0.4-1,0.9-1,0.9
			s-0.9-0.5-0.6-1.5c0.2-1.1,0.6-1.6,1.4-2.1c0.8-0.5,1.1-1.3,0.3-1.3s-2.6,0.4-3.7,0.3c-1.1-0.1-1.7-0.8-1.9-1s-0.1-0.5-0.1-0.5
			s1.4,0.2,1.9-0.7c0.5-1,0.6-1.3-0.1-1.9c-0.7-0.6-1.1-0.9-1.1-0.9s0.5-1.2,1.5-1.2s1.6,0.9,2.6,1.1c1,0.3,1.6,0.1,1.6,0.1
			s0.4-0.9,0-1.3s-1.2,0-1.8-0.3c-0.6-0.4-1.7-1.7-1.1-2.5c0.5-0.8,1.3-0.8,1.3-0.8s1.1,1.5,1.9,1c0.8-0.5,1.6-1.2,1.6-1.5
			c0.1-0.2,0.3-0.5,0.3-0.5s1.4,0,1.7,1.5s-0.1,3.7-0.1,3.7s1.1,0.2,2.3-0.2c1.3-0.4,3-1,3.3-1.3c0.3-0.4,0.2-1.3-0.6-1.9
			s-3.2-2.3-3.8-3.6c-0.6-1.3-1-3.5-2.3-4.2c-1.4-0.7-2.6-0.6-3.8-0.5c-1.2,0-3.6-0.8-4.2-1.9c-0.6-1.2-0.5-1.7-0.5-1.7
			s1.4,0.9,2.1,0.5c0.6-0.4,1.3-1.5,2.9-1.9c1.5-0.4,4.1-0.1,4.1-0.1s0.8-2.3,4.5-3.4c3.7-1.2,7.7-0.7,10.3-0.1s3.7,0.7,4.5,0.7
			s2.1-0.3,2.1-0.3s-2.7-3-4.5-4.9c-1.7-1.9-3.5-3.7-3.5-3.7s-1,0.1-2.6,0.6c-1.6,0.5-3.3,0.3-5.3,0.2c-2-0.1-3.2-0.3-4.2,0.3
			c-1.1,0.6-1.6,1-2,1.6c-0.4,0.5-1.9-0.6-1.4-1.8c0.4-1.2,1.1-1.8,1.1-1.8s-3,0.3-4.7,0.5s-3.8-0.1-3.3,2.2c0.5,2.4,2.4,2.4,3,2.5
			s0.8,0.8,0.7,1.1c-0.1,0.3-0.1,0.4-0.1,0.4s-1.2-0.3-2,0.2s-0.8,1.1-0.8,1.1s-0.9,0.2-1.2-0.4s0.1-1.2,0.4-1.5
			c0.3-0.4,0.1-0.5-0.3-0.5c-0.3,0-1.2-0.1-1.3-0.6c-0.1-0.7,0.6-1.5,0-1.8s-1.6,0-1.8,0.8c-0.2,0.7-0.7,2-1.1,2
			c-0.4,0-1.2-0.3-1.4-0.1c-0.1,0.3-0.2,1.2-0.1,1.8c0.1,0.6-0.4,1.2-0.9,1.1s-0.7-0.8-0.7-0.8s0.4-1.1,0.1-1.8
			c-0.3-0.7-1.2-0.7-1.2-0.7s-0.4-0.9,0-1.2c0.4-0.3,1.1,0.1,1.8-0.2c0.6-0.2,2.5-1.7,3-2.1c0.6-0.4,1-1,0.7-1.1s-1.4,0.5-2.2,0.3
			c-0.9-0.2-1.1-0.7-1.5-0.8s-0.8,0.3-1,0.7c-0.2,0.5-1.1,0.6-1.6,0.1c-0.3-0.3-0.5-1.3-0.5-1.3s0.7-0.3,0.6-1.2
			c-0.1-0.9-0.6-1.3-0.3-1.6s0.6-0.5,1-0.3s0.7,0.8,1.2,1.3s0.9,0.4,1.3,0.1c0.4-0.3,0.3-1.2-0.1-1.4c-0.5-0.2-1.3-0.7-1-1.1
			c0.3-0.4,0.8-0.3,0.8-0.8c0.1-0.5-0.3-1.3-0.9-1.5c-0.5-0.2-1-0.9-0.7-1.3c0.2-0.4,1.1-0.4,1.1-0.4s1.2,0.2,2,0.2s0.9-0.1,1.4,0
			c0.4,0.2,0.7,1,0.3,1.5s-1.2,1.1-1,1.8s1.1,3,1.1,3s2.8-0.3,5.1-0.6c2.4-0.3,5.7-1,5.7-1s-1.3-1.1-1.4-2c-0.1-0.9-0.1-1.5,0.3-1.5
			c0.4,0,0.7,0.5,1.6,0.7c0.9,0.1,2.3,0.1,3.4,0c1.4-0.2,2-0.8,2-0.8s-1.6-1.8-1.9-3c-0.3-1.2-0.1-4.4-0.1-4.4s-2-2.4-3.4-3.5
			s-2.2-1.4-3.1-1.2c-1,0.2-1.2,0.8-1.5,0.3c-0.2-0.4-0.3-1.5,0.5-2.4c0.8-0.8,2.7-1.8,2.7-1.8S194.6,230.2,193.8,228.8"/>
		<g>
			<path class="st6" d="M209.3,207.6c-0.9-0.2-1.6,0-1.6,0s-0.8,0.1-1,0.4c-0.2,0.2-0.5,0.5-0.7,0.9c-0.1,0.4-0.1,1-0.1,1
				s-0.5,0.1-0.6,0.2c-0.2,0.1-2.5,0.2-3,1.2c-0.4,1-0.2,3.5,0.4,3.9c0.6,0.4,0.5,0.1,0.7,0c0.1-0.1,0.6-0.8,1.4-0.7
				c0.8,0.1,2,0.6,2.8,0.7c0.7,0,1.9-0.7,3.2-0.3c1.2,0.4,3.2,2,3.8,3.4c0.7,1.4,0.6,2.1,0.4,2.5c-0.1,0.3-0.5,0.5-1.2,0.5
				s-3.3-0.8-5.7,0.1c-2.4,0.9-1.8,0.7-1.9,0.9c-0.2,0.2,0,0.5,0.1,0.5c0.2,0.1,3.2,0.2,3.7,0.1c0.6-0.1,3.2,0.1,3.9,0
				s1.9,0.1,2.3-1c0.4-1.1,0-2.5-0.1-2.8c-0.1-0.4-0.9-2.3-1.9-3.3c-1-1.1-2.2-2.6-2.6-4.1c-0.4-1.6-0.4-1.7-0.7-2.5
				C210.4,207.9,209.3,207.6,209.3,207.6z M182.7,225.4c0,0,0,0.3-0.1,0.6s-0.1,0.6-0.5,0.7c-0.4,0.2-0.9,0.3-1.2,0.3
				s-0.5,0.2-0.4,0.3c0.1,0.2,0.5,0.4,0.8,0.5c0.2,0.1,1.4,0.2,1.7,0.2c0.2,0,1.2-0.2,1.4-0.3c0.3-0.1,0.3,0,0.6-0.3
				c0.2-0.4-0.5-1-0.7-1.1C183.9,226,182.7,225.4,182.7,225.4z M179.9,213.4c0,0-0.2-0.4-0.9-0.4c-0.7-0.1-1.2-0.3-1.5,0.1
				c-0.3,0.3-0.9,1-0.9,1.2c0,0.3,0.1,0.4,0.5,0.5s0.6,0,1,0c0.5,0,1,0.2,1,0.2s0.5-0.2,0.6-0.5S179.9,213.4,179.9,213.4z
				 M182.5,208.7c0,0,0.1-0.2,0.2-0.4c0-0.2,0.2-0.5,0.1-0.7c-0.2-0.2-0.5-0.2-0.8-0.2s-0.5,0.1-0.6-0.2c-0.1-0.2,0-0.4,0.2-0.6
				c0.2-0.1,0.7-0.4,0.9-0.4c0.2-0.1,0.3-0.3,0.8-0.2c0.6,0,0.7,0,1,0.3c0.3,0.2,0.3,0.2,0.6,0.6c0.3,0.5,0.3,0.7,0.3,0.7l-0.6,1
				c0,0-0.1,0.4-0.4,0.5c-0.3,0.1-0.5,0-0.7,0s-0.5-0.2-0.7-0.2C182.6,208.9,182.5,208.7,182.5,208.7z M191.3,209.6
				c0,0,0.3,0,0.8-0.1c0.6-0.1,0.8,0.1,0.9-0.4c0.1-0.5-0.6-1-0.5-1.3s0.3-0.3,0.7,0s0.7,0.6,0.9,1.1s0.4,1.3,0.4,1.7s0,0.6-0.1,1.1
				c-0.1,0.4-0.3,0.6-0.3,0.6s-0.5,0-1.2-0.3c-0.7-0.4-0.6-0.1-0.9-0.7C191.7,210.6,191.3,209.6,191.3,209.6z M189.4,262.4
				c0.1,0,1.3,0.5,1.1,1.1s-0.6,1.1-0.6,1.3c0,0.2,1,0.1,1.7-0.2c0.7-0.3,1.4-1,1.5-1.8c0-0.8-0.5-1.8-0.5-1.8s-1.4,0-1.9,0.2
				C190.1,261.4,189.3,262.4,189.4,262.4L189.4,262.4z M180,260c0,0-1.3,0.2-1.5,1.1c-0.1,0.8-0.1,1.7,0.1,2.3
				c0.2,0.6,0.8,0.4,1-0.2c0.1-0.6,0.2-1,0.6-1.1c0.4,0,0.8,0.1,0.8,0.1s0.5-0.5,0.4-1.1s-0.4-1-0.7-1.1C180.4,260,180,260,180,260z
				 M178.9,251.9c0,0-1.2,0-1.6,0.5c-0.4,0.5-0.8,1.7-0.6,1.9s2.1,0.2,2.1,0.2s0.7-0.7,0.6-1C179.5,253.2,178.9,251.9,178.9,251.9z
				 M183.8,246.4c0,0,0.1-0.8-0.5-1.4c-0.6-0.6-1.3-0.7-1.8-0.9c-0.6-0.1-0.9,0.1-0.3,0.7c0.6,0.7,0.5,1.4,0.5,1.4s0.7,0.1,1.2,0.2
				C183.3,246.5,183.8,246.4,183.8,246.4z M203.5,290.6c0,0,0.7,0.5,0.6,1.1c-0.1,0.7-0.5,1.3-0.2,1.5s1.3-0.5,1.8-1
				c0.5-0.4,0.8-1.1,0.7-1.7c0-0.6-0.4-1.4-1-1.6s-1.5-0.3-1.7-0.1c-0.2,0.2-0.5,0.4-0.4,0.7C203.5,290,203.5,290.6,203.5,290.6z
				 M193,293.9c0,0-0.4,1.3,0.1,2.2c0.5,1,1.4,1.5,1.8,1.6c0.4,0.1,0.6-0.3,0.4-0.9c-0.1-0.6-0.5-0.9-0.2-1.3s0.7-0.6,0.7-0.6
				s0.7-0.8,0.6-1.3c-0.1-0.5-0.6-1-1.2-0.9c-0.6,0.1-1.6,0.5-1.7,0.8C193.4,293.7,193,293.9,193,293.9L193,293.9z M189,284.6
				c0,0-1.1,0.2-1.7,0.6c-0.6,0.5-1,1.1-1.3,2s0,1.7,0.1,2.2s0.7-0.1,1-0.7s0.4-0.7,0.9-0.7s1,0.2,1.6,0c0.5-0.2,0.9-0.8,1-1.3
				c0.2-0.5,0.2-0.7,0-0.9C190.3,285.6,189,284.6,189,284.6z M196.7,278.8c0,0-1-1-2.1-1.2s-2.1-0.2-2.7,0.1
				c-0.6,0.3-1.1,0.8-0.3,0.9s1.2,0.2,1.4,0.6c0.1,0.4,0.5,0.9,0.6,1.2c0.2,0.3,0.9,0.5,1.2,0.4s1-0.7,1.4-1.1
				C196.4,279.3,196.7,278.8,196.7,278.8L196.7,278.8z M234.2,297.7c0,0,1-0.3,1.3,0.3c0.3,0.6,0.4,1.7,0.4,2.1s0.6,0.1,1-0.6
				s0.7-1.2,0.7-1.8c0.1-0.6,0-1.3,0-1.3s-1-1-1.4-1.2s-1.2,0.3-1.3,0.6c-0.2,0.3-0.5,0.7-0.5,1.1S234.2,297.7,234.2,297.7
				L234.2,297.7z M229.4,303.6c0,0,0.5,1.1,1.3,1.4s2,0,2.4-0.1c0.5-0.1,0-0.7-0.4-0.8c-0.4-0.1-0.7-0.6-0.6-0.8
				c0.1-0.2,0.5-0.7,0.3-1.5c-0.3-0.7-0.7-0.9-1.4-0.8c-0.7,0.2-1,0.4-1.2,0.9C229.5,302.4,229.4,303.6,229.4,303.6L229.4,303.6z
				 M220.3,298.1c0,0-1.3,0.2-1.5,1.2s-0.3,1.9-0.1,2.6c0.1,0.8,0.8,1.6,1,0.9s0.3-1.2,0.7-1.4c0.4-0.2,1.2,0,1.2,0s1.3-0.7,1.3-1.3
				c0-0.6-0.5-1.4-1-1.7C221.4,298.3,220.3,298.1,220.3,298.1L220.3,298.1z M224.5,290.1c0,0-1.1-0.7-2.1-0.6s-1.8,0.7-2,1
				s-0.2,0.6,0.8,0.5s1.2,0,1.5,0.5s0.4,1.5,0.4,1.5s1.1-0.3,1.3-1.3C224.5,290.6,224.5,290.1,224.5,290.1L224.5,290.1z"/>
		</g>
		<path class="st5" d="M197.9,216c-0.2-0.1-1.2,0.1-1.5,1.2c-0.3,1-0.2,2.6,1.5,3.1c3,0.9,4.6-0.1,7-0.3c2.5-0.2,3.3-0.3,5.1-0.4
			c2.5-0.1,3.3-0.2,3.9,0c0.5,0.2,1,0.4,1,0.4s-0.2-1.6-0.7-2.2c-0.2-0.2-1-0.4-1-0.4s-2.3-0.1-4.4,0.4c-2.1,0.4-5.5,0.9-7.4,0.8
			c-1.9-0.1-3.1-0.6-3.2-1.1c-0.1-0.8,0.4-1.2,0.2-1.4C198.3,215.9,198.1,216.1,197.9,216"/>
		<path class="st7" d="M211.6,208.6c0,0,0.8,2.1,1.2,2.4c0.4,0.3,1.4,0.4,2,0.2s1.7-0.9,1.7-0.9s-1-1-1.3-1.2
			c-0.4-0.2-1.1-0.5-1.7-0.4C212.8,208.6,211.6,208.6,211.6,208.6"/>
		<g>
			<path class="st8" d="M194.7,284.6c0,0,0.6-0.3,1.7-0.6c0.9-0.2,1.7-0.3,2-0.2"/>
			<path class="st8" d="M238.1,230.5c0,0,4.2-3.4,7.5-6.7c3.3-3.4,5-5.6,7.2-9.2c2.1-3.5,2.7-6.1,2.7-6.1"/>
			<path class="st8" d="M204.1,233.1c0,0-0.9,1.4-1.3,2.5c-0.4,1.1-1,1.2-1.5,2.2s-1.2,2.6-1.2,2.6"/>
			<path class="st8" d="M194.8,232c0,0,0.5-0.2,1.1-0.3s1.2,0.4,1.2,0.4s-0.5-2.1-0.3-3.1s0.4-1.9,0.4-1.9"/>
		</g>
		<g>
			<path class="st9" d="M221.2,213c-0.1,0.2-0.2,0.3-0.2,0.5c0,0.6,0.7,0.8,0.7,1.4c0,0.4-0.5,0.4-0.5,0.8c0,0.8,0.6,1.1,0.6,1.9
				c0,0.4-0.5,0.4-0.8,0.5c0.1,0.7,0,1.1,0,1.8c-0.3,0-0.5,0-0.8,0c0,0.4-0.1,0.5-0.1,0.9c-0.4,0-0.6,0-1.1,0c0,0.3,0,0.5,0,0.8
				l-0.7,0.4c-0.9-0.5-0.3-2.1-1.1-2.8l-0.2-0.1l0.2,1.9c-0.2,0.6-0.4,0.8-0.5,1.4c-0.4,0-0.9,0.1-1,0.6c0.3,0.1,0.4,0.2,0.7,0.2
				c0.4,0,0.6-0.3,0.9-0.3c0.3,0,0.3,0.2,0.6,0.2s0.3-0.2,0.5-0.4c0.1,0.1,0.2,0.2,0.4,0.2c0.8,0,1.4-0.8,1.4-1.6
				c0-0.5,0.8-0.3,1.2-0.5c0.6-0.4,0.3-1,0.3-1.7c0.3,0,0.4,0,0.7-0.1c0.1-0.1,0.2-0.3,0.2-0.5c0-0.3-0.2-0.4-0.2-0.7
				c0-0.9,0.5-1.4,0.5-2.3c0-0.2-0.1-0.3-0.1-0.5C222.4,214.2,221.8,213.7,221.2,213 M217.8,207.8c0.3-0.4,0.4-0.8,0.7-1.2
				c0.8-1,1.7-1.3,3-1.6c0.7-0.1,1.1-0.5,1.8-0.5l0.2-0.1c-0.4,0.7-1.1,0.7-1.8,1.1l0.2,0.2c-0.4,0.3-0.8,0.2-1.4,0.2
				c0,0.1-0.1,0.2-0.1,0.4s0.3,0.2,0.4,0.3c-0.5,0.5-1.8-0.1-1.8,0.6c0,0.3,0.4,0.4,0.6,0.6c-0.2,0.1-0.3,0.1-0.5,0.2
				c0,0.1,0.1,0.1,0.1,0.2c0,0.1-0.2-0.1-0.2-0.1c0.1,0.2,0.2,0.3,0.3,0.5c-0.1,0-0.1,0.1-0.2,0.1
				C218.6,208.7,218.3,208.1,217.8,207.8 M207.2,209.8l0.8-0.7l0.4-0.3c0,0,0.7,0.1,0.9,0.6c0.4,0.8,0.3,1.4,0.3,1.4
				s-0.6-0.7-1.4-0.9C207.3,209.7,207.2,209.8,207.2,209.8"/>
		</g>
		<g>
			<path class="st8" d="M231.1,255.7c0,0,0.8,1.5,1,2 M229.6,244.1l1.1,0.4 M228.7,244.8c0,0,0.7,0.6,1.2,0.7 M227.3,244.8
				c0,0,1.3,0.2,2-0.3s0.4-1.3-0.1-1.4 M229.1,246.5l1.9,1.6 M226.5,248.1c0,0,1.3,1.6,1.7,1.7 M226.7,246.4c0,0,1,0.7,1.2,0.8
				 M226.6,244.3c0,0,0.9,0.2,1,0.8c0.1,0.4-0.7,0.7-0.7,0.7 M224.6,251.2c0,0-0.2-1.1-0.6-1.5c-0.4-0.5-1-1.5-1-1.5s1.1,2,2.5,1.8
				s0.8-2.6,0.8-2.6s1.5,1.7,2.7,0.7c1.3-1-1.3-2.7-1.3-2.7s3.3,2.2,3.9,0.8c0.6-1.4-0.6-1.6-0.6-1.6 M230,249.1c0,0,1,1,1.7,1.2
				c0.8,0.2,1.1,0.7,1.2,0.9 M233.8,249.7l1.2,0.8 M229.6,250.9c0,0,1.4,1.7,3.4,1.4s1.8-1.3,1.5-1.9c-0.3-0.6-2.1-1.6-2.1-1.6
				 M226.9,251.2l1.8,1.8 M225.9,252.9c0,0,3.4,2.6,4.4,1.3c0.8-1-0.6-3.1-0.6-3.1 M222.6,253.9c0,0,2.1,2.4,3.3,1.5s0-2.7,0-2.7
				 M223.2,252.7c0,0,0.4,0.7,1,1c0.6,0.4,0.6,0.4,0.6,0.4 M221.2,250.4c0,0,0.7,0.5,0.8,0.7 M220.6,251.5c0,0,0.9,1.9,2,1.5
				s0.7-1.9,0.7-1.9s0.6,2.5,2.6,1.4c1.9-1.1,0.1-2.6,0.1-2.6s1.8,2.2,3.5,1s-0.8-3-0.8-3s2.7,2.3,3.6,0.8c0.9-1.5-0.4-2.4-0.4-2.4
				 M220,254.7c0,0,1.2,1.2,2.2,0.5c0.9-0.7,0.5-1.7,0.1-2.1 M230.1,254.1c0,0,1,1.6,1.7,2.3c0.5,0.5,0.9,1,0.9,1 M239.5,253.2
				c0,0-1.2-0.4-1.8-0.9s-1.2-1.4-1.8-1.5s-1.1-0.3-1.1-0.3 M240.7,246.2l2.7-0.2 M236.3,246.4c0,0,1.7,0.3,2,2s0.2,1.8-0.6,2
				c-0.8,0.3-2.9,0-2.9,0 M237.5,242.9c0,0,2.6,0,3.5,1s0.8,1.2,0.5,1.8c-0.3,0.5-1,0.7-1.8,0.7s-3.6-0.1-3.4,0 M237.2,238.8
				c0,0,5.3-1,5.2,1.4s-4.3,2.8-4.3,2.8h-0.6 M238.8,234c0,0,2.1,0.1,2,1.5c-0.2,1.4-1.1,1.4-1.8,2s-1.6,1-1.6,1l-0.3,0.1
				 M234.4,247.3l2.2,1.2 M235.7,244.3c0.5,0,3.9,0.6,4.3,0.3 M235.7,240.5c0,0,2.7,1.5,4.4-0.1 M234.9,236.7c0.2,0,2.9-0.7,2.9-0.7
				 M230.1,240.2c0,0,0.9,0.7,1.7,0.3 M228.2,241.1l0.7,0.5 M232.6,244.7c0,0,1,1.3,2,0.8 M230,243.1l2,0.4 M232.4,241.9
				c0,0,1.2,1.4,3.3,0.8 M232,238.9c0,0,2.2,0.4,3.1-0.1 M227.9,239.4l1,0.2 M228.2,238.4c0,0,1.9-0.2,2.2-0.5 M234,237
				c0,0,2.7,0.3,3.1,1.1c0.4,0.8,0.3,1.4-0.4,1.8c-0.6,0.4-1.6,0.7-2,0.7 M235,244.2c0,0,1.5,1,1,2.2s-1.9,1-2.8,0.6
				c-0.9-0.4-1.7-0.8-1.7-0.8 M233.1,240.5c0,0,3.4-0.1,4,1.7c0.4,1-0.2,1.8-1,2.1s-3-0.5-3-0.5 M231.6,241.8
				c0.1,0.1,2.1,0.8,1.5,2.2c-0.7,1.4-2.7,0.4-2.7,0.4 M231.2,239c0,0,1.9,0.4,1.8,1.7c-0.1,1.4-2.6,1.1-2.6,1.1 M229.1,240.7
				c0,0,1.5,0.4,1.2,1.7c-0.4,1.2-2.1,0.5-2.1,0.5 M228,238.5c0,0,2.4,0,2.1,1.5c-0.2,1-1.7,0.7-1.7,0.7 M230.6,236.2
				c0,0,1.8-0.1,1.7,1.5c-0.2,2.1-2.8,1.2-2.8,1.2 M233.6,234.9c0,0-2.1,1-3.1,1.3s-1.9,0.5-1.9,0.5 M235.6,230.9c0,0-3.3,2.4-5.5,3
				c-0.2,0.1,2.4-1.5,3.5-1.1s1.9,0.7,1.9,1.5s-0.4,1.5-0.8,2.1s-1.6,0.9-1.8,1 M233.2,229.7c0,0,2.6-1.1,3.7-0.5
				c1.1,0.6,1.5,1.5,1.1,2.4s-2.2,1.9-2.6,3 M234.8,225.7c0,0,0.7,0.4,0.2,1.2s-0.6,1.5-1.3,2.3s-1.2,1.2-1.5,1.7s-0.3,0.5-0.3,0.5
				 M244.8,238.6c0,0,2.4-1.3,3.4-1.7s2-0.8,2-0.8 M215.1,242.6c0,0,2-3.8,3.4-5.2s1-1,1-1s-1-0.4-0.6-1.9s0.8-2.1,1.4-3
				c0.5-0.9,0.7-1.9,0.7-1.9 M249.2,235.9c0,0-2.4,1.6-3.8,2.4c-1.4,0.8-2.7,1.5-3.3,1.5 M242.6,231.6c0,0,2-1.7,2.9-2.1
				 M245.4,228.9c0,0-2.1,2.3-3.4,3.3c-1.4,1-2.5,1.8-3.6,1.9c-1.1,0.1-2.2-0.2-2.2-0.2 M247.2,215c0,0-1.3,2.2-2.2,3.1
				c-1,0.9-3.3,3-3.6,3.6c-0.3,0.5-2.4,2.4-2.9,3.1c-0.4,0.8-0.7,1.1-1.2,1.7c-0.5,0.6-1.5,1.1-1.5,1.1 M246.3,215.2
				c0,0-1.2,2.4-2.1,3.4c-0.9,0.9-3.3,3.3-4.3,4.5s-1.2,1.6-2.4,3c-0.9,1-1.5,1.4-2.1,1.6c-0.6,0.2-1.1,0.9-1.1,0.9 M233.5,225.5
				c0,0,2.5,0.2,3.3,0.2s1.3-0.2,1.3-0.2 M234.8,224c0,0,1.2-0.1,2.1,0c0.9,0.1,2.5-0.2,2.5-0.2 M236,223c0,0,1.6-0.3,2.5-0.2
				s2-0.2,2-0.2 M237.3,221.8c0,0,2.1,0.1,3-0.2s1.8-0.8,1.8-0.8 M238.6,220.4c0,0,1.4,0.1,2.4-0.1c1-0.3,2.4-0.8,2.4-0.8
				 M239.7,218.9c0,0,1.1,0.2,1.9-0.1c0.8-0.3,2.5-1.5,2.5-1.5 M240.7,217.6c0,0,1.6-0.5,2.1-0.7s1.1-0.7,1.1-0.7 M241.9,215.8
				c0,0,1.8-0.4,2.3-0.7s0.9-0.7,0.9-0.7 M242.8,214.1c0,0,2.5-1,2.8-1.3 M243.8,211.7c0,0,1.9-0.8,2.2-1.2 M232.8,225.4
				c0,0,4.2-2.8,6.4-5.7s2.9-4,3.9-6.9c1-2.8,2.3-6.8,2.4-7.6c0.2-1.3,0.5-0.8,0.1,0.7s-1.2,3.9-1.8,5.5c-0.5,1.6-2.7,5.5-2.7,5.5
				 M230.2,228.6c0,0,1,0.3,1.5,0.1s1.1-0.5,1.1-0.5 M231.2,227.1c0,0,0.5-0.1,0.5,0.2c0,0.2-0.8,0.4-0.8,0.4 M227.9,226.5
				c0,0,1.6-0.9,2.5-0.5c0.8,0.5,0.7,1.1,0.8,1.3s-0.6,0.9-0.8,1.1c-0.2,0.2-0.7,0.5-0.7,0.5 M220.1,234c0,0,1.1,0,1.9-0.4
				c0.9-0.4,1.2-0.9,1.2-0.9 M227.5,228.7c0,0,1.5-0.2,2,0.3s0.4,0.9,0.2,1.7c-0.2,0.7-1,1.2-1,1.2 M225.2,228c0,0,2.5,0.2,2.4,0.8
				 M224.5,231.6c0,0,1.5-0.6,2.2-0.6s1.1-0.6,0.7-1.1c-0.4-0.5-0.3-1,0.5-1.4c0.8-0.5,1.2-1,1.2-1 M224.2,231.3
				c0,0,0.8,0.5,0.6,1.5s-0.3,1.2-1.1,1.6 M221.8,231.4c0,0,1.3,0.5,2.4-0.1c1.1-0.6,1.1-2.1,1.1-2.1 M221.9,228.2
				c0,0,0.5,1.1,1.6,1.3c1.2,0.1,1.7,0,1.8-0.6c0.2-0.6-0.6-1.5-0.6-1.5 M219.4,236.5c0,0,1.7-1.4,2.8-1.7c1.2-0.2,1.9-0.7,3.1-1.5
				c1.1-0.8,1.7-0.8,3.1-1.4c1.4-0.5,1.5-1,1.9-1.4s0.9-1.3,1.9-1.9c1-0.6,1.6-1.9,1.7-2.5c0.1-0.6-0.5-0.8-1.2-0.8
				c-0.8-0.1-1.5,0.1-1.5,0.1s1.1-1.6,2-2.2c0.9-0.7,1.2-1.5,1.2-1.5 M222,228.3c0,0,0.4,2.1-0.4,3.5c-0.8,1.4-1.8,2.1-1.5,2.9
				c0.3,0.8,0.4,0.8,0.4,0.8 M212.4,208.8c0,0,0.7,1.3,1.1,1.5c0.4,0.2,0.9-0.2,0.9-0.2s-1.3-0.3-1.3-1.2
				C213,208.5,212.4,208.8,212.4,208.8L212.4,208.8z M211.3,208.7c0,0,0.5,1.2,1,2c0.4,0.6,1.6,0.6,2.3,0.3c0.6-0.3,1.6-0.7,1.6-0.7
				 M210.3,208.4c0,0,1.2,0.4,2.2,0.3c1-0.1,1.8,0,2.2,0.4c0.5,0.4,1.1,1,2,1.4s1.5,0.3,1.5,0.3 M212.8,206.5c0,0,2-0.1,2.5,0.3
				c0.5,0.4,0.8,0.6,0.8,0.6l1.1-1.9 M187.3,213.7c0,0,0.5,1.8,0.9,2.7s1,2.4,1.2,2.9 M185.2,216.5c0,0,0.8,1.1,1,1.4 M182.6,211
				c0,0,1.2-0.1,1.6-0.1c0.4-0.1,0.6,0.9,0.8,1.4s0.5,1.4,0.5,1.4 M188.5,260.4c0,0,0.4-0.6,0.2-1s-0.3-0.4-0.3-0.4 M182.4,252.8
				c0,0,0.6-0.3,1.4-0.1c0.7,0.2,1.8,0.1,1.8,0.1 M200.1,231.9c0,0-1.8,1.8-2.1,2.7c-0.2,0.9-0.5,3-0.5,3 M201.1,232.8
				c0,0-1.9,1.7-2.1,2.6c-0.2,0.9-0.5,3.1-0.5,3.1 M202,233.8c0,0-1.6,1.6-1.9,2.5c-0.3,0.9-0.8,3.1-0.8,3.1 M221.9,295.5
				c0,0,1,0.8,2,0.4s2.7-2.3,2.7-2.3 M226.3,299c0,0-1.6-0.2-1.8,0.8s0.3,1.6,0.3,1.6 M233.7,294.5c0,0-1.2,0.4-1.5,1.6
				c-0.2,1,0.9,1.9,0.9,1.9 M237.1,293.5l0.8,1.1 M264.8,254.9c0,0,0.7,0.6,1,1.2s0.2,0.7,0.2,0.7 M270.7,257.8c0,0-1.7,1.7-2,2.7
				c-0.4,1.1-0.8,1.8-0.8,1.8 M270,255c0,0-0.8,1.4-1.8,2.9s-1.8,2.7-1.9,3.8c-0.1,1.1-0.3,2.2-0.3,2.2 M264.4,259.9
				c0,0-1.4,1.9-1.5,3.3s0.4,2.8,0.4,2.8 M263.9,258.3c0,0-0.8,1.8-1.5,3.1c-0.6,1.2-1.1,1.5-1,2.8c0.1,1.2,0.5,2.5,0.5,2.5
				 M222.2,221.6c0,0-0.5,2.5-0.1,4.2s1.5,2,1.5,2 M240.2,235.8c0,0,3.7-0.8,9.3-4.9c5.6-4.1,12.5-11.7,12.5-11.7 M241.8,241.3
				c0,0,4.6-0.2,8.6-1.7c4.6-1.7,11.3-6.5,11.3-6.5 M251.8,249.1c0,0-2.4,2.3-5,2.5c-2.5,0.2-5-1.7-5.9-2c-0.9-0.4-2.7-0.9-2.7-0.9
				 M227.7,254.3c0,0,2.7,4.2,2.7,5.9c0.1,1.7-1,4.6-1,4.6 M232.8,252.5c0,0,5.2,5.6,7.1,7.3c1.9,1.7,5.4,4.9,7.1,6.1
				c2.4,1.7,5.3,1.5,5.3,1.5 M235.7,284.3c0,0,0.5,2.2,1,2.7s1,1.2,1.3,1.4c0.3,0.2,1.1,0.3,1.1,0.3s-1.2,1.3-1.3,1.9
				c0,0.6,0.3,1.1,0.6,1.1s-0.4,0.6-0.7,0.7s-2,0.1-2,0.1 M220.1,260.7c0,0,0.8,0.9,0.8,1.7c0,0.8,0,1.7,0,2.8c0,1.1-0.3,3.4-0.2,5
				c0.1,1.5,0.2,2.3,0.2,2.3 M203,245.1l2.5-0.5 M203.6,246.4c0,0-1.2-2.1-1-3.9c0.3-1.8,0.4-2.7,2.1-3.9s4.5-2.2,4.5-2.2
				 M202,247.5c0,0,1.1-1.1,1.7-1.1c0.7,0,2.4-0.1,2.4-0.1 M196.4,254.3c0.2,0,1.1-0.7,2-1s1.1-0.2,1.1-0.2l-0.1-0.4
				c0,0-0.9,0.2-1.3,0c-0.5-0.3-1.4-1.6-2-1.6 M197.5,257.2c0.2-0.1,1.5-1.6,3-2.1s3.1-0.2,4.3-0.3c1.7-0.1,2.5-1,3.4-1.3
				s1.8-0.2,1.8-0.2 M214.3,246.9c0,0,0.1,1.7-0.2,2.5s-0.7,3.2-0.7,3.2 M212.7,247.1c0,0,0.5,1.1,0.3,2s-0.7,1.9-0.7,2.4
				s0.1,1,0.1,1 M210.9,255.4c0,0,2.1-0.5,3-0.7c0.8-0.2,1.1-1.1,0.5-1.5s-1.8-0.6-2.7-0.8c-0.9-0.1-1.5-0.8-1.1-1.7c0.4-1,1-3,1-3
				 M232.1,265.2c0,0-1.9,2-3.4,1.5c-1.5-0.6-1.8-1.1-1.6-2.5s0.7-2.2,0.4-3.3c-0.2-0.9-1.4-2.1-2.1-2.4c-0.7-0.3-3.7-1.1-4.3-1.7
				c-0.7-0.6-0.9-1.7-1.4-2c-0.5-0.2-2.1-0.3-2.8-1.2s-1.7-2.6-1.7-2.6 M235.1,273.5c0,0-2.3-2.1-2.9-3c-0.6-0.9-0.8-1.2-0.8-1.2
				s1.2,2.5,1.4,3.6c0.3,1.1,0.3,2.8,0.3,3.4c0,0.7-0.2,1.7-0.2,1.7 M234.9,278.9c0,0,0.2,2.6,0.4,3.7c0.1,0.6,0.1,0.7,0.1,0.7
				 M227.1,281.5c0,0-0.1,1.7,0,2.2s0.4,1,0.4,1 M225.6,281.3c0,0,0.4,2.7,0.4,3s-0.2,1.4-0.5,1.5 M224.1,279.1c0,0,0.2,4.8,0,5.5
				s-0.8,1.8-0.8,1.8 M209.9,273.3c0,0,2.9-1.5,5.3-1.7c2.3-0.2,5.7-0.3,5.7-0.3 M210.3,271.1c0,0,2.8-1,4.4-1s3.9-0.1,4.5-0.1
				c0.5,0,1.6,0,1.6,0 M210.7,269.1c0,0,1.8-0.5,2.7-0.5c0.8,0,4.1,0,5.3,0.1c1.2,0,2.1,0,2.1,0 M213.2,267c0,0,6.5-0.2,7.3-0.1
				 M218.8,263.9l1.8,1.6v0.1l-5-0.1 M188.9,270.1c0,0,0.9,1.1,2.2,0.9c1.3-0.3,1.8-1.2,3.2-1.7s2.1-0.4,2.8,0
				c1,0.5,1.1,0.6,1.5,0.7 M194,271.2c0,0,1.7-0.9,3.1-0.6c1.6,0.4,2.4,1.1,2.4,1.1 M195.8,272.3c0,0,0.6-0.4,1.3-0.4
				c1.2,0.1,1.9,0.5,2.5,1.3c0.5,0.8,0.2,2.3,1.1,2.7c0.8,0.4,1.1,0.1,1.1,0.1 M206.4,279.6c0,0,0,1,0.9,1.6s1.6,1.5,1.5,2.1
				s-0.7,1.6-0.9,1.8c-0.2,0.2-0.6,0.7-0.6,0.7 M205.9,287.2c0,0,0.7,0.6,0.9,0.9s0.3,0.8,0.3,0.8 M201.7,287.8c0,0-0.9,0.2-1.1,1
				c-0.2,0.9,0.5,1.8,0.5,1.8 M191.4,289.5c0,0-0.6-1.4,0-2s2-0.6,2.9-0.4s1.8,0.1,1.8,0.1 M197.6,216c-0.2-0.1-1.2,0.1-1.5,1.2
				c-0.3,1-0.2,2.6,1.5,3.1c3,0.9,4.6-0.1,7-0.3c2.5-0.2,3.3-0.3,5.1-0.4c2.5-0.1,3.3-0.2,3.9,0c0.5,0.2,1,0.4,1,0.4
				s-0.2-1.6-0.7-2.2c-0.2-0.2-1-0.4-1-0.4s-2.3-0.1-4.4,0.4c-2.1,0.4-5.5,0.9-7.4,0.8c-1.9-0.1-3.1-0.6-3.2-1.1
				c-0.1-0.8,0.4-1.2,0.2-1.4C198,215.9,197.8,216.1,197.6,216L197.6,216z"/>
		</g>
	</g>
</g>
<g>
	<path id="path2658" d="M74.1,73.7c-16.6,0.6-22.9,2.6-25.7,3.7c-3.2-0.7-9.8,0.9-9.8,0.9S33,79,30.9,81.7c-6.7-1.5-6.6,0.6-6.6,0.6
		c1,13.1,10,13.3,10,13.3c7.5,1.6,14.3-1,14.3-1l2,10.8l-2.7,6.8l0.5,6.3l-11.3,12.9c13.2,2.7,16.2,12.6,16.2,12.6
		c7-6.7,14,0.8,14,0.8c7.8-5.7,15.5,0.5,15.5,0.5c5-8.5,16.2-4.3,16.2-4.3c0.9-11.4,11.1-11.4,11.1-11.4c-2-11,7.1-15.9,7.1-15.9
		s-12.1-5.2-14-18.7c14.9,3.9,19.4-5,19.4-5c1.7-2.1,2.2-10.1,2.2-10.1c-4.6,2.3-8.1,0.5-8.1,0.5c-6.9-4.6-16.5-3.9-16.5-3.9
		S82.2,73.5,74.1,73.7z"/>
	<path id="path2660" class="st10" d="M74.1,73.7c-16.6,0.6-22.9,2.6-25.7,3.7c-3.2-0.7-9.8,0.9-9.8,0.9S33,79,30.9,81.7
		c-6.7-1.5-6.6,0.6-6.6,0.6c1,13.1,10,13.3,10,13.3c7.5,1.6,14.3-1,14.3-1l2,10.8l-2.7,6.8l0.5,6.3l-11.3,12.9
		c13.2,2.7,16.2,12.6,16.2,12.6c7-6.7,14,0.8,14,0.8c7.8-5.7,15.5,0.5,15.5,0.5c5-8.5,16.2-4.3,16.2-4.3
		c0.9-11.4,11.1-11.4,11.1-11.4c-2-11,7.1-15.9,7.1-15.9s-12.1-5.2-14-18.7c14.9,3.9,19.4-5,19.4-5c1.7-2.1,2.2-10.1,2.2-10.1
		c-4.6,2.3-8.1,0.5-8.1,0.5c-6.9-4.6-16.5-3.9-16.5-3.9S82.2,73.5,74.1,73.7z"/>
	<path id="path2662" class="st11" d="M46.7,75.4c24.3-7.8,55.1-0.6,55.1-0.6 M46.3,65.7c28.7-7.7,55.9,0.4,55.9,0.4 M46.8,68.1
		c28.7-7.7,54.8,0.4,54.8,0.4 M48.4,72.6c25.8-6.2,51.7,0,51.7,0"/>
	<path id="path2664" class="st12" d="M76,65.9l3.9,0.2c1,0,1.8,0.8,1.8,1.7c0,0.9-0.9,1.6-1.9,1.5l-3.9-0.2c-1,0-1.8-0.8-1.8-1.7
		C74.2,66.5,75,65.9,76,65.9z M96.4,69.9c0-0.9,0.7-1.5,1.5-1.5s1.5,0.7,1.5,1.5s-0.7,1.5-1.5,1.5S96.4,70.7,96.4,69.9z M56.9,68.2
		c0-0.9,0.7-1.5,1.5-1.5s1.5,0.7,1.5,1.5s-0.7,1.5-1.5,1.5C57.6,69.8,56.9,69.1,56.9,68.2z M49.8,68.1l3.8-0.7
		c1-0.2,1.9,0.3,2.1,1.2v0.1c0.2,0.9-0.5,1.7-1.6,1.9l-3.8,0.7c-1,0.2-2-0.4-2.1-1.3l0,0C48.1,69.1,48.8,68.3,49.8,68.1z"/>
	<path id="path2666" class="st11" d="M44.6,55.7c1.8,1.2,3.8-0.1,3.8-0.1s-1.9,2.8-1.7,4.8c1,3.7,7.7,3.4,7.7,3.4
		c5.1-0.6,5.7-5.4,5.7-5.4c1,4.5,7.5,4,7.5,4c5.4-0.5,7.1-8.6,7.1-8.6s-3.5-2.8-6.8-3.3c3.7-0.4,5-3.1,5-3.1l1.7-4.8l1.7,4.8
		c0,0,1.3,2.7,5,3.1c-3.4,0.5-6.8,3.3-6.8,3.3s1.1,8,6.5,8.5c0,0,7.1,0.5,8.1-4c0,0,0.6,5.3,5.7,5.9c0,0,5.3,0.1,6.9-3.9
		c-0.4-3.2-0.8-4.9-0.8-4.9s2.3,0.4,4.1-0.8 M50.7,51.2l-1.3,2.1c0,0,1.5-3.7,4.4-1.9c1.8,3.4-1.4,4.2-1.4,4.2
		c2.4,1,2.1,4.3,0.1,4.9c-1.9,0.6-4.1-0.6-4.1-0.6s1.5,2.2,5.6,2c3-0.1,3.6-2.8,3.6-2.8c-5.1-2.1-1.5-6,0.6-4.5
		c-2.1-2.9,1.4-4,1.4-4c3.4,0.1,2.6,3.2,2.6,3.2c2.5-0.8,4.6,3.6,0.5,4.6c1.3,2.3,4.3,1.8,4.3,1.8c5-0.4,4.7-6.1,4.7-6.1
		s-1.8,5.2-5.3,2.9c-1.3-3,0.9-4.6,0.9-4.6c-3.2,1.5-4.6-0.6-4.4-2.9c1.2-3.7,4.3-1.1,4.3-1.1s-1.8-2.9,0.2-4.1
		c2.1-1.1,3.5,0.4,3.5,0.4s-2.3-2-0.6-3.7c2.1-1.3,3.2,0.6,3.2,0.6s-2.8-2.9,1.1-5.7c3.9,2.8,1,5.7,1,5.7s1-1.7,3.3-0.4
		c1.6,1.8-0.7,3.6-0.7,3.6s1.9-1.4,3.7-0.3c2,1.5,0,4.1,0,4.1s3.2-2.8,4.3,0.9c0.4,2.4-1.3,4.6-4.4,3.1c0,0,2.2,1.5,0.9,4.6
		c-3.3,2.1-5.3-2.9-5.3-2.9s-0.2,5.7,4.8,6c0,0,2.9,0.6,4.2-1.8c-4.1-0.9-1.8-5.6,0.5-4.6c0,0-0.8-3.1,2.6-3.2c0,0,3.4,1,1.4,4
		c2.1-1.5,5.7,2.3,0.6,4.5c0,0,1,2.8,3.8,3c4,0.2,5.4-2.2,5.4-2.2s-2.4,1.8-4.4,0.5c-1.1-0.8-2-3.7,0.5-4.8c0,0-3.9-1.2-1.4-4.9
		c2.9-0.7,4.2,2.7,4.2,2.7 M72.4,50c0,2,1,3.5,2.3,3.5S77,51.9,77,50s-1-3.5-2.3-3.5S72.4,48.1,72.4,50z"/>
	<path id="path2668" class="st13" d="M56.9,81.9c0,0,1.8-1.6,7.9-0.4c4.6,0.7,7-1.1,7-1.1s0.9,2.3-4.4,3c-1.9-0.5-5.5-1.5-7.9,0
		C56,82.9,56.9,81.9,56.9,81.9"/>
	<path id="path2670" class="st13" d="M81.3,80.6c1.1,0.9,3.5,1.1,3.5,1.1l7.6,0.2l2.5,0.5L94,83.1c0,0-6.9,0.5-10.4-0.1
		c-1.3-0.3-2.2-0.7-2.2-0.7S79.6,81.3,81.3,80.6"/>
	<path id="path2672" class="st13" d="M27.7,84.8c2-0.1,2.9-0.5,2.9-0.5l3.4-0.8c0,0,12.8-1.5,14-0.4c0.3,0.7-1.1,1.5-1.1,1.5
		s-5.4-0.7-9.8,0.1c-2.2,0-4,0.4-4,0.4S27.7,86,27.7,84.8"/>
	<path id="path2674" class="st13" d="M34.7,85.9L28.9,87c-0.5,0.9,0.9,0.9,0.9,0.9C36,87.2,34.7,85.9,34.7,85.9"/>
	<path id="path2676" class="st13" d="M36,87.2c-0.3-0.7,2.4-1.6,2.4-1.6s2.6-0.8,3,0C42.1,85.3,35.7,88.4,36,87.2"/>
	<path id="path2678" class="st13" d="M40.5,88.1c-1.1-0.8,3.8-2.7,3.8-2.7c1.2,0.3,1.2-0.3,0.1,1.2C43.3,87,41.6,88,41.6,88
		L40.5,88.1"/>
	<path id="path2680" class="st13" d="M103.3,84.5l4.7,1.4c4.4,0.7,8.2-0.3,8.2-0.3l4.2-1.1c1.1,0.9-2.4,2.2-4.4,2.6
		c-0.1,0-5.2,0.9-9.9-0.1C103.3,86.5,103.3,84.5,103.3,84.5"/>
	<path id="path2682" class="st13" d="M104.1,87.2c4,1.5,4.9,3.5,4.9,3.5l-3.2-0.5C105.8,90.2,103.5,88.8,104.1,87.2"/>
	<path id="path2684" class="st13" d="M109.2,88.2c4.4,0.3,5.5,2.3,5.5,2.3s-3.8,0.3-5-1.2C109.9,89.8,109.2,88.2,109.2,88.2"/>
	<path id="path2686" class="st13" d="M114.6,88c3.6-0.4,4.2,1.1,4.2,1.1l-1.6,0.1L114.6,88"/>
	<path id="path2688" class="st13" d="M58.9,87.8c2.1,6.1,6.3,0.3,6.3,0.3c0.8-1.1,2.1-0.2,2.1-0.2s-1.9,5.9-7.5,4.3
		c-2.3-0.8-3.3-3.4-3.3-3.4S56.3,87.1,58.9,87.8"/>
	<path id="path2690" class="st13" d="M85,89.2c0,0,0.2,2.4,4,1.6c2.1-0.7,2.9-3.4,2.9-3.4s1.1,0.2,1,1.5c-0.3,2.3-3,3.4-3,3.4
		s-5.5,2.2-7.2-2.3C83.3,88.8,85,89.2,85,89.2"/>
	<path id="path2692" class="st13" d="M55,86.7c6.1-4.1,11.9-0.4,11.9-0.4l-3.6,0.5c0,0-0.4,1.6-1.8,1.6c-1.3-0.1-1.2-1.6-1.2-1.6
		C59,85.6,55.6,87.6,55,86.7"/>
	<path id="path2694" class="st13" d="M82.6,87.9c3.6-5.1,10.3-3.1,10.3-3.1s1.2,0.8,0.3,1.8c-3-1.1-4.6,0.1-4.6,0.1s0.2,1.6-0.9,1.9
		c0,0-1.3,0.4-1.8-0.9C85.2,88,83.2,88.8,82.6,87.9"/>
	<path id="path2696" class="st13" d="M45.6,124.1c-6.5,5.9-4.8,6.7-4.8,6.7c4.9,0,7.5,2.5,7.5,2.5v-1.2c0,0-1.7-3.3-5.8-2.7
		C46.1,125.7,45.6,124.1,45.6,124.1"/>
	<path id="path2698" class="st13" d="M56,129.7c0,0-2.9,4.3-2.9,8.3c0.2,1.3,1.7-0.3,1.7-0.3C57.9,131.8,56,129.7,56,129.7"/>
	<path id="path2700" class="st13" d="M65.4,140.2c0,0-0.2-2.7,0.6-4.9c0.3-2.1,1.6-2.2,1.6-2.2l-0.3,5.2
		C67,142.3,65.4,140.2,65.4,140.2"/>
	<path id="path2702" class="st13" d="M67,142.3c0,0,0.4-2.7,9.4-2.5c2.6,0.2,1.2,1,1.2,1s-7.4-0.3-10,2.2
		C67,142.8,67,142.3,67,142.3"/>
	<path id="path2704" class="st13" d="M80.9,134.5c-0.1,3.1-0.4,4.9-0.4,4.9c0.6,4,1.6,2.7,1.6,2.7s0.5-4.4,0.2-6.8
		C81.9,133.6,80.9,134.5,80.9,134.5"/>
	<path id="path2706" class="st13" d="M83.9,140.4c1-3.1,7.1-3.6,7.1-3.6c1.4,0.4,0,1.5,0,1.5s-3.9,0.2-5.9,2.2
		C83.5,141.9,83.9,140.4,83.9,140.4"/>
	<path id="path2708" class="st13" d="M91.7,129.4c2.6,4,5.5,5.8,5.5,5.8s1.9-4.5,4.5-4.3c0.1,0.9-3.2,5.9-3.2,5.9l-1.4,0.6
		c0,0-4.8-2.8-5.9-5.9C90.4,130.2,91.7,129.4,91.7,129.4"/>
	<path id="path2710" class="st13" d="M100.5,115.9c0,0,2,7.4,6.8,11.4c-1.4,0.8-4.9-0.4-7.1-7.5C99.7,116.6,100.5,115.9,100.5,115.9
		"/>
	<path id="path2712" class="st13" d="M104.7,106.3c4.8,5.2,8.2,6.8,8.2,6.8c-2.3,5.3-4.8,8.5-4.8,8.5s-2.1-0.2,0-4.1
		c0.7,0.1,2.9-3.7,2.9-3.7L104.7,106.3"/>
	<path id="path2714" class="st13" d="M54.7,138.9c4.3-3.7,7.9-0.6,7.9-0.6l0.9,1C59.5,137.7,54.7,138.9,54.7,138.9"/>
	<path id="path2716" class="st13" d="M69.8,85.8c2-0.6,1.6,1.8,1.6,1.8c0,5.8-4.6,10.8-4.6,10.8c5.3,0.6,7.7,1.6,7.7,1.6
		s-0.6,0.9-8.4,0.1c-1.9,0.5-4.7,1.3-5.8,6.1c-0.2,1.9-0.5,4.2,2.5,5.9c11.6,4.4,21.8,1.8,21.8,1.8c3-0.7,4.8-1.3,6.4-3.2
		c0.7-1,1.9-6.5-1.8-9c-3.5-1.9-8.5-1.3-8.5-1.3l0.7-1.2c2-1,5.3,0,5.3,0l-1.2-3l-0.9-2.1l1.3-0.4c2,4.7,6.1,7.6,6.1,7.6
		c1,2.2,2.3,5.8,1.2,9.5c-2.3,5.9-16.3,6.4-16.3,6.4s-15.8-0.6-18.1-5.8c-0.9-1.5-1.2-8.7,3.8-11.8C63.8,98.6,70.3,93.7,69.8,85.8"
		/>
	<path id="path2718" class="st13" d="M51.1,79c1.2-0.3,1.6-0.9,1.4,0.9c-2.9,6.7-3.2,10.5-3.2,10.5s-1,5,2.9,7.6
		c4.6,3.1,4.5,4.2,3.6,4.2c0.5,2.1-1,0.9-1,0.9c-2.2-2.5-2.6-3.1-3.8-3.4c-0.2,1.9,0,3.1,0.9,4.9c0.6,0.9,0,2.1,0,2.1
		s-3.6,2.4-3.2,6.7c0.4,7.4,6.5,10.7,6.5,10.7c3.5,4.3,12.4,5.5,12.4,5.5s-5.5,2.5-11.7-1.9c-1.7-1.2-5.5-3.5-8.1-8.5
		c-2.2-6.5-0.7-10.4,1.5-13.2c0.6-0.1-0.1-5.3-0.1-5.3S43.7,89.5,51.1,79z"/>
	<path id="path2720" class="st11" d="M51.1,79c1.2-0.3,1.6-0.9,1.4,0.9c-2.9,6.7-3.2,10.5-3.2,10.5s-1,5,2.9,7.6
		c4.6,3.1,4.5,4.2,3.6,4.2c0.5,2.1-1,0.9-1,0.9c-2.2-2.5-2.6-3.1-3.8-3.4c-0.2,1.9,0,3.1,0.9,4.9c0.6,0.9,0,2.1,0,2.1
		s-3.6,2.4-3.2,6.7c0.4,7.4,6.5,10.7,6.5,10.7c3.5,4.3,12.4,5.5,12.4,5.5s-5.5,2.5-11.7-1.9c-1.7-1.2-5.5-3.5-8.1-8.5
		c-2.2-6.5-0.7-10.4,1.5-13.2c0.6-0.1-0.1-5.3-0.1-5.3S43.7,89.5,51.1,79z"/>
	<path id="path2722" class="st13" d="M96.5,80.6c-0.1-1.9,1.4-1.5,1.4-1.5c5.9,2.5,4.5,21,4.5,21c-0.7,5-3,8.2-3,8.2
		c-0.7,1.2-0.7,11.7-0.7,11.7c-1.4,7-15.6,9.5-15.6,9.5c-1.5-0.3,0-1.5,0-1.5c11.1-3,12.3-6.2,12.3-6.2c2.3-1.5,0.7-13,2-15.1
		c2.9-2.4,3.8-8.5,3.8-8.5s-1.7,2.1-2.5,1.3c1.2-1.8,1.3-4.6,1.3-4.6S101.8,85.1,96.5,80.6"/>
	<path id="path2724" class="st13" d="M62.8,105.7c-0.7-1,0.9-1.6,0.9-1.6c2.7-0.4,4.8,2.4,4.8,2.4c1.6,2.3-1.1,4.3-2.1,4.2
		c-3-0.2-1.4-3.1-1.4-3.1c0.7,1.5,1.6,1.2,1.6,1.2C68.3,107.8,65.7,105.6,62.8,105.7"/>
	<path id="path2726" class="st13" d="M81.9,110.4c-1.5-3.4,1.8-5.3,1.8-5.3c1.8-1.1,3.8-0.2,3.8-0.2c2.7,1.5,0.6,4.2,0.6,4.2
		c-1.9,2.2-2.5-0.2-2.5-0.2s1.8-0.3,1-1.9c-0.9-1.1-2-0.3-2-0.3s-1.6,1-0.9,2.8C83.8,110.9,81.9,110.4,81.9,110.4"/>
	<path id="path2728" class="st13" d="M54.7,119c0.1-0.7,1.7-3.6,1.7-3.6c4.8,3.6,12.8,5,12.8,5l-1.1,4c-1.2,0.5-3.4-0.6-3.4-0.6l1-3
		l-1,3c-1.7,0-3.2-1.4-3.2-1.4l1.2-3l-1.2,3c0,0-2.5-0.4-3.7-1.7c-0.3-0.2,1.2-2.7,1.2-2.7l-1.3,2.5C57.6,120.7,55.9,120.4,54.7,119
		z"/>
	<path id="path2730" class="st14" d="M54.7,119c0.1-0.7,1.7-3.6,1.7-3.6c4.8,3.6,12.8,5,12.8,5l-1.1,4c-1.2,0.5-3.4-0.6-3.4-0.6l1-3
		l-1,3c-1.7,0-3.2-1.4-3.2-1.4l1.2-3l-1.2,3c0,0-2.5-0.4-3.7-1.7c-0.3-0.2,1.2-2.7,1.2-2.7l-1.3,2.5C57.6,120.7,55.9,120.4,54.7,119
		z"/>
	<path id="path2732" class="st13" d="M93.2,119.4c-0.1-0.8-1.7-3.1-1.7-3.1c-4.8,3.6-12.8,4.4-12.8,4.4l1.1,4
		c1.3,0.5,3.4-0.7,3.4-0.7l-0.9-2.9l0.9,2.9c1.7,0.2,3.3-1.3,3.3-1.3l-1.1-3l1.1,2.9c0,0,2.8-0.5,3.8-1.6l-1.3-2.6l1.3,2.5
		C90.3,121,92,120.7,93.2,119.4z"/>
	<path id="path2734" class="st14" d="M93.2,119.4c-0.1-0.8-1.7-3.1-1.7-3.1c-4.8,3.6-12.8,4.4-12.8,4.4l1.1,4
		c1.3,0.5,3.4-0.7,3.4-0.7l-0.9-2.9l0.9,2.9c1.7,0.2,3.3-1.3,3.3-1.3l-1.1-3l1.1,2.9c0,0,2.8-0.5,3.8-1.6l-1.3-2.6l1.3,2.5
		C90.3,121,92,120.7,93.2,119.4z"/>
	<path id="path2736" class="st15" d="M53.3,118.6c-1.1-0.7,3.1-5,3.5-7.9c0.5,1.5,2.3,6.1,12.8,6.8c-0.5,0.5-1.8,2.8-12.6-2.7
		c-2-0.7-2.9,3.2-2.9,3.2L53.3,118.6z"/>
	<path id="path2738" class="st16" d="M53.3,118.6c-1.1-0.7,3.1-5,3.5-7.9c0.5,1.5,2.3,6.1,12.8,6.8c-0.5,0.5-1.8,2.8-12.6-2.7
		c-2-0.7-2.9,3.2-2.9,3.2L53.3,118.6z"/>
	<path id="path2742" class="st16" d="M94.1,118.6c1.3-3.4-1.3-2.2-1.7-5.1c-4.1,4.9-13.5,4.8-13.5,4.8s1,3.1,12.3-2.2
		C93.8,114.9,94.1,118.6,94.1,118.6z"/>
	<path id="path2740" class="st15" d="M94.1,118.6c1.3-3.4-1.3-2.2-1.7-5.1c-4.1,4.9-13.5,4.8-13.5,4.8s1,3.1,12.3-2.2
		C93.8,114.9,94.1,118.6,94.1,118.6z"/>
	<path id="path2744" class="st15" d="M70.8,117.6c-4.1,13-0.8,15.5-0.8,15.5c1.8,1.7,4,1.6,4,1.6c4.2,0.4,4.9-2.9,4.9-2.9
		c1.3-3.8-1.1-13.6-1.1-13.6h-2.4l-0.8,10.5c-0.5,0.8-0.3,0.9-1.1,0.2c0.6-9.4,0.1-10.7,0.1-10.7S72.6,118,70.8,117.6z"/>
	<path id="path2746" class="st17" d="M70.8,117.6c-4.1,13-0.8,15.5-0.8,15.5c1.8,1.7,4,1.6,4,1.6c4.2,0.4,4.9-2.9,4.9-2.9
		c1.3-3.8-1.1-13.6-1.1-13.6h-2.4l-0.8,10.5c-0.5,0.8-0.3,0.9-1.1,0.2c0.6-9.4,0.1-10.7,0.1-10.7S72.6,118,70.8,117.6z"/>
	<path id="path2748" class="st13" d="M67.4,24.1c0,0-0.6,6.5-4,8.7c-6,3.8-22.7,8.7-25.9,12C25.4,54.4,31,69,31,69
		c3,8.9,9.7,8.6,9.7,8.6c3.2-0.3,7.1-0.3,7.1-0.3c-0.7-1-1-1.8-1-1.8s-0.7-1.6,1.8-3c-2.1-3.7-3-10.7-3-10.7
		c-3.3-1.1-3.7-3.5-3.7-3.5S41,56,43.4,54.9c-4.1-3.2-4.1-5.6-4.1-5.6s-0.5-4.1,3.2-3.5c3.4,0.9-0.2,3.8,0.7,4.1
		c1.5-3.8,2.9-2.6,3.2-2.5c2.8,1.3-1,4.2-0.2,4.7c2.7-6.1,4.4-1,4.4-1s11.9-5.4,16.9-9.8C76.8,32.6,67.4,24.1,67.4,24.1z"/>
	<path id="path2750" class="st11" d="M67.4,24.1c0,0-0.6,6.5-4,8.7c-6,3.8-22.7,8.7-25.9,12C25.4,54.4,31,69,31,69
		c3,8.9,9.7,8.6,9.7,8.6c3.2-0.3,7.1-0.3,7.1-0.3c-0.7-1-1-1.8-1-1.8s-0.7-1.6,1.8-3c-2.1-3.7-3-10.7-3-10.7
		c-3.3-1.1-3.7-3.5-3.7-3.5S41,56,43.4,54.9c-4.1-3.2-4.1-5.6-4.1-5.6s-0.5-4.1,3.2-3.5c3.4,0.9-0.2,3.8,0.7,4.1
		c1.5-3.8,2.9-2.6,3.2-2.5c2.8,1.3-1,4.2-0.2,4.7c2.7-6.1,4.4-1,4.4-1s11.9-5.4,16.9-9.8C76.8,32.6,67.4,24.1,67.4,24.1z"/>
	<path id="path2752" class="st13" d="M81.1,24.1c0,0-0.6,5.2,4,8.7c7.8,4.9,22.7,8.6,26,12c11.9,8.6,7.4,23.5,7.4,23.5
		c-3.2,7.5-9.8,8.9-9.8,8.9c-3-0.6-7.4-0.8-7.4-0.8c0.6-0.3,0.6-0.9,0.6-0.9s0.1-2.1-1.7-2.8c2.1-3.7,3-10.7,3-10.7
		c2.8,0,3.5-3.6,3.5-3.6s0.6-2.5-1.5-3.6c4.1-3.2,4.1-5.5,4.1-5.5s0.6-2.5-1.4-3c-1.1-0.2-2.7-0.7-2.2,3.4c-0.7,0.1-0.1-2.9-1.8-2.8
		c-4.4,0.8-1.1,4.3-1.7,4.6c0,0-0.1-2.5-2.4-2.1c-2,0.4-1.8,1.9-1.8,1.9s-11.9-5.5-17-9.9C71.7,32.6,81.1,24.1,81.1,24.1z"/>
	<path id="path2754" class="st11" d="M81.1,24.1c0,0-0.6,5.2,4,8.7c7.8,4.9,22.7,8.6,26,12c11.9,8.6,7.4,23.5,7.4,23.5
		c-3.2,7.5-9.8,8.9-9.8,8.9c-3-0.6-7.4-0.8-7.4-0.8c0.6-0.3,0.6-0.9,0.6-0.9s0.1-2.1-1.7-2.8c2.1-3.7,3-10.7,3-10.7
		c2.8,0,3.5-3.6,3.5-3.6s0.6-2.5-1.5-3.6c4.1-3.2,4.1-5.5,4.1-5.5s0.6-2.5-1.4-3c-1.1-0.2-2.7-0.7-2.2,3.4c-0.7,0.1-0.1-2.9-1.8-2.8
		c-4.4,0.8-1.1,4.3-1.7,4.6c0,0-0.1-2.5-2.4-2.1c-2,0.4-1.8,1.9-1.8,1.9s-11.9-5.5-17-9.9C71.7,32.6,81.1,24.1,81.1,24.1z"/>
	<path id="path2756" class="st12" d="M86,67.9c-0.1-0.8-0.8-1.5-1.6-1.4c-0.8,0.1-1.5,0.8-1.4,1.7c0.1,0.8,0.8,1.5,1.6,1.4
		C85.4,69.5,86,68.8,86,67.9z M93.1,67.5l-3.8-0.6c-1-0.1-1.9,0.5-2.1,1.3c-0.1,0.9,0.6,1.7,1.6,1.9l3.8,0.5c1,0.2,1.9-0.4,2.1-1.3
		C94.8,68.5,94.1,67.6,93.1,67.5z M69.6,67.5c0.1-0.8,0.8-1.5,1.6-1.4c0.8,0.1,1.5,0.8,1.4,1.7c-0.1,0.8-0.8,1.5-1.6,1.4
		C70.2,69.1,69.6,68.4,69.6,67.5z M62.4,66.3l3.9-0.3c1-0.1,1.9,0.6,2,1.5s-0.7,1.7-1.7,1.7l-3.9,0.3c-1,0.1-1.9-0.6-2-1.5
		C60.6,67.2,61.4,66.4,62.4,66.3z"/>
	<path id="path2758" class="st18" d="M106.5,59.5c0.9-1.7,0.5-4.2-1.1-4.6c-0.8-0.2-2.1,0.7-3,2.4s-0.7,3.6,0.5,4.2
		C104,62.1,105.6,61.2,106.5,59.5z"/>
	<path id="path2760" class="st11" d="M106.5,59.5c0.9-1.7,0.5-4.2-1.1-4.6c-0.8-0.2-2.1,0.7-3,2.4s-0.7,3.6,0.5,4.2
		C104,62.1,105.6,61.2,106.5,59.5z"/>
	<path id="path2762" class="st18" d="M41.9,59.5c-0.9-1.8-0.7-3.6,0.3-4.2c1.1-0.6,2.6,0.4,3.5,2.2s0.7,3.6-0.3,4.2
		C44.4,62.3,42.8,61.3,41.9,59.5z"/>
	<path id="path2764" class="st11" d="M41.9,59.5c-0.9-1.8-0.7-3.6,0.3-4.2c1.1-0.6,2.6,0.4,3.5,2.2s0.7,3.6-0.3,4.2
		C44.4,62.3,42.8,61.3,41.9,59.5z"/>
	<path id="path2766" class="st13" d="M104.7,106.3c4.8,5.2,8.2,6.8,8.2,6.8c-2.3,5.3-4.8,8.5-4.8,8.5s-2.1-0.2,0-4.1
		c0.7,0.1,2.9-3.7,2.9-3.7S106,111.6,104.7,106.3"/>
</g>
<g>
	<g>
		<path class="st19" d="M85.8,222.8l24.1,9.7v-0.2h-0.2c-1.7-0.4-3.3-1.1-4.7-2.2l-0.4-0.3l1.3-1.4c-0.8-0.7-1.4-1.5-1.9-2.4
			l-1.7,0.8l-0.2-0.4c-0.8-1.5-1.2-3.3-1.2-5v-0.5h2c0.1-1.1,0.3-2.1,0.7-3l-1.7-0.8l0.2-0.5c0.8-1.6,1.9-3,3.3-4l0.4-0.3l1.2,1.5
			c0.9-0.6,1.9-1.1,2.8-1.3l-0.4-1.8l0.4-0.1c0.1,0,0.2-0.1,0.3-0.1v-0.8c-0.6,0-1.2,0-1.8,0h-2c-2.7,0-5.6,0.1-8.3,1.4l-1.5,0.7
			l0.8-1.4c0.5-0.8,0.9-1.5,1.4-2.3s0.9-1.5,1.4-2.3l0.1-0.2h9.8v-4.9c-4.3-0.6-7.4-3.2-7.4-6.2c0-3.5,4.4-6.3,9.7-6.3
			s9.7,2.8,9.7,6.3c0,3-3.1,5.6-7.5,6.2v4.9h9.8l0.1,0.2c0.5,0.8,1,1.5,1.4,2.3c0.5,0.8,0.9,1.5,1.4,2.3l0.9,1.4l-1.6-0.7
			c-2.7-1.2-5.6-1.4-8.4-1.4H116c-0.6,0-1.2,0-1.8,0v0.7c0.1,0,0.9,0.2,0.9,0.2l-0.4,1.9c1,0.3,1.9,0.8,2.7,1.3l1.3-1.4l0.4,0.3
			c1.4,1.1,2.5,2.4,3.3,4l0.2,0.5l-1.8,0.8c0.4,0.9,0.7,2,0.7,3h1.9v0.5c0,1.7-0.4,3.4-1.2,5l-0.2,0.4l-1.7-0.8
			c-0.5,0.9-1.1,1.7-1.9,2.4l1.2,1.5l-0.4,0.3c-1.4,1.1-3,1.8-4.7,2.2h-0.2v0.2l24.1-9.7l-26.3,18.5L85.8,222.8z M114.4,227.4
			c2.5-0.9,4.2-3.2,4.3-5.9c0.1-2.8-1.7-5.3-4.3-6.3V227.4z M109.8,215.2c-2.5,0.9-4.2,3.2-4.3,5.9c-0.1,2.8,1.7,5.4,4.3,6.3V215.2z
			 M114.4,195.4v2.4c2.9-0.5,4.6-1.8,4.6-3.5c0-2.1-2.9-3.7-6.9-3.7c-3.9,0-6.9,1.6-6.9,3.7c0,2,2.3,3.1,4.6,3.5v-2.4H114.4z"/>
		<path d="M112.1,188.5c5.1,0,9.2,2.6,9.2,5.8c0,2.9-3.3,5.3-7.5,5.7v5.8h10.1c1,1.5,1.9,3.1,2.8,4.6c-2.8-1.3-5.7-1.4-8.6-1.4
			c-0.7,0-1.4,0-2,0c-0.8,0-1.5,0-2.3,0v1.7c0.3,0,0.5,0.1,0.8,0.1l-0.4,1.8c1.2,0.3,2.4,0.9,3.4,1.6l1.2-1.4c1.2,1,2.4,2.3,3.1,3.8
			l-1.8,0.8c0.6,1.1,0.9,2.4,0.9,3.7h1.9c0,1.6-0.3,3.2-1.1,4.8l-1.7-0.8c-0.6,1.2-1.4,2.2-2.4,2.9l1.2,1.5c-1.3,1-2.8,1.7-4.5,2.1
			L114,230c-0.1,0-0.1,0-0.1,0.1v3.2l20.7-8.3l-22.5,15.8L89.6,225l20.7,8.3V230c-0.1-0.1-0.1-0.1-0.2-0.1l-0.4,1.8
			c-1.6-0.3-3.1-1-4.5-2.1l1.2-1.4c-1-0.8-1.9-1.8-2.4-3l-1.7,0.8c-0.8-1.4-1.2-3.1-1.2-4.8h1.9V221c0.1-1.2,0.3-2.4,0.9-3.5
			l-1.7-0.8c0.7-1.4,1.7-2.8,3.1-3.8l1.2,1.5c1-0.8,2.2-1.4,3.5-1.6l-0.4-1.8c0.2-0.1,0.5-0.1,0.7-0.1V209c-0.8,0-1.5,0-2.3,0
			c-0.7,0-1.4,0-2,0c-2.9,0-5.7,0.1-8.5,1.4c0.9-1.5,1.9-3.1,2.8-4.6h10.1V200c-4.2-0.5-7.4-2.9-7.4-5.7
			C102.9,191.1,107.1,188.5,112.1,188.5 M110.3,198.4v-2.5h3.5v2.5c3.3-0.4,5.6-1.8,5.6-4.1c0-2.5-3.3-4.2-7.4-4.2s-7.4,1.6-7.4,4.2
			C104.7,196.6,107.1,198,110.3,198.4 M113.9,228.1c3-0.8,5.2-3.4,5.3-6.6c0.1-3.3-2.2-6.2-5.3-7V228.1 M110.3,228.1v-13.6
			c-3,0.8-5.2,3.4-5.3,6.5C104.9,224.4,107.2,227.3,110.3,228.1 M112.1,187.5c-5.7,0-10.2,3-10.2,6.8c0,3.2,3.1,5.8,7.4,6.6v4h-9.1
			h-0.6l-0.3,0.5c-0.5,0.8-0.9,1.5-1.4,2.3s-0.9,1.5-1.4,2.3l-1.7,2.8l2.9-1.4c2.6-1.2,5.3-1.3,8.1-1.3c0.3,0,0.7,0,1,0s0.7,0,1,0
			s0.5,0,0.8,0l-0.4,0.1l0.2,0.9l0.2,0.9c-0.7,0.2-1.4,0.6-2.1,1l-0.6-0.8l-0.6-0.8l-0.8,0.6c-1.4,1.1-2.6,2.5-3.4,4.2l-0.4,0.9
			l0.9,0.4l0.9,0.4c-0.3,0.7-0.4,1.4-0.5,2.2h-1h-1v1c0,1.8,0.4,3.7,1.3,5.3l0.5,0.9l0.9-0.4l0.8-0.4c0.4,0.6,0.9,1.2,1.4,1.8
			l-0.6,0.7l-0.5,0.6L90,224l-8.1-3.2l7.1,5l22.5,15.8l0.6,0.4l0.6-0.4l22.5-15.8l7.1-5l-8,3.2l-14.1,5.7l-0.4-0.6l-0.6-0.8
			c0.5-0.5,1-1.1,1.4-1.8l0.9,0.4l0.9,0.4l0.4-0.9c0.8-1.6,1.2-3.4,1.2-5.2v-1h-1h-1c-0.1-0.7-0.3-1.5-0.5-2.2l0.9-0.4l0.9-0.4
			l-0.4-0.9c-0.8-1.6-2-3.1-3.4-4.2l-0.7-0.6l-0.6,0.7l-0.7,0.8c-0.6-0.4-1.3-0.7-2.1-1l0.2-1l0.2-1l-0.3-0.1c0.2,0,0.4,0,0.6,0
			c0.3,0,0.7,0,1,0s0.7,0,1,0c2.7,0,5.5,0.1,8.2,1.3l3.1,1.4l-1.9-2.9c-0.5-0.7-1-1.5-1.4-2.3c-0.5-0.8-0.9-1.6-1.4-2.3l-0.3-0.5
			h-0.5h-9.1v-4c4.4-0.8,7.5-3.5,7.5-6.6C122.4,190.5,117.9,187.5,112.1,187.5L112.1,187.5z M109.3,197.2c-1.9-0.4-3.6-1.4-3.6-2.9
			c0-1.8,2.8-3.2,6.4-3.2s6.4,1.4,6.4,3.2c0,1.6-1.7,2.5-3.6,2.9v-1.3v-1h-1h-3.5h-1v1v1.3H109.3z M109.3,226.7
			c-2.1-1.1-3.4-3.2-3.3-5.6c0.1-2.2,1.4-4.1,3.3-5.1V226.7L109.3,226.7z M114.9,226.7V216c2,1.1,3.4,3.2,3.3,5.5
			C118.1,223.8,116.8,225.7,114.9,226.7L114.9,226.7z"/>
	</g>
	<g>
		<path class="st19" d="M125.8,171.7l26.6,10.6v-9.1c-3.4-1-6.4-2.2-7.5-5.6v-0.1v-0.1c0-2.8,3.6-5.4,7.6-7.8v-3.4
			c-0.7,0-1.4,0-2.1,0h-2.3c-3.1,0-6.3,0.1-9.5,1.5l-1.5,0.7l0.9-1.4c1.2-1.8,2.3-3.6,3.2-5.2l0.1-0.3h11.1V146
			c-4.9-0.7-8.4-3.6-8.4-6.9c0-4,4.8-7,10.9-7c6,0,10.8,3.2,10.8,7c0,1.4-0.6,2.8-1.7,3.8c1.6,2.2,2.1,4.3,2,8.6h2.5l0.1,0.2
			c0.4,0.7,0.8,1.4,1.2,2.1c0.6,1.1,1.3,2.1,2,3.2l0.9,1.5l-1.6-0.7c-2.4-1.1-4.9-1.4-7.8-1.5c-1.3,0.9-3,1.8-4.7,2.7
			c-0.4,0.2-0.8,0.4-1.3,0.7v12c3.9,1.3,7.6,2.8,9.7,6.6l17-6.8l-15.8,11.1c0.4,2.3,0.3,4.9-0.2,7.9l-1-0.1c0-2.5-0.2-4.7-0.7-6.5
			l-11.4,8L125.8,171.7z M157.4,182.3l6.9-2.7c-1.9-2.7-4.5-4-6.9-4.8V182.3z M147.9,167.3c1.1,1.5,2.9,2.4,4.5,3v-7.7
			C150.2,164,148.1,165.6,147.9,167.3z M157.4,156.9c0.3-0.2,0.6-0.4,0.9-0.5c-0.3,0-0.6,0-0.9,0V156.9z M163.3,151.7
			c0.8-3.5-0.2-5.5-1.2-7.1c-1.4,0.8-3,1.4-4.7,1.6v5.5H163.3z M154.9,135.1c-4.6,0-7.9,1.8-7.9,4.2c0,1.9,2.1,3.5,5.3,4v-2.8h5v2.8
			c1.3-0.2,2.4-0.6,3.3-1.1c-0.3-0.7-0.6-1.4-0.6-2.3v-1.3l0.9,1c0.3,0.3,0.5,0.6,0.8,0.8c0.1,0.1,0.3,0.3,0.4,0.4
			c0.4-0.5,0.5-1,0.5-1.6C162.7,136.8,159.4,135.1,154.9,135.1z"/>
		<path d="M154.9,132.7c5.7,0,10.3,2.9,10.3,6.5c0,1.5-0.7,2.8-1.9,3.8c1.9,2.5,2.3,4.5,2.1,9.2h2.7c1.1,1.8,2.1,3.5,3.2,5.2
			c-2.7-1.2-5.5-1.5-8.2-1.5c-1.7,1.2-4.1,2.4-6.3,3.6v12.7c3.9,1.2,7.9,2.7,9.9,6.9l13.4-5.4l-12.5,8.8c0.4,2.2,0.4,4.8-0.2,8.1
			c0-2.9-0.3-5.3-0.9-7.3l-11.7,8.2l-25.4-17.8l23.3,9.3v-10.2c-3.4-1-6.5-2.2-7.6-5.4c0-2.5,3.6-5.1,7.6-7.5v-4.2
			c-0.9,0-1.7,0.1-2.6,0.1c-0.8,0-1.5,0-2.3,0c-3.2,0-6.5,0.1-9.7,1.6c1.1-1.7,2.2-3.5,3.2-5.2h11.3v-6.5c-4.8-0.5-8.4-3.2-8.4-6.5
			C144.6,135.7,149.2,132.7,154.9,132.7 M152.9,143.9V141h4v2.9c1.8-0.2,3.4-0.8,4.5-1.5c-0.4-0.8-0.7-1.5-0.7-2.5
			c0.5,0.6,1.1,1.2,1.6,1.7c0.6-0.7,1-1.5,1-2.4c0-2.9-3.7-4.7-8.3-4.7s-8.4,1.8-8.4,4.7C146.6,141.7,149.3,143.4,152.9,143.9
			 M156.9,152.2h6.8c1-4.2-0.2-6.4-1.4-8.3c-1.4,0.9-3.3,1.6-5.4,1.8L156.9,152.2 M156.9,157.8c1.2-0.6,2.3-1.3,3.4-1.8
			c-1.2,0-2.3,0-3.4-0.1V157.8 M152.9,171v-9.3c-3,1.8-5.5,3.7-5.5,5.8C148.6,169.2,150.6,170.2,152.9,171 M156.9,183l8.2-3.2
			c-2-3.3-5.1-4.8-8.2-5.8V183 M154.9,131.7c-6.4,0-11.4,3.3-11.4,7.5c0,3.5,3.5,6.5,8.4,7.3v4.6h-10.3H141l-0.3,0.5
			c-0.9,1.6-2,3.4-3.2,5.2l-1.8,2.9l3.1-1.4c3-1.4,6.2-1.5,9.3-1.5c0.4,0,0.8,0,1.1,0c0.4,0,0.8,0,1.1,0c0.5,0,1,0,1.6,0v2.6
			c-4.6,2.8-7.6,5.2-7.6,8v0.2l0.1,0.2c1.2,3.5,4.3,4.8,7.5,5.8v7.9l-22-8.8l-8-3.2l7,4.9l25.4,17.8l0.6,0.4l0.6-0.4l10.5-7.4
			c0.4,1.6,0.5,3.5,0.5,5.7l2,0.2c0.5-3,0.6-5.5,0.3-7.8l12-8.4l7.1-5l-8,3.2l-12.6,5.1c-2.1-3.6-5.6-5.1-9.4-6.3v-11.4
			c0.3-0.2,0.7-0.4,1-0.5c1.7-0.9,3.3-1.8,4.6-2.7c2.8,0.1,5.2,0.4,7.5,1.4l3.1,1.5l-1.9-2.9c-0.7-1-1.3-2.1-1.9-3.2
			c-0.4-0.7-0.8-1.4-1.2-2.1l-0.3-0.5h-0.6h-1.7c0.1-3.5-0.3-5.7-1.8-8c1-1.1,1.6-2.5,1.6-3.9C166.2,135,161.3,131.7,154.9,131.7
			L154.9,131.7z M151.9,142.7c-2.3-0.5-4.3-1.7-4.3-3.4c0-2.1,3.1-3.7,7.4-3.7c4.2,0,7.3,1.6,7.3,3.7c0,0.3,0,0.5-0.1,0.8
			c-0.2-0.2-0.5-0.5-0.7-0.7l-1.7-2v2.6c0,0.8,0.2,1.4,0.4,2c-0.6,0.3-1.4,0.5-2.2,0.7V141v-1h-1h-4h-1v1L151.9,142.7L151.9,142.7z
			 M157.9,146.6c1.4-0.2,2.8-0.7,4-1.3c0.8,1.4,1.5,3.1,0.9,6h-5v-4.7H157.9z M148.5,167.2c0.2-1.2,1.7-2.5,3.4-3.7v6.1
			C150.3,168.9,149.2,168.1,148.5,167.2L148.5,167.2z M157.9,181.6v-6.1c2,0.8,4.1,1.9,5.7,3.9L157.9,181.6L157.9,181.6z"/>
	</g>
	<g>
		<path class="st19" d="M218.5,58.5l26.7,10.6v-7.9l-6.1,2.1l-0.4-0.9l6.5-3.5V55l-11-2.5l11-4.6V43c-0.7,0-1.4,0-2.1,0h-2.3
			c-3.1,0-6.4,0.1-9.5,1.5l-1.6,0.7l0.9-1.4c0.7-1,1.3-2.1,2-3.2c0.4-0.7,0.8-1.4,1.2-2l0.1-0.2H245V33c-4.9-0.7-8.5-3.6-8.5-6.9
			c0-3.9,4.9-7.1,10.9-7.1s10.9,3.2,10.9,7.1c0,3.4-3.5,6.2-8.4,6.9v5.5H261l0.1,0.3c0.7,1.3,1.5,2.5,2.2,3.8l1.7,2.9l-1.5-0.7
			c-3.1-1.4-6.3-1.5-9.4-1.5h-2.3c-0.7,0-1.4,0-2.1,0V46l6-2.6l0.4,0.9l-6.5,3.7v5.4l10.1,2.6l-10.1,3.5v9.6l26.6-10.7L247.6,79
			L218.5,58.5z M250.2,56.3l0.2-0.1L250.2,56.3L250.2,56.3z M245.2,52.2v-1.4l-1.7,1L245.2,52.2z M247.6,21.8
			c-4.6,0-7.8,1.7-7.8,4.2c0,2,2.1,3.5,5.3,4.1v-2.8h5v2.8c3.3-0.6,5.3-2.1,5.3-4C255.5,23.6,252.2,21.8,247.6,21.8z"/>
		<path d="M247.6,19.5c5.7,0,10.4,2.9,10.4,6.6c0,3.2-3.6,5.9-8.4,6.5V39H261c1,1.8,2.1,3.5,3.1,5.2c-3.1-1.4-6.4-1.6-9.6-1.6
			c-0.8,0-1.5,0-2.3,0c-0.9,0-1.7,0-2.6-0.1v4.1l6.7-2.9l-6.7,3.9v6.1l8.8,2.3l-8.8,3.1v10.6l23.3-9.3l-25.4,17.8l-25.4-17.8
			l23.4,9.3v-9.3l-6.8,2.3l6.8-3.6v-4.6l-9.9-2.2l9.9-4.1v-5.7c-0.9,0-1.7,0.1-2.6,0.1c-0.8,0-1.5,0-2.3,0c-3.3,0-6.5,0.1-9.7,1.6
			c1.1-1.7,2.1-3.5,3.2-5.2h11.3v-6.5c-4.8-0.5-8.5-3.2-8.5-6.5C237.2,22.4,241.9,19.5,247.6,19.5 M245.7,30.7v-2.9h4v2.9
			c3.6-0.5,6.3-2.2,6.3-4.6c0-2.9-3.8-4.7-8.4-4.7c-4.6,0-8.3,1.8-8.3,4.7C239.3,28.5,242,30.2,245.7,30.7 M245.7,52.8v-2.9l-3.5,2
			L245.7,52.8 M249.7,57.1l2-1.1l-2-0.5V57.1 M247.6,18.5c-6.3,0-11.4,3.4-11.4,7.6c0,3.5,3.5,6.5,8.5,7.4V38h-10.3h-0.6l-0.3,0.5
			c-0.4,0.7-0.8,1.4-1.2,2.1c-0.7,1.1-1.3,2.1-2,3.2l-1.9,2.9l3.1-1.4c3-1.4,6.2-1.5,9.3-1.5c0.4,0,0.8,0,1.1,0c0.4,0,0.8,0,1.2,0
			c0.5,0,1,0,1.6,0v4l-9.2,3.8l-2.9,1.2l3.1,0.7l9.1,2.1v3.2l-6.3,3.3l0.8,1.8l5.5-1.9v6.5l-22-8.8l-7.9-3.2l7,4.9l25.4,17.8
			l0.6,0.4l0.6-0.4l25.4-17.8l7-4.9l-8,3.2l-22,8.8V60l8.2-2.9l3.1-1.1l-3.2-0.8l-8.1-2.1v-4.7l6.2-3.6l-0.5-1
			c2.5,0.1,5,0.4,7.3,1.5l2.9,1.4l-1.7-2.8c-0.3-0.5-0.6-1-0.9-1.5c-0.7-1.2-1.5-2.5-2.2-3.7l-0.3-0.5H261h-10.3v-4.6
			c4.9-0.8,8.4-3.8,8.4-7.3C259,21.9,253.9,18.5,247.6,18.5L247.6,18.5z M244.7,29.5c-2.7-0.6-4.3-1.9-4.3-3.4
			c0-2.1,3.1-3.7,7.3-3.7c4.3,0,7.4,1.6,7.4,3.7c0,1.7-2,2.9-4.3,3.4v-1.7v-1h-1h-4h-1v1L244.7,29.5L244.7,29.5z M250.7,45.2v-1.5
			c0.6,0,1.1,0,1.6,0c0.4,0,0.8,0,1.2,0c0.3,0,0.6,0,0.9,0L250.7,45.2L250.7,45.2z"/>
	</g>
	<g>
		<path class="st19" d="M171.4,115.4l27.3,10.9v-11.9l-0.1-0.1l0,0c-0.1,0.1-0.3,0.2-0.5,0.2H198h-0.1c-0.3,0-0.5-0.2-0.6-0.4l0,0
			c-0.1,0.1-0.3,0.2-0.5,0.2h-0.1h-0.2c-0.1,0-0.2,0-0.3-0.1c-0.1,0-0.2,0-0.4-0.1l-0.6-0.2l2.1-2.9h-16.6l0.6-0.6l-0.9-0.3l0.4-0.4
			l-0.8-0.3l0.2-0.2l-0.8-0.3l0.2-0.2l-1.3-0.4l0.6-0.3l-0.6-0.3l0.2-0.2l-0.8-0.3l0.3-0.3l-0.7-0.3l0.2-0.2l-3.4-1h21l2.7,2.8h0.8
			v-8.5c-0.7,0-1.4,0-2.1,0h-2.4c-3.2,0-6.5,0.1-9.7,1.6l-1.5,0.7l1.8-2.9c0.8-1.3,1.5-2.6,2.3-3.8l0.1-0.3h11.4v-5.7
			c-5-0.7-8.6-3.6-8.6-7.1c0-4,5-7.2,11.2-7.2c6.1,0,11.1,3.2,11.1,7.2c0,3.4-3.6,6.4-8.6,7.1V95H215l0.1,0.2
			c0.4,0.7,0.9,1.4,1.3,2.1c0.7,1.1,1.3,2.2,2,3.3l0.9,1.4l-1.5-0.7c-3.2-1.5-6.6-1.6-9.7-1.6h-2.4c-0.7,0-1.4,0-2.1,0v8.5h0.8
			l2.7-2.8h21l-3.3,1l0.3,0.3l-0.8,0.3l0.2,0.2l-0.8,0.3l0.2,0.2l-0.8,0.4l0.3,0.4l-0.8,0.2l0.2,0.3l-0.6,0.2l0.3,0.2l-1,0.4
			l0.3,0.4l-0.8,0.2l0.4,0.5H205c0.2,0.3,0.4,0.5,0.6,0.8c0.4,0.5,0.8,1.1,1.1,1.6l0.4,0.6l-0.7,0.2c-0.1,0-0.3,0.1-0.4,0.1
			c-0.1,0-0.2,0-0.3,0.1h-0.1h-0.2c-0.2,0-0.4-0.1-0.5-0.2c-0.1,0.1-0.3,0.3-0.6,0.4l0,0h-0.2c-0.2,0-0.4-0.1-0.6-0.2c0,0,0,0,0,0.1
			v12l27.3-10.9l-29.8,21L171.4,115.4z M203.8,83.4v2.9c3.4-0.6,5.5-2.2,5.5-4.2c0-2.5-3.4-4.3-8-4.3c-4.7,0-8.1,1.8-8.1,4.3
			c0,2,2.1,3.6,5.5,4.2v-2.9H203.8z"/>
		<path d="M201.3,75.3c5.9,0,10.6,3,10.6,6.7c0,3.3-3.7,6.1-8.6,6.7v6.7h11.6c1.1,1.8,2.2,3.6,3.3,5.4c-3.3-1.5-6.6-1.6-9.9-1.6
			c-0.8,0-1.6,0-2.4,0c-0.9,0-1.8,0-2.6-0.1v9.5h1.5l2.7-2.8h17.4l-0.8,0.2l0.3,0.3l-0.8,0.3l0.2,0.2l-0.8,0.3l0.2,0.2l-0.7,0.3
			l0.2,0.3l-0.8,0.2l0.2,0.3l-0.8,0.3l0.3,0.2l-0.8,0.3l0.2,0.3l-0.8,0.2l0.2,0.3h-7H204c0.7,1,1.5,2.2,2.2,3.2
			c-0.2,0.1-0.4,0.1-0.6,0.2h-0.1c-0.2,0-0.4-0.3-0.6-0.3c-0.2,0.1-0.4,0.5-0.6,0.5h-0.1c-0.2,0-0.4-0.3-0.6-0.3
			c-0.2,0-0.4,0.2-0.6,0.4V127l24-9.6l-26,18.3l-26.1-18.3l24,9.6v-12.9c-0.2-0.1-0.4-0.4-0.6-0.4c-0.2,0-0.4,0.3-0.6,0.3
			c0,0,0,0-0.1,0c-0.2,0-0.4-0.4-0.6-0.5c-0.2,0-0.4,0.3-0.6,0.3h-0.1c-0.2-0.1-0.4-0.1-0.6-0.2l2.2-3.2h-9.4h-7
			c0.1-0.1,0.2-0.2,0.2-0.3l-0.8-0.2c0.1-0.1,0.2-0.2,0.3-0.3l-0.8-0.3c0.1-0.1,0.2-0.2,0.2-0.2l-0.8-0.3c0.1-0.1,0.2-0.2,0.2-0.3
			l-0.8-0.2c0.2-0.1,0.2-0.2,0.3-0.3l-0.8-0.3c0.1-0.1,0.2-0.2,0.2-0.2l-0.8-0.3c0.1-0.1,0.2-0.2,0.3-0.2l-0.8-0.3
			c0.1-0.1,0.2-0.2,0.2-0.3l-0.8-0.2h18l2.7,2.8h1.5v-9.5c-0.9,0-1.8,0.1-2.6,0.1s-1.6,0-2.4,0c-3.3,0-6.7,0.1-9.9,1.6
			c1-1.7,2.2-3.6,3.2-5.4h11.6v-6.7c-4.9-0.6-8.6-3.3-8.6-6.7C190.6,78.3,195.4,75.3,201.3,75.3 M199.2,86.8v-2.9h4.1v2.9
			c3.8-0.5,6.5-2.2,6.5-4.8c0-3-3.9-4.8-8.5-4.8c-4.7,0-8.6,1.8-8.6,4.8C192.7,84.6,195.5,86.3,199.2,86.8 M201.3,74.3
			c-6.4,0-11.7,3.5-11.7,7.7c0,3.6,3.6,6.7,8.6,7.5v4.8h-10.6H187l-0.3,0.5c-0.7,1.3-1.5,2.6-2.3,3.8c-0.3,0.5-0.6,1-0.9,1.5
			l-1.7,2.8l2.9-1.4c3.1-1.4,6.3-1.5,9.4-1.5c0.4,0,0.8,0,1.2,0s0.8,0,1.2,0c0.5,0,1,0,1.6,0v7.5H198l-2.4-2.5l-0.3-0.3H195h-17.4
			h-6.9l5.9,1.7l-0.2,0.2l0.7,0.3l-0.3,0.3l0.8,0.3l-0.2,0.2l0.3,0.1l-0.8,0.4l1.7,0.5l-0.2,0.2l0.8,0.3l-0.2,0.2l0.8,0.3l-0.4,0.4
			l0.9,0.3l-0.8,0.8h2.4h7h7.5l-1.1,1.6l-0.8,1.1l1.3,0.4c0.2,0.1,0.3,0.1,0.4,0.1c0.1,0,0.1,0,0.2,0c0.1,0,0.3,0.1,0.4,0.1
			c0.2,0,0.3,0,0.4-0.1c0.2,0.1,0.4,0.2,0.6,0.3c0.1,0,0.2,0,0.3,0s0.1,0,0.1,0v10.6l-22.6-9l-8-3.2l7,4.9l26.1,18.3l0.6,0.4
			l0.6-0.4l26-18.3l7-4.9l-7.9,3.2l-22.6,9V115h0.1c0.1,0,0.2,0,0.2,0c0.3,0,0.5-0.2,0.6-0.3c0.1,0,0.3,0.1,0.4,0.1
			c0.1,0,0.3,0,0.4-0.1c0.1,0,0.1,0,0.2,0c0.1,0,0.3-0.1,0.4-0.1l1.3-0.4l-0.8-1.1c-0.3-0.5-0.7-1-1.1-1.5l0,0h7.5h7h2l-0.6-0.8
			l0.8-0.2l-0.3-0.4l1.3-0.5l-0.3-0.2l0.4-0.1l-0.2-0.2l0.8-0.2l-0.3-0.5l0.9-0.4l-0.2-0.2l0.8-0.3l-0.2-0.2l0.8-0.3l-0.2-0.2
			l5.8-1.7H225h-17.4H207l-0.3,0.3l-2.4,2.5h-0.1v-7.5c0.6,0,1.2,0,1.6,0c0.4,0,0.8,0,1.2,0s0.8,0,1.2,0c3.1,0,6.4,0.1,9.5,1.5
			l3.1,1.4l-1.8-2.9c-0.7-1.1-1.3-2.1-2-3.3c-0.4-0.7-0.8-1.4-1.3-2.1l-0.3-0.5h-0.6h-10.6v-4.8c5-0.9,8.6-3.9,8.6-7.5
			C212.9,77.7,207.8,74.3,201.3,74.3L201.3,74.3z M198.2,85.6c-2.4-0.5-4.5-1.7-4.5-3.6c0-2.2,3.2-3.8,7.6-3.8
			c4.4,0,7.5,1.6,7.5,3.8c0,1.6-1.7,3-4.5,3.6v-1.8v-1h-1h-4.1h-1v1V85.6L198.2,85.6z"/>
	</g>
	<g>
		<path class="st19" d="M66.9,265.9l0.4-0.4L66.9,265.9c-0.1-0.1-0.3-0.3-0.3-0.6v-3.7c-0.5,0-0.9,0-1.4,0s-2.6,0-3.1,0
			c-3.1,0-6.3,0.1-9.5,1.6l-1.4,0.7l0.8-1.4c0.9-1.7,2-3.4,3.3-5.3l0.1-0.2h11.2v-5.6c-5-0.8-8.5-3.7-8.5-7c0-4,4.9-7.2,11-7.2
			s11,3.2,11,7.2c0,3.3-3.6,6.2-8.5,7v5.6h11.2l0.1,0.2c1.2,1.9,2.3,3.7,3.3,5.3l0.8,1.4l-1.4-0.7c-3.2-1.5-6.4-1.6-9.5-1.6
			c-0.5,0-2.6,0-3.1,0s-0.9,0-1.4,0v3.5l-0.1,0.1c-0.1,0.2-0.2,0.4-0.4,0.5l-0.7,0.7l-0.1-1c-0.1-1.1-0.5-2.1-1-2.6
			c-0.7,0.5-1.3,1.5-1.5,2.8l-0.2,1L66.9,265.9z M69.1,240.8c-4.1,0-7.6,1.7-7.6,3.7c0,2.1,3.5,3.8,7.6,3.8s7.6-1.7,7.6-3.8
			C76.6,242.5,73.2,240.8,69.1,240.8z"/>
		<path d="M69.1,237.7c5.8,0,10.5,3,10.5,6.7c0,3.2-3.7,5.9-8.5,6.5v6.5h11.5c1.1,1.7,2.2,3.5,3.2,5.3c-3.2-1.5-6.4-1.6-9.7-1.6
			c-1,0-2.1,0-3.1,0c-0.6,0-1.2,0-1.9,0v3.9c-0.1,0.2-0.2,0.2-0.3,0.4c-0.2-1.4-0.7-2.6-1.4-3.1c-1.1,0.5-1.8,1.8-2.1,3.3
			c-0.1-0.1-0.2-0.2-0.2-0.2v-4.2c-0.6,0-1.2,0-1.9,0c-1,0-2.1,0-3.1,0c-3.3,0-6.6,0.2-9.7,1.6c1-1.8,2.1-3.6,3.2-5.3h11.5V251
			c-4.8-0.6-8.5-3.4-8.5-6.5C58.6,240.6,63.3,237.7,69.1,237.7 M69.1,248.7c4.4,0,8.1-1.9,8.1-4.3c0-2.3-3.6-4.2-8.1-4.2
			c-4.4,0-8.1,1.9-8.1,4.2C61,246.8,64.6,248.7,69.1,248.7 M69.1,236.7c-6.5,0-11.5,3.4-11.5,7.7c0,3.5,3.5,6.5,8.5,7.4v4.7H55.6
			h-0.5l-0.3,0.5c-1.2,1.9-2.3,3.7-3.3,5.3L50,265l2.8-1.3c3.1-1.4,6.3-1.5,9.3-1.5c0.5,0,1,0,1.5,0s1,0,1.6,0c0.3,0,0.6,0,0.9,0
			v3.2c0,0.5,0.3,0.8,0.5,0.9l1.4,1.4l0.3-1.9c0.1-0.9,0.5-1.7,0.9-2.1c0.3,0.4,0.5,1.1,0.6,1.9l0.2,2l1.5-1.4
			c0.2-0.2,0.4-0.3,0.5-0.6l0.1-0.2V265v-2.9c0.3,0,0.6,0,0.9,0c0.5,0,1,0,1.6,0c0.5,0,1,0,1.5,0c3,0,6.2,0.1,9.3,1.5l2.8,1.3
			l-1.6-2.7c-1-1.7-2.1-3.5-3.3-5.3l-0.3-0.5h-0.5H72v-4.7c5-0.9,8.5-3.9,8.5-7.4C80.6,240.1,75.5,236.7,69.1,236.7L69.1,236.7z
			 M69.1,247.7c-4,0-7.1-1.7-7.1-3.3c0-1.5,2.9-3.2,7.1-3.2s7.1,1.7,7.1,3.2C76.1,246,73.1,247.7,69.1,247.7L69.1,247.7z"/>
	</g>
	<g>
		<path class="st19" d="M69.1,284.6c-4.2,0-7.6-3.3-7.6-7.4c0-2.3,1.1-4.4,2.9-5.8c-0.7-0.9-1.1-2-1.1-2.9c-0.1-0.6-0.1-1.6,0.5-2.3
			L64,266l0.3,0.1c0.2,0,0.4,0.1,0.6,0.2c0.1-0.5,0.3-0.9,0.6-1.2l0.2-0.2h0.2c0.5,0.1,1,0.4,1.3,0.7c0.4-1.2,1.1-2,1.9-2.4l0.3-0.1
			l0.2,0.2c0.6,0.4,1,1.2,1.3,2.3c0.4-0.3,0.8-0.5,1.2-0.6h0.2l0.2,0.2c0.3,0.3,0.5,0.7,0.6,1.2c0.2-0.1,0.4-0.2,0.6-0.2l0.3-0.1
			l0.2,0.2c0.4,0.4,0.6,1.2,0.5,2.1c0,0.9-0.4,2.1-1.1,3c1.9,1.4,3.1,3.6,3.1,6C76.7,281.3,73.3,284.6,69.1,284.6z M69.1,272.3
			c-2.7,0-4.9,2.2-4.9,4.9c0,2.6,2.2,4.8,4.9,4.8s4.9-2.2,4.9-4.8C74,274.5,71.8,272.3,69.1,272.3z"/>
		<path d="M69.3,263.6c0.6,0.5,1.1,1.6,1.3,2.9c0.5-0.5,1-1,1.6-1.1c0.3,0.3,0.6,1,0.6,1.7c0.3-0.3,0.7-0.5,1.1-0.6
			c0.8,0.9,0.4,3.7-0.9,4.8c2,1.2,3.3,3.4,3.3,5.9c0,3.8-3.2,6.9-7.1,6.9S62,281,62,277.2c0-2.4,1.3-4.5,3.2-5.8
			c-1.4-1.2-1.8-4.1-1-5c0.4,0.1,0.8,0.3,1.1,0.6c0-0.7,0.2-1.4,0.6-1.7c0.6,0.1,1.2,0.6,1.7,1.2C67.6,265.2,68.3,264,69.3,263.6
			 M69.1,282.5c3,0,5.4-2.3,5.4-5.3s-2.4-5.4-5.4-5.4s-5.4,2.4-5.4,5.4C63.6,280.2,66.1,282.5,69.1,282.5 M69.4,262.4l-0.5,0.2
			c-0.8,0.4-1.5,1.1-2,2.1c-0.3-0.2-0.7-0.3-1-0.4l-0.5-0.1l-0.3,0.3c-0.2,0.2-0.4,0.5-0.6,0.9c-0.1,0-0.1,0-0.2-0.1l-0.6-0.1
			l-0.4,0.4c-0.7,0.8-0.7,2-0.6,2.7c0.1,0.9,0.4,1.9,1,2.8c-1.7,1.5-2.7,3.6-2.7,5.9c0,4.4,3.6,7.9,8.1,7.9s8.1-3.6,8.1-7.9
			c0-2.4-1.1-4.6-2.9-6.1c0.6-0.9,0.9-2.1,0.9-2.9c0-0.7,0-1.7-0.7-2.4l-0.4-0.4l-0.5,0.1c-0.1,0-0.1,0-0.2,0.1
			c-0.1-0.3-0.3-0.7-0.6-0.9l-0.4-0.3l-0.5,0.1c-0.3,0-0.6,0.1-0.8,0.3c-0.3-0.8-0.7-1.5-1.3-1.9L69.4,262.4L69.4,262.4z
			 M69.1,281.5c-2.5,0-4.4-1.9-4.4-4.3s2-4.4,4.4-4.4s4.4,2,4.4,4.4S71.5,281.5,69.1,281.5L69.1,281.5z"/>
	</g>
	<g>
		<path class="st19" d="M39.7,277.2L66.6,288v-4l0.6,0.2c0.6,0.1,1.2,0.2,1.9,0.2c0.7,0,1.2-0.1,1.9-0.2l0.6-0.2v3.9l26.9-10.8
			l-29.4,20.6L39.7,277.2z"/>
		<path d="M94.7,279.2l-25.6,17.9l-25.6-17.9l23.6,9.4v-4c0.6,0.2,1.3,0.2,2,0.2s1.3-0.1,2-0.2v4L94.7,279.2 M102.3,275.1l-8,3.2
			L72,287.2v-2.5v-1.3l-1.2,0.3c-0.6,0.1-1.1,0.2-1.7,0.2s-1.2-0.1-1.7-0.2l-1.2-0.3v1.3v2.5L44,278.3l-8-3.2l7.1,4.9l25.4,18
			l0.6,0.4l0.6-0.4l25.5-18L102.3,275.1L102.3,275.1z"/>
	</g>
</g>
</svg>
