<?xml version="1.0" encoding="UTF-8" standalone="no"?>
<svg
   xmlns:dc="http://purl.org/dc/elements/1.1/"
   xmlns:cc="http://creativecommons.org/ns#"
   xmlns:rdf="http://www.w3.org/1999/02/22-rdf-syntax-ns#"
   xmlns:svg="http://www.w3.org/2000/svg"
   xmlns="http://www.w3.org/2000/svg"
   xmlns:sodipodi="http://sodipodi.sourceforge.net/DTD/sodipodi-0.dtd"
   xmlns:inkscape="http://www.inkscape.org/namespaces/inkscape"
   width="976.70422"
   height="1065.963"
   viewBox="0 0 976.70816 1065.9657"
   version="1.1"
   id="svg923"
   sodipodi:docname="DEU_Salching_COA.svg"
   inkscape:version="0.92.5 (2060ec1f9f, 2020-04-08)">
  <metadata
     id="metadata929">
    <rdf:RDF>
      <cc:Work
         rdf:about="">
        <dc:format>image/svg+xml</dc:format>
        <dc:type
           rdf:resource="http://purl.org/dc/dcmitype/StillImage" />
        <dc:title></dc:title>
      </cc:Work>
    </rdf:RDF>
  </metadata>
  <defs
     id="defs927" />
  <sodipodi:namedview
     pagecolor="#ffffff"
     bordercolor="#666666"
     borderopacity="1"
     objecttolerance="10"
     gridtolerance="10"
     guidetolerance="10"
     inkscape:pageopacity="0"
     inkscape:pageshadow="2"
     inkscape:window-width="1920"
     inkscape:window-height="1046"
     id="namedview925"
     showgrid="false"
     inkscape:zoom="0.74392831"
     inkscape:cx="488.35212"
     inkscape:cy="532.98154"
     inkscape:window-x="-11"
     inkscape:window-y="-11"
     inkscape:window-maximized="1"
     inkscape:current-layer="svg923"
     inkscape:snap-midpoints="true"
     inkscape:snap-smooth-nodes="true"
     fit-margin-top="0"
     fit-margin-left="0"
     fit-margin-right="0"
     fit-margin-bottom="0" />
  <path
     style="fill:#ffffff;stroke:#000000;stroke-width:4.99997997;stroke-linecap:round;stroke-linejoin:round"
     d="M 759.89258 9 C 748.12706 9.0776939 737.12721 9.1837438 727.37695 9.3222656 C 648.26727 10.444261 570.67781 9.1082665 492.32812 9.3222656 C 491.00013 9.3252656 489.6727 9.3327969 488.3457 9.3417969 L 488.3457 1056.4082 L 488.45898 1056.4082 C 516.12087 1056.5022 544.00808 1054.8879 571.16797 1049.668 C 603.64824 1043.4231 635.82272 1034.3064 666.44141 1021.7031 C 705.76594 1002.7724 741.79649 975.50766 774.36523 946.6875 C 811.65952 913.68575 841.78975 872.20704 866.45703 828.83203 C 885.9991 794.46907 899.87684 756.62299 909.49609 718.23242 C 919.2166 679.4375 920.09946 638.90757 923.86328 599.07812 C 935.86313 472.09354 940.51562 344.51209 950.0293 217.31445 C 952.00044 190.96021 954.88902 155.04509 957.73633 120.0918 C 958.42098 107.26641 959.17956 94.445044 960.12891 81.636719 C 961.83785 58.589884 966.35176 14.774278 966.76758 10.75 C 966.77453 10.667414 966.88544 9.3335657 966.88672 9.3183594 C 966.86037 9.3181733 940.47232 9.1444414 905.14062 9 L 759.89258 9 z "
     transform="matrix(1.000004,0,0,1.000004,0,-8.043991e-4)"
     id="path873" />
  <path
     style="fill:#ed1c24;fill-opacity:1;stroke-width:0.99999595"
     d="M 83.359375 9 C 41.695955 9.1479167 9.8617057 9.3629914 9.8203125 9.3632812 C 9.8223125 9.3870405 9.971796 11.174695 9.984375 11.324219 C 10.535952 16.668312 14.890298 59.040556 16.568359 81.683594 C 17.510164 94.390437 18.264664 107.1077 18.945312 119.83008 C 21.7995 154.86451 24.697672 190.89371 26.673828 217.31445 C 36.187496 344.51209 40.839867 472.09354 52.839844 599.07812 C 56.60374 638.90757 57.4884 679.4375 67.208984 718.23242 C 76.828221 756.62299 90.704013 794.46907 110.24609 828.83203 C 134.91345 872.20704 165.04369 913.68575 202.33789 946.6875 C 234.9401 975.53721 271.01121 1002.8287 310.38281 1021.7617 C 340.86977 1034.1267 372.97439 1042.8161 405.25977 1049.0469 C 432.55966 1054.3179 460.53996 1056.2945 488.33984 1056.3945 L 488.33984 9.328125 C 487.01485 9.337125 485.69023 9.3466094 484.36523 9.3496094 C 406.01555 9.5636085 328.42609 10.471605 249.31641 9.3496094 C 237.68858 9.1845896 223.9994 9.0788247 209.625 9 L 83.359375 9 z "
     transform="matrix(1.000004,0,0,1.000004,0,-8.043991e-4)"
     id="path875" />
  <path
     style="fill:#009bdf;fill-opacity:1;stroke:#000000;stroke-width:4.99997997;stroke-linecap:round;stroke-linejoin:round"
     d="M 521.67773 9.2890625 L 521.67383 9.3066406 C 511.89887 9.2926407 502.11818 9.2972189 492.32422 9.3242188 C 490.99622 9.3272187 489.66879 9.33475 488.3418 9.34375 L 488.3418 204.56445 L 925.47852 581.33398 C 933.51798 491.28668 938.16854 400.96319 943.74414 310.71094 L 594.36914 9.5742188 C 570.13924 9.4572192 545.92764 9.3230624 521.67773 9.2890625 z M 488.34766 490.9082 L 488.3457 490.91602 L 488.34766 490.91797 L 488.34766 490.9082 z M 488.34766 490.91797 L 488.34766 777.26562 L 728.26367 984.05859 C 744.32082 972.3267 759.69648 959.66791 774.36523 946.6875 C 811.65952 913.68575 841.78975 872.20704 866.45703 828.83203 C 867.99001 826.13643 869.47552 823.41087 870.93945 820.67383 L 488.34766 490.91797 z "
     transform="matrix(1.000004,0,0,1.000004,0,-8.043991e-4)"
     id="path877" />
  <path
     style="fill:none;stroke:#000000;stroke-width:5"
     inkscape:connector-curvature="0"
     id="path879"
     d="M 488.34557,8.6577359 V 1063.9177" />
  <path
     style="fill:#ffffff;stroke:#000000;stroke-width:5;stroke-linecap:round;stroke-linejoin:round"
     inkscape:connector-curvature="0"
     id="path885"
     d="m 269.98557,925.00074 c 16.493,0 29.863,-13.354 29.863,-29.827 0,-6.37 -2.02,-12.249 -5.424,-17.09 l 73.913,-73.825 c 4.851,3.399 10.738,5.417 17.12,5.417 16.493,0 29.863,-13.354 29.863,-29.827 0,-16.474 -13.37,-29.827 -29.863,-29.827 -6.374,0 -12.265,2.02 -17.12,5.417 l -98.36,-98.24 -98.36,98.24 c -4.85,-3.399 -10.74,-5.417 -17.12,-5.417 -16.493,0 -29.863,13.354 -29.863,29.827 0,16.474 13.37,29.827 29.863,29.827 6.377,0 12.264,-2.02 17.12,-5.417 l 73.913,73.825 c -3.403,4.846 -5.424,10.725 -5.424,17.09 0,16.474 13.37,29.827 29.863,29.827 z m 23.559,-78.61 h -47.12 v -38.517 h -38.562 v -47.06 h 38.562 v -38.517 h 47.12 v 38.517 h 38.562 v 47.06 h -38.562 z" />
  <path
     style="fill:#ffffff;stroke:#000000;stroke-width:5;stroke-linecap:round;stroke-linejoin:round"
     inkscape:connector-curvature="0"
     id="path887"
     d="M 291.81557,601.97074 V 89.350736 c 0,-10.575 -8.535,-19.06 -19.12,-19.06 h -5.459 c -10.587,0 -19.09,8.49 -19.09,19.06 V 601.97074 h 43.667 z" />
  <path
     style="fill:#ffffff;stroke:#000000;stroke-width:5;stroke-linecap:round;stroke-linejoin:round"
     inkscape:connector-curvature="0"
     id="path889"
     d="m 320.47557,94.220736 v 39.998004 h -28.666 v 176.48 h 28.666 v 39.998 h 29.43 v -32.12 h 37.28 v 32.12 h 62.28 v -0.002 -32.24 h -36.871 v -40.842 h 36.871 v -33.508 h -63.14 v 35.531 h -36.16 v -35.531 h -32.432 v -43.28 h 32.432 v -35.533 h 36.16 v 35.533 h 63.14 v -33.51 h -36.871 v -40.84 h 36.871 V 94.234736 h -62.28 v 32.110004 h -37.28 V 94.234736 h -29.43 z" />
  <rect
     style="fill:#ffffff;stroke:#000000;stroke-width:5;stroke-linecap:round;stroke-linejoin:round"
     id="rect891"
     transform="scale(-1)"
     rx="18.240999"
     y="-657.19073"
     x="-317.06558"
     height="34.764999"
     width="94.190002"
     ry="15.06" />
  <path
     style="fill:#ffffff;stroke:#000000;stroke-width:5;stroke-linecap:round"
     d="m 341.11557,816.88074 -38.562,38.517"
     id="path895"
     inkscape:connector-curvature="0" />
  <path
     style="fill:#ffffff;stroke:#000000;stroke-width:5;stroke-linecap:round"
     d="m 237.40557,713.30074 -38.562,38.517"
     id="path897"
     inkscape:connector-curvature="0" />
  <path
     style="fill:#ffffff;stroke:#000000;stroke-width:5;stroke-linecap:round"
     d="m 237.40557,855.40074 -38.562,-38.517"
     id="path899"
     inkscape:connector-curvature="0" />
  <path
     style="fill:#ffffff;stroke:#000000;stroke-width:5;stroke-linecap:round"
     d="m 341.11557,751.81074 -38.562,-38.517"
     id="path901"
     inkscape:connector-curvature="0" />
  <path
     d="m 249.66557,594.91074 c -10.11,0 -18.24,5.894 -18.24,13.213 0,7.319 8.135,13.211 18.24,13.211 h 40.621 c 10.11,0 18.242,-5.892 18.242,-13.211 0,-7.319 -8.137,-13.213 -18.242,-13.213 z m 0,63.37 c -10.11,0 -18.24,5.892 -18.24,13.211 0,7.319 8.135,13.211 18.24,13.211 h 40.621 c 10.11,0 18.242,-5.892 18.242,-13.211 0,-7.319 -8.137,-13.211 -18.242,-13.211 z"
     id="path903"
     inkscape:connector-curvature="0"
     style="fill:#ffffff;stroke:#000000;stroke-width:5;stroke-linecap:round;stroke-linejoin:round" />
  <path
     style="fill:#ffffff;fill-rule:evenodd;stroke:#000000;stroke-width:5"
     d="m 248.14557,89.340736 h 43.668"
     id="path907"
     inkscape:connector-curvature="0" />
  <path
     style="fill:#ffffff;fill-rule:evenodd;stroke:#000000;stroke-width:5"
     d="m 171.62557,755.44074 v 48.82"
     id="path909"
     inkscape:connector-curvature="0" />
  <path
     style="fill:#ffffff;fill-rule:evenodd;stroke:#000000;stroke-width:5"
     d="m 245.53557,878.08074 h 48.885"
     id="path911"
     inkscape:connector-curvature="0" />
  <path
     style="fill:#ffffff;fill-rule:evenodd;stroke:#000000;stroke-width:5"
     d="m 368.33557,804.26074 v -48.82"
     id="path913"
     inkscape:connector-curvature="0" />
  <path
     style="fill:none;stroke:#000000;stroke-width:18.00007248;stroke-linecap:butt;stroke-linejoin:miter;stroke-miterlimit:4;stroke-dasharray:none;stroke-opacity:1"
     d="m 9.7895712,8.9992449 c 0,0 11.6888818,138.8423051 16.8851028,208.3145951 9.513707,127.19816 14.166221,254.78177 26.166246,381.76687 3.763911,39.82961 4.64765,80.35875 14.368274,119.15382 9.619275,38.39073 23.495816,76.23636 43.037976,110.59946 24.66746,43.37518 54.79801,84.85393 92.09236,117.85581 44.95634,39.78188 96.50205,76.6159 154.21374,92.6306 84.70562,23.5053 178.89592,23.5053 263.60144,0 57.71173,-16.0147 109.25746,-52.84872 154.2137,-92.6306 37.29444,-33.00188 67.42507,-74.48063 92.09245,-117.85581 19.54215,-34.3631 33.41883,-72.20873 43.03812,-110.59946 9.72055,-38.79507 10.60442,-79.32421 14.36826,-119.15382 C 935.86714,472.09561 940.51978,344.512 950.0335,217.31384 955.22963,147.84155 966.91859,8.9992449 966.91859,8.9992449 Z"
     id="path1009-1-7-5"
     inkscape:connector-curvature="0"
     sodipodi:nodetypes="cssscsaascssscc" />
</svg>
